<!-- created by svgstack.com | Attribution is required. --><svg xmlns="http://www.w3.org/2000/svg" width="1024" height="1024"><path fill="#373B43" d="m670.958 96.777 2.162-.067c55.824-1.306 107.644 30.763 127.17 83.427 5.608 15.124 7.654 20.819 15.206 35.245 32.392 61.874-16.088 155.712-90.068 156.552 20.69-8.11 28.044-19.016 31.386-41.444-15.988 5.508-31.32 9.626-48.394 8.432-2.83 9.44-8.164 18.04-10.606 27.61-2.274 8.914-2.916 18.342-4.718 27.386-17.94 90.04-86.54 199.74-174.446 237.462 5.94 6.064 12.14 13.012 15.368 20.928 53.406 21.712 47.962 86.988 13.606 69.414-6.348-10.794-3.17-15.456-14.286-26.058-34.91-33.298-54.292 2.356-64.096 2.294-20.536-.132-12.278-29.512-.598-40.762-3.144-5.218-6.144-10.628-9.826-15.49-4.138-.554-8.266-.966-12.428-1.298-10.468 19.278-26.546 40.688-40.112 57.656-19.442 24.318-12.518 8.474-20.79 40.296-3.384 13.022-7.164 25.94-11.972 38.51l-.578 1.554c-16.932 45.006-44.43 95.244-90.214 115.986-8.698 12.374-14.99 22.774-30.554 26.4-31.244-8.29-15.568-74.408-10.856-96.8 9.752-46.34 26.274-87.53 45.214-130.734-18.874 7.132-55.206 22.5-72.662 22.002-8.266-.236-12.444-6.024-14.65-13.442 5.036-20.592 63.656-96.252 78.368-115.85 5.922-7.89 13.384-16.118 18.478-24.464 2.656-4.352 8.88-31.654 11.682-39.872 27.362-80.284 56.814-123.032 115.016-180.388 40.188-39.604 76.914-81.308 104.092-131.072 6.67-12.213 11.736-25.136 18.244-37.364 25.924-48.71 72.644-72.931 125.862-76.05m-188.85 555.531c.688-3.246-1.684-10.994-5.328-11.9-1.786 3.814 2.768 9.378 5.328 11.9"/><path fill="#B8DDD2" d="M468.644 316.198c3.164-4.114 6.964-7.884 10.458-11.73 31.73-34.922 55.388-73.812 75.822-115.984 30.976-63.928 110.56-95.558 174.994-63.74 24.392 12.046 47.976 37.038 56.768 62.973-20.978 4.24-35.44 15.101-50.274 29.987a52.64 52.64 0 0 1-18.092 22.926c-6.436 12.486-17.934 20.25-26.632 30.742-17.686 21.338-20.594 44.59 2.06 63.014-15.576 26.584-12.586 41.152-19.056 68.558-16.132 68.348-54.444 133.694-108.65 178.792-17.382 14.46-46.51 34.772-68.116 41.234-24.548 7.34-47.49 1.958-72.194-.284 3.804-3.104 8.046-5.808 12.004-8.726 51.41-37.908 97.01-85.394 127.624-141.736 25.672-47.248 57.116-125.106-6.298-158.566-28.416-14.992-61.622-6.25-90.418 2.54"/><path fill="#FAD3A3" d="M718.32 240.63c-21.318 15.272-50.628 12.524-68.736-6.446s-19.492-48.374-3.246-68.96c16.246-20.587 45.168-26.077 67.826-12.874 22.66 13.202 32.146 41.069 22.248 65.354a52.64 52.64 0 0 1-18.092 22.926"/><path fill="#373B43" d="M683.636 163.813c16.944-2.81 32.98 8.584 35.9 25.51 2.918 16.925-8.372 33.033-25.28 36.061-17.06 3.056-33.346-8.362-36.292-25.441s8.574-33.293 25.672-36.13"/><path fill="#FEFEFE" d="M702.676 174.822a9.46 9.46 0 0 1 11.7 6.511c1.428 5.033-1.5 10.269-6.536 11.686-5.02 1.413-10.236-1.505-11.66-6.522a9.457 9.457 0 0 1 6.496-11.675"/><path fill="#71C864" d="M487.938 326.404c32.552-11.696 76.122-6.166 89.056 30.728 12.366 35.28-13.322 87.238-32.182 118.806-63.796 106.776-194.934 188.766-314.394 219.55-4.63 1.586-9.342 2.768-14.08 3.974 1.208-2.24 2.492-4.87 4.75-6.186 6.716-14.3 17.774-27.434 27-40.262l45.292-62.858c15.714-21.546 17.648-19.406 24.12-45.582 20.47-82.798 84.656-194.244 170.438-218.17"/><path fill="#B1E5AE" d="M221.088 693.276c6.716-14.3 17.774-27.434 27-40.262l45.292-62.858c15.714-21.546 17.648-19.406 24.12-45.582 20.47-82.798 84.656-194.244 170.438-218.17-1.284 3.696-13.618 7.7-17.07 9.686-66.616 38.332-121.274 129.852-140.636 203.012-5.6 21.162-3.736 21.606-16.436 39.46-25.462 35.794-52.566 70.306-77.53 106.498-1.778 2.578-3.622 6.082-5.848 8.216v2.212c-4.63 1.586-9.342 2.768-14.08 3.974 1.208-2.24 2.492-4.87 4.75-6.186"/><path fill="#3FB1BF" d="M383.374 648.528c2.984 4.71-7.114 56.15-8.852 64.352-13.184 62.214-34.662 116.52-82.384 159.47 28.506-59.314 44.118-123.446 58.336-187.386-3.434 6.332-5.614 13.85-8.15 20.6l-13.792 36.314c-14.684 39.04-30.066 78.316-46.854 116.508-6.734 15.318-14.464 37.71-29.508 46.998-15.144-43.33 27.344-159.526 45.634-197.57 3.57-7.428 6.87-16.224 11.688-22.85 10.022-5.672 20.868-9.138 31.206-14.092 14.562-6.978 28.328-15.06 42.676-22.344"/><path fill="#EFB29F" d="M788.944 203.608c3.244-.248 5.284 5.88 6.604 8.218 27.382 48.508 12.624 86.968-23.042 127.096.192-8.75.056-16.076-2.436-24.546-7.572-23.128-31.128-34.398-44.642-53.324 13.84-21.95 38.248-51.636 63.516-57.444"/><path fill="#D2657A" d="M712.678 271.822c11.736 12.95 31.808 28.304 40.23 42.554-7.054 2.84-14.404 4.872-21.5 7.626-10.484.788-21.94 4.602-30.786-3.298-16.672-14.892.744-34.79 12.056-46.882"/><path fill="#EFB29F" d="M498.06 661.696c27.756-3.946 71.854 18.78 60.256 49.266-3.716-9.638-9.19-17.868-15.45-25.998-16.396-11.512-43.95-24.964-62.438-9.898-3.84 3.13-6.832 6.958-11.138 9.518l-.646.38c4.37-16.114 12.666-21.608 29.416-23.268"/><path fill="#3FB1BF" d="M407.95 633.888c6.696 1.01 13.666 3.564 20.374 5.03-6.454 12.612-15.534 24.274-23.702 35.832-2.994 3.968-6.004 7.918-9.094 11.814 1.564-15.656 2.406-32.276 5.662-47.646 2.044-2.048 4.328-3.49 6.76-5.03"/><path fill="#EFB29F" d="M502.276 637.176c6.654-1.068 12.726 8.366 16.374 12.954l-9.53-1.602c-3.698.1-7.362.15-11.06 0-1.866-3.174-3.682-6.356-5.408-9.61a157 157 0 0 1 9.624-1.742"/></svg>