<!-- created by svgstack.com | Attribution is required. --><svg xmlns="http://www.w3.org/2000/svg" width="1024" height="1024"><path fill="#257CDD" d="M320.104 151.358c31.182-64.83 116.7-83.109 178.436-53.346 51.948 25.043 81.346 78.537 84.694 134.612 2.682 44.96 3.588 85.842 34.852 123.376 6.798 8.162 15.238 14.714 22.834 22.084 48.362 46.92 70.968 130.47 76.082 194.978 3.376 42.59 3.946 84.728 21.87 124.3 3.318 7.324 18.156 28.736 3.928 32.998-11.93 3.574-54.764-12.196-67.37-16.82-3.722-2.152-8.156-3.622-12.114-5.328-37.256-16.056-71.14-39.476-100.126-67.792-43.65-49.478-68.316-78.196-87.04-146.61-25.096 15.56-45.438 31.816-77.354 14.008-2.742-1.53-5.606-3.504-8.584-4.484-11.554-27.094-12.746-66.532-7.504-95.388 10.292-60.714 47.082-57.414 24.054-128.344l-3.882-5.28c-4.622 4.21-9.388 6.868-14.808 9.908-17.372 5.174-34.958.596-52.54 0-.288 10.146 1.394 19.942 4.594 29.578 6.894 20.764.154 26.196-18.074 11.704-54.968-43.696-67.422-107.046-17.196-159.895 4.794-5.045 11.032-8.654 15.248-14.26"/><path fill="#32BAF7" d="M339.304 154.757c6.16-16.48 27.89-33.618 43.456-40.718 89.78-40.95 178.808 26.62 183.064 121.955 1.888 42.244 2.316 62.408 21.752 103.232-25.094-9.058-44.266-13.934-70.472-1.492-34.784 16.512-42.264 47.62-49.528 80.796-.302 25.374 1.176 50.856 8.574 75.28-25.096 15.56-45.438 31.816-77.354 14.008-2.742-1.53-5.606-3.504-8.584-4.484-11.554-27.094-12.746-66.532-7.504-95.388 10.292-60.714 47.082-57.414 24.054-128.344l-3.882-5.28c-4.622 4.21-9.388 6.868-14.808 9.908-17.372 5.174-34.958.596-52.54 0-.288 10.146 1.394 19.942 4.594 29.578 6.894 20.764.154 26.196-18.074 11.704-54.968-43.696-67.422-107.046-17.196-159.895 4.794-5.045 11.032-8.654 15.248-14.26 10.018-2.979 10.454.821 19.2 3.4"/><path fill="#2E3D59" d="M320.104 151.358c10.018-2.98 10.454.82 19.2 3.399 13.936 8.844 39.148 25.183 48.768 38.792 9.096 10.063 18.116 19.961 24.426 32.109 5.172 20.342 2.73 32.536-9.618 48.664-4.622 4.21-9.388 6.868-14.808 9.908-17.372 5.174-34.958.596-52.54 0-.288 10.146 1.394 19.942 4.594 29.578 6.894 20.764.154 26.196-18.074 11.704-54.968-43.696-67.422-107.046-17.196-159.895 4.794-5.045 11.032-8.654 15.248-14.26"/><path fill="#596E83" d="M327.144 168.887c17.348 9.494 32.562 20.976 46.482 35.003-29.588 21.534-49.834 38.962-56.246 75.712.308 6.09.066 12.248 0 18.348-42.378-43.042-31.432-90.946 9.764-129.063"/><path fill="#334D6E" d="M385.806 217.856c12.496 7.024 16.41 34.172 3.874 45.33-9.278 8.256-25.84 6.342-37.086 5.742-4.43-.634-8.846-.298-13.29 0 6.918-23.106 28.834-36.512 46.502-51.072"/><path fill="#FEDB56" d="M382.708 407.946c12.564 5.646 8.708 28.766 18.61 34.352 4.856.098 6.05-15.664 7.226-19.386 1.016-3.22 9.314-24.992 14.596-15.726 2.014 3.536 4.392 21.19 10.88 15.204 12.268-11.316 11.998-32.906 33.556-3.86-.302 25.374 1.176 50.856 8.574 75.28-25.096 15.56-45.438 31.816-77.354 14.008-2.742-1.53-5.606-3.504-8.584-4.484-11.554-27.094-12.746-66.532-7.504-95.388"/><path fill="#93E9F2" d="M388.072 193.55c30.926-73.89 114.964-35.936 92.808 14.252-3.004 6.804-7.322 10.03-10.602 15.49-14.942 14.998-40.558 12.694-57.78 2.366-6.31-12.148-15.33-22.046-24.426-32.109"/><path fill="#2E3D59" d="M428.976 172.864c10.01-2.213 19.932 4.065 22.218 14.059s-3.92 19.961-13.896 22.321c-10.082 2.382-20.174-3.902-22.484-13.999s4.046-20.144 14.162-22.38"/><path fill="#FEFEFE" d="M435.454 174.97c8.112.574 13.422 8.076 4.3 12.782-10.236.686-12.6-7.983-4.3-12.782"/><path fill="#F75B52" d="M470.278 223.292c17.836 3.34 30.31 20.054 26.842 38.046-7.344 38.112-62.826 47.396-90.358 18.264l-3.882-5.28c12.348-16.128 14.79-28.322 9.618-48.664 17.222 10.328 42.838 12.632 57.78-2.366"/><path fill="#32BAF7" d="M611.498 466.224c4.874 1.712 7.976 10.294 10.472 14.424 19.95 33.002 42.674 64.658 77.488 83.52-1.02 13.372 1.86 29.362 2.18 43.192-26.114-14.668-58.428-46.736-75.958-70.878-5.19-7.148-8.266-16.456-14.004-23.002-5.072-5.788-14.844-1.316-14.236 6.324 1.78 22.382 62.358 79.402 79.298 92.578 8.234 6.404 18.088 10.446 25.986 17.312 1.178 11.52 2.69 23.002 4.192 34.482-49.762-15.466-110.978-77.11-134.8-121.038-4.282-7.896-6.448-18.684-17.516-16.628-12.644 5.306 2.12 25.572 6.208 32.494 36.862 62.432 84.858 96.342 148.322 125.116 8.816 3.996 12.878 17.728 16.078 26.1-19-1.97-51.566-15.554-68.876-24.428-75.22-38.566-135.908-108.574-161.812-189.19 27.048 19.922 44.638 16.052 66.06-9.01 15.196 6.588 35.054 4.966 44.372-10.562 2.154-3.59 3.432-7.87 6.546-10.806"/><path fill="#32BAF7" d="M544.334 348.696c18.1-2.84 39.618 6.954 54.47 16.612 62.022 40.344 82.332 108.23 96.472 175.932-20.77-16.872-39.49-37.806-53.21-60.816-4.978-8.376-8.994-17.078-13.486-25.698-5.438-10.43-12.484-2.822-27.426-7.538-10.602 2.782-6.048 12.668-11.546 20.064-12.312 16.566-29.036-3.78-37.416-2.074-7.126 1.452-13.056 44.842-46.154 17.596-43.9-36.14-18.588-128.696 38.296-134.078"/><path fill="#F75B52" d="M563.19 640.42c28.986 28.316 62.87 51.736 100.126 67.792 3.958 1.706 8.392 3.176 12.114 5.328 4.468 16.412 11.22 32.2 16.872 48.22l41.172 115.276c5.288 14.698 25.248 48.334 11.61 58.396-5.734.83-11.83-.03-17.53-.84-54.13-7.684-97.01-32.668-122.656-80.85-23.104-43.41-34.576-90.098-40.628-138.506-1.206-9.638-1.888-19.252-3.69-28.812.294-6.36.246-12.974 0-19.336-.292-7.304-.708-15.28 0-22.546 1.046-1.188 1.806-2.75 2.61-4.122"/><path fill="#2E3D59" d="M598.47 706.552c14.31.152 10.116 12.78 11.826 23.192 6.94 42.246 23.122 85.344 46.398 121.144 5.614 8.634 31.396 31.41 12.83 38.136-13.458.646-35.904-41.128-41.722-52.484-8.316-16.232-53.07-119.618-29.332-129.988"/><path fill="#2E3D59" d="M644.238 739.632c10.792.4 13.228 17.27 15.936 25.256 6.586 19.418 14.742 38.348 25.828 55.654 5.038 7.864 13.888 16.696 16.722 25.352-1.448 4.63-2.604 6.806-7.448 8.718-21.636 1.102-53.384-84.24-57.9-101.016-2.004-7.444-1.658-12.286 6.862-13.964"/><path fill="#F75B52" d="M476.15 493.81c18.724 68.414 43.39 97.132 87.04 146.61-.804 1.372-1.564 2.934-2.61 4.122-.838-.32-1.492-.11-2.364 0 3.07 4.224-5.138.428-13.882 5.97 6.292 5.078 11.908 9.632 16.246 16.576.246 6.362.294 12.976 0 19.336-13.404 4.694-25.338-17.11-52.576-5.702-9.356 3.918-15.002 11.41-23.524 2.172l-4.906 1.906c-17.582-4.768-25.926-14.092-48.11-3.134-6.394 3.158-20.626 12.67-21.848-1.486-1.496-17.326 24.562-33.164 40.284-34.116 5.32-9.814 11.75-19.108 17.676-28.57-3.458-2.334-7.08-4.56-10.376-7.112-4.1-5.33-11.116-11.078-15.934-16.856-22.26-26.69-41.68-56.388-51.054-90.192 2.978.98 5.842 2.954 8.584 4.484 31.916 17.808 52.258 1.552 77.354-14.008m0 159.966c4.502 5.382 7.648 11.096 10.318 17.57 6.722-11.568 15.598-19.47 28.724-22.964l2.438-.628v-5.72c-9.484-2.858-18.408-7.178-27.798-10.092-4.49 7.25-8.61 14.992-13.682 21.834"/><path fill="#2E3D59" d="M467.576 617.494c7.178 5.344 14.49 10.012 22.256 14.448-4.49 7.25-8.61 14.992-13.682 21.834 4.502 5.382 7.648 11.096 10.318 17.57 6.722-11.568 15.598-19.47 28.724-22.964l2.438-.628v-5.72c9.188 1.836 31.382 3.968 40.586 2.508 3.07 4.224-5.138.428-13.882 5.97 6.292 5.078 11.908 9.632 16.246 16.576.246 6.362.294 12.976 0 19.336-13.404 4.694-25.338-17.11-52.576-5.702-9.356 3.918-15.002 11.41-23.524 2.172l-4.906 1.906c-17.582-4.768-25.926-14.092-48.11-3.134-6.394 3.158-20.626 12.67-21.848-1.486-1.496-17.326 24.562-33.164 40.284-34.116 5.32-9.814 11.75-19.108 17.676-28.57"/><path fill="#257CDD" d="m402.88 274.322 3.882 5.28c23.028 70.93-13.762 67.63-24.054 128.344-5.242 28.856-4.05 68.294 7.504 95.388 9.374 33.804 28.794 63.502 51.054 90.192 4.818 5.778 11.834 11.526 15.934 16.856-82.66-48.684-116.432-153.436-81.194-242.122 15.448-38.878 30.752-36.658 12.066-84.03 5.42-3.04 10.186-5.698 14.808-9.908"/></svg>