<!-- created by svgstack.com | Attribution is required. --><svg xmlns="http://www.w3.org/2000/svg" width="1024" height="1024"><path fill="#264E6B" d="M592.642 99.29c62.006-2.462 119.6 39.727 139.592 97.864 52.706 34.002 60.788 109.03 17.748 155.106-5.28 5.654-11.142 13.152-19.832 12.128-21.74-2.564 9.278-32.222-9.88-57.86-17.22 15.896-30.082 24.08-52.678 31.454 9.008 31.734 8.82 88.052 2.428 119.124-15.844 76.988-60.802 144.262-126.426 187.57v72.674c19.474.594 34.07-2.586 50.072 12.03 10.238 9.352 19.744 23.632 20.048 37.996.32 15.01-22.182 11.136-31.99 11.138l-147.126-.024c-17.066-10.52.474-38.63 10.242-48.164 11.894-11.612 26.34-13.192 42.224-12.976v-43.968c-11.904 4.942-24.032 8.736-36.15 13.07-4.48 1.14-9.028 2.02-13.556 2.952l-15.104 65.382c-4.394 19.218-7.912 39.304-14.348 57.956-16.98 49.21-53.044 89.632-104.308 104.248-16.328 4.656-54.264 15.244-60.42-6.452 16.234-64.996 34.762-131.828 52.51-196.646-11.674-.122-46.668 9.834-47.102-10.142-.17-7.856 35.19-41.758 41.212-54.856 2.566-5.584 4.73-36.36 6.936-47.14 16.49-80.576 52.978-162.066 113.064-219.608 4.672-4.474 9.944-8.784 14.19-13.648 22.374-25.634 39.582-79.178 43.438-112.436 1.366-11.78.68-23.474 1.634-35.242 5.22-64.439 58.402-118.463 123.582-121.53"/><path fill="#FEC039" d="M592.642 120.213c49.758-4.658 91.986 28.976 114.4 71.093-24.954 15.068-42.128 39.734-39.45 70.172-7.74 2.62-12.31 7.816-16.208 14.992-17.206 31.682 3.416 89.616 3.078 130.624-.79 95.816-60.654 193.178-146.792 235.008 4.612-4.104 9.188-8.226 13.666-12.476 52.048-49.86 78.608-107.674 82.578-179.69 4.82-87.458-62.326-135.016-142.242-105.014 22.606-44.826 24.974-72.516 28.336-119.818 3.96-55.745 45.524-101.576 102.634-104.891"/><path fill="#264E6B" d="M631.672 166.93c17.938-2.22 34.254 10.59 36.356 28.544 2.1 17.954-10.816 34.184-28.784 36.166-17.8 1.964-33.846-10.806-35.928-28.594-2.082-17.785 10.584-33.917 28.356-36.116"/><path fill="#FEFEFE" d="M634.414 187.59c6.494-.699 12.318 4.018 12.982 10.515.666 6.497-4.08 12.297-10.58 12.929-6.454.628-12.204-4.076-12.864-10.528-.662-6.451 4.014-12.224 10.462-12.917"/><path fill="#7ACEB5" d="M502.826 356.056c22.12-4.684 51.582 12.392 64.672 29.354 20.106 26.056 17.362 56.78 13.424 87.44-13.926 108.398-98.454 180.66-197.078 213.316-3.602 1.192-14.508 5.286-17.788 4.86 3.086-2.08 12.646-5.864 16.664-7.78 68.632-32.698 118.878-104.534 135.542-177.374 2.05-8.964 9.372-42.032 4.612-48.974-4.71-6.868-16.154-4.858-19.016 2.706-1.982 5.238-1.514 16.228-2.246 22.552-7.278 62.87-46.576 123.946-95.386 162.52-34.74 25.356-81.056 44.494-123.902 49.176 16.942-22.384 15.19-27.878 39.882-37.162 66.276-24.92 116.532-86.946 129.348-156.288 1.324-7.162 6.316-34.266-10.02-29.678-11.132 3.126-9.486 21.614-11.13 30.266-10.622 55.904-61.38 120.598-117.436 137.01l-.76.22c13.916-86.324 39.716-164.084 100.964-230.14 23.546-25.396 53.386-50.676 89.654-52.024"/><path fill="#F2E2C1" d="M713.796 211.396c31.458 12.502 53.946 62.218 39.964 93.13-1.14 5.012-3.16 10.3-5.192 15.024-1.246-3.844-2.362-7.81-3.98-11.516-9.988-25.174-32.58-37.804-56.892-46.556-1.036-19.214 9.016-40.68 26.1-50.082"/><path fill="#05BFEA" d="m371.7 709.556.722.156c1.158 4.426-27.946 117.972-31.926 130.64-8.622 27.438-26.056 52.094-55.294 59.97l-.642-.156c1.078-2.124 10.226-9.55 12.796-12.432 30.174-33.842 45.268-126.316 58.114-173.842 5.324-1.658 10.832-2.926 16.23-4.336"/><path fill="#05BFEA" d="M318.154 709.556c5.408.812 10.492 2.524 15.634 4.336l-16.136 65.918c-8.176 34.336-14.3 69.208-37.68 96.936-2.726 2.858-5.492 5.52-8.502 8.076 2.198-9.182 4.978-18.236 7.456-27.346l31.832-121.002c2.35-8.938 4.364-18.194 7.396-26.918"/><path fill="#05BFEA" d="m413.116 696.954.49.148c1.17 3.332-19.926 90.214-22.99 101.26-6.758 24.358-20.05 45.742-35.146 65.802l-.556.154c-.774-2.162 4.758-14.272 5.718-17.344 13.996-44.762 24.092-96.628 34.182-142.566a390 390 0 0 0 18.302-7.454"/><path fill="#E27544" d="m482.524 737.594 44.338-.018c24.536-.006 49.48-5.83 62.58 19.85H450.914c5.508-14.11 16.954-18.908 31.61-19.832"/><path fill="#FEC039" d="M523.358 657.094c.578.814-.002 54.564 0 60.256-5.23.062-10.458.032-15.688 0v-52.228c5.096-3 10.286-5.63 15.688-8.028"/><path fill="#E27544" d="M674.722 279.874c10.926.946 21.03 6.138 30.634 11.042-4.718 6.39-11.518 10.718-17.66 15.612-7.684 3.924-15.124 7.948-23.582 9.946-.606-13.572 1.82-25.988 10.608-36.6"/></svg>