<!-- created by svgstack.com | Attribution is required. --><svg xmlns="http://www.w3.org/2000/svg" width="1024" height="1024"><path fill="#31445D" d="M590.036 108.495c53.156-1.245 96.776 15.159 133.48 55.158 5.688 6.199 11.308 12.46 15.398 19.859-1.03 1.192-2.324 2.204-3.51 3.237l.678.338c61.448 30.255 88.374 114.373 63.788 176.525-8.558 21.634-24.18 35.2-31.212 3.974-2.698-11.978-9.946-23.344-19.26-31.252-15.772 17.426-27.156 31.984-53.53 35.444 3.866 24.538 7.964 42.968 13.096 66.918 21.408 99.892-28.774 201.326-106.988 262.944-9.98 7.864-21.076 13.858-31.464 21.104 14.292 7.006 21.8 12.2 27.744 27.92 4.69 12.406 8.882 38.79-8.22 44.146-29.588-5.528 7.33-47.604-40.766-51.794 5.828 11.83 14.162 34.344 5.866 46.29-3.6 5.184-11.962 6.4-16.99 2.584-10.65-8.088 2.028-31.986-18.3-47.064-27.056 7.748-55.342 12.712-83.55 12.664l-4.276 9.836c-6.568 14.098-13.674 27.944-20.122 42.096-23.424 51.418-48.152 100.016-112.124 102.824-10.6.464-57.13 1.242-64.352-.964-16.886-5.158 4.1-38.55 7.984-47.07 12.844-28.176 32.064-65.216 42.378-93.438-21.318 1.912-43.54 8.844-65.004 8.702-8.068-4.122-9.512-8.418-7.022-16.606 8.4-27.612 19.94-54.604 30.026-81.648l60.964-160.184 20.846-51.796c17.974-45.634 29.368-77.782 71.992-109.912 6.264-4.72 14.578-8.604 19.706-14.492 13.02-14.948 24.89-54.864 26.748-73.398.992-9.904 1.04-19.792 2.592-29.656 11.876-75.547 69.728-124.334 143.404-133.289"/><path fill="#5EC25A" d="M471.812 355.098c20.066-3.586 46.044 6.574 61.942 18.514 64.116 48.152 32.188 160.278-9.118 214.53-18.34 24.086-64.33 46.94-92.156 24.914-18.94-14.992-7.448-30.182-9.58-43.98-.872-5.642-7.712-9.782-13.138-8.726-7.066 1.378-17.002 20.932-21.562 27.452-26.512 34.62-60.804 55.03-105.328 57.366 17.95-47.798 36.73-95.342 55.498-142.83 8.71-22.042 16.324-46.692 27.162-67.566 20.68-39.83 59.156-77.716 106.28-79.674"/><path fill="#8ED0A1" d="M450.846 333.702c16.466-37.566 14.41-49.152 19.336-86.152 8.726-65.552 66.944-115.538 132.868-115.166 47.516.269 75.96 19.495 107.21 51.128-9.152 8.927-16.788 17.392-23.144 28.588-3.724-6.202-7.586-12.072-12.56-17.363-43.914-46.714-121.13-12.472-121.224 44.777-.024 14.838 15.63 13.984 23.236 5.094l.414-.492c4.948-60.116 82.116-69.658 94.366 0 1.662 12.244.922 24.972.918 37.318l-.004 57.23c.002 11.63-.38 23.394.428 34.996 2.218 31.838 13.818 60.722 17.048 90.816-16.562-5.028-31.626-14.664-41.144-29.442-2.446-3.798-4.422-9.354-7.872-12.26-9.886-8.322-22.434 2.838-17.658 14.962-6.562 2.378-23.29 10.156-28.674 10.546-1.24-77.268-68.218-129.418-143.544-114.58"/><path fill="#F9D36A" d="M576.982 244.116c4.948-60.116 82.116-69.658 94.366 0-1.9 3.932-3.06 8.118-4.94 12.038-19.476 40.604-76.23 35.116-89.426-12.038"/><path fill="#31445D" d="M621.258 223.622c8.246-1.242 15.938 4.432 17.19 12.676 1.25 8.246-4.414 15.944-12.658 17.204-8.256 1.264-15.972-4.412-17.224-12.672-1.252-8.258 4.432-15.966 12.692-17.208"/><path fill="#F9D36A" d="M623.064 437.736c15.722 26.898 37.222 45.922 68.34 51.26-.692 59.178-35.082 130.162-76.984 171.206-49.206 48.2-114.88 74.264-183.778 73.37-10.864-.142-21.658-1.48-32.512-1.712 23.674-14.89 43.614-25.166 66.844-42.968 70.58-54.088 130.58-148.822 129.416-240.61 5.384-.39 22.112-8.168 28.674-10.546"/><path fill="#2DAB88" d="M401.27 611.044c1.44 1.504 2.698 4.564 3.812 6.404 15.868 26.22 48.066 31.61 76.232 25.328-37.046 43.614-113.588 79.364-169.46 96.828-21.512 6.282-47.24 11.842-69.644 13.018 10.922-27.652 19.768-56.45 31.812-83.618 49.108 3.648 95.534-21.904 127.248-57.96"/><path fill="#F7942C" d="M357.944 749.576c3.144-.288 49.488 7.116 52.422 7.914-24.466 50.444-39.15 112.404-98.512 129.246-16.8 3.706-35.436 1.032-52.598 1.676 9.428-29.3 29.67-67.992 42.99-96.072 4.21-8.874 8.7-21.804 14.312-29.298 11.138-4.664 29.664-10.044 41.386-13.466"/><path fill="#FD9772" d="M720.534 206.82c50.842 18.464 70.738 81.234 62.512 131.414-3.082-4.084-6.338-8.024-9.58-11.98-20.4-21.7-47.964-32.03-77.598-31.272-.08-33.114-1.652-62.74 24.666-88.162"/><path fill="#DE652C" d="M695.868 319.252c10.916-.07 22.466.29 32.588 4.716-2.662 5.016-7.004 8.736-11.254 12.366-6.452 5.08-13.66 8.994-21.334 11.88z"/></svg>