<!-- created by svgstack.com | Attribution is required. --><svg xmlns="http://www.w3.org/2000/svg" width="1024" height="1024"><path fill="#455E9E" d="M448.356 96.487c8.1-.216 16.256-.461 24.344.148 78.772 5.931 136.94 76.607 138.36 153.491.202 10.982-.906 21.868-1.776 32.802C718.852 381.31 788.424 551.104 804.4 697.114c1.516 13.858 7.658 28.484-8.81 33.728-12.27-3.476-23.994-8.522-36.004-12.77 3.77 12.526 8.348 24.904 12.536 37.304l44.944 130.69c7.906 23.688 14.012 40.212-20.172 32.09-36.132-8.584-68-28.794-93.01-55.92-21.614-23.444-55.15-92.102-60.176-125.362-17.472 10.434-21.74 7.134-41.952 7.124l-58.692-.03-82.93.004c-11.25.004-29.344 1.242-39.644-.55-29.116-5.066-29.688-48.812-1.404-55.866 18.256-4.552 80.114-.4 102.454-1.12V644.78c-10.084-7.306-20.606-13.692-30.394-21.498-77.342-61.66-109.556-175.896-95.33-270.82 3.642-24.306 10.512-47.754 17.946-71.11-3.01-.614-5.916-1.742-8.82-2.736-26.908 53.796-92.694 62.85-132.19 16.484-17.114 11.466-25.762 34.664-23.692 54.714.87 8.426 9.798 25.39-4.208 28.282-8.66 1.786-14.35-7.538-18.446-13.59-30.29-44.768-33.724-105.576-.084-149.966 25.4-33.52 53.724-42.546 91.828-54.152 32.972-10.042 19.608-4.068 43.358-25.164 25.268-22.445 53.424-34.104 86.848-38.737m130.282 589.949h8.86c-.298-4.998-.312-9.802 0-14.792-2.974-.508-5.914-1.13-8.86-1.772-.174 5.524.2 11.054 0 16.564"/><path fill="#7DE5AF" d="M453.272 119.703c70.442-6.393 128.946 55.35 134.014 122.709.738 9.81-.12 19.6.212 29.42-47.82-13.964-66.408 23.738-81.852 61.322-2.73.038-5.464.004-8.194 0-24.988-7.132-43.938-6.616-64.38-29.358l.494-3.494c1.536-11.406 8.128-21.656 10.742-32.882-4.834-12.408-21.404-8.768-32.16-8.438-1.038-13.196-7.36-18.014-11.37-29.63-10.652-30.866-3.692-43.649-30.106-70.485 20.754-23.71 51.708-36.37 82.6-39.164"/><path fill="#455E9E" d="M450.51 136.067c27.074-4.172 52.43 14.318 56.736 41.37 4.306 27.055-14.056 52.503-41.088 56.943-27.222 4.47-52.888-14.05-57.224-41.294s14.31-52.817 41.576-57.019"/><path fill="#FEFEFE" d="M452.57 158.784c14.65-2.954 28.91 6.57 31.794 21.236 2.882 14.665-6.712 28.878-21.39 31.69-14.58 2.792-28.674-6.722-31.536-21.286-2.864-14.565 6.58-28.706 21.132-31.64"/><path fill="#455E9E" d="M455.184 172.148c7.138-1.384 14.068 3.206 15.578 10.318s-2.956 14.123-10.04 15.76a13.333 13.333 0 1 1-5.538-26.078"/><path fill="#FDDDAE" d="M424.392 328.166c4.766 1.91 9.056 7.01 13.658 9.672 19 10.992 39.26 16.724 61.12 17.894.582 9.85-.996 19.586-1.54 29.406-5.466 98.526 49.588 197.784 126.84 256.196 6.352 4.802 13.036 9.17 19.238 14.168h-4.566c-20.468-1.63-40.866-4.236-60.47-10.602-119.852-38.922-175.654-164.84-160.318-283.79 1.412-10.954 2.606-22.406 6.038-32.944"/><path fill="#7DE5AF" d="M569.364 292.212c45.576-.934 134.872 144.474 154.188 195.998-15.28 2.536-30.05 1.876-45.324 0-47.752-8.186-128.798-44.25-156.688-87.58-4.778-30.042 7.212-105.658 47.824-108.418"/><path fill="#539BF7" d="M524.844 439.706c4.086 1.26 7.51 6.026 10.738 8.746 23.724 19.984 50.322 35.306 79.224 46.628 12.108 80.938 86.16 140.538 160.722 163.156 2.264 14.672 5.048 29.098 6.492 43.896-121.692-47.226-231.73-125.914-257.176-262.426"/><path fill="#FEB53D" d="M350.874 173.025c14.116-.39 24.032 47.637 26.46 56.575l-4.328 1.262c-46.31 13.92-113.338 29.52-136.65 72.934-2.538 5.096-4.846 10.26-6.766 15.622-7.462-25.362-5.28-52.698 5.974-76.612 23.108-49.103 70.158-53.462 115.31-69.781"/><path fill="#539BF7" d="M639.142 503.318c8.25.498 16.924 4.216 25.06 5.94 22.748 4.822 46.446 4.748 69.286.642 5.064 16.59 12.144 32.64 17.51 49.156 7.82 24.074 12.694 45.164 18.806 69.3.922 6-25.732-7.95-34.796-12.82-45.766-24.584-80.68-62.412-95.866-112.218"/><path fill="#7DE5AF" d="M700.492 691.658c7.096 1.468 22.32 9.6 28.956 13.546 6.236 12.222 13.004 36.426 17.942 50.442l32.892 93.854c5.142 14.76 9.842 29.736 15.308 44.374-29.858-8.152-30.546-26.568-40.454-52.084-19.28-49.648-35.716-100.34-54.644-150.132"/><path fill="#7DE5AF" d="M668.968 678.382c4.662-.774 11.544 25.35 13.354 30.332l46.866 129.836c3.09 8.652 6.678 17.194 9.184 26.036l-12.548-11.934c-24.372-23.82-34.568-49.156-46.022-80.316l-16.016-44.478c-5.844-16.568-12.68-32.834-18.274-49.476z"/><path fill="#FEB53D" d="M383.196 250.99c2.34-.382 4.104 1.428 5.796 2.758-8.73 38.184-46.75 60.862-82.79 41.352-5.438-3.478-10.246-7.56-14.744-12.172 28.744-13.06 61.822-21.592 91.738-31.938"/><path fill="#FEB53D" d="M543.064 655.502c4.33 2.29 8.488 4.212 13.114 5.872.154 53.56 5.636 61.582-55.17 61.584l-67.936-.03c-14.06-.494-17.884-11.1-5.534-13.924 6.586-1.508 18.06-.346 25.15-.344l59.562.014c10.628.046 26.978 3.364 30.192-10.926 1.802-8.014.636-32.516.622-42.246"/><path fill="#FEB53D" d="M609.284 676.704c4.594-.644 8.324-.826 12.918 0 7.126 32.012-8.696 46.702-39.518 46.224h-13.32c3.106-4.364 5.41-9.39 7.564-14.274 29.654 3.728 36.256-5.902 32.356-31.95"/></svg>