<!-- created by svgstack.com | Attribution is required. --><svg xmlns="http://www.w3.org/2000/svg" width="1024" height="1024"><path fill="#683B3A" d="M516.028 242.166c20.876-28.64 87.97-131.79 123.784-104.358 31.782 24.344 21.884 155.58 15.216 202.656-4.558 32.174-2.368 40.174 2.456 73.032 11.962-.06 66.154 1.766 69.01 17.39 2.844 15.562-19.822 4.818-24.092 3.322-13.392-4.69-30.908-6.074-44.918-4.252.084 10.77-.288 21.37-1.628 32.068 13.196.738 66.492 21.896 64.34 36.592-2.258 15.418-20.652-1.876-25.06-4.948-12.9-8.992-27.874-14.19-43.156-17.458-3.126 9.158-7.656 17.448-11.082 26.43 18.378 3.756 44.834 25.254 55.344 40.808 6.276 9.288-2.004 18.4-9.19 13.294-3.576-2.542-6.424-7.764-9.498-11.088-13.55-14.646-27.624-24.204-46.504-30.872-9.4 15.284-23.432 28.856-38.512 38.492 9.724 10.194 17.874 22.154 27.522 32.618 12.858 13.942 27.392 25.718 38.576 41.222 33.484 46.418 34.184 92.51 25.448 145.544 17.154-4.422 35.202-3.844 48.47-17.364 35.406-36.074 32.33-95.308 31.236-141.528-.482-20.368-1.972-36.878 13.604-52.122 31.056-30.396 80.744-9.41 79.07 39.98.162 67.168-18.476 150.148-66.568 198.18-32.83 32.788-76.476 39.806-120.818 39.758l.012 1.468c-.022 36.77-28.894 38.78-57.388 38.746l-51.036-.012c-8.858.002-18.142-.558-26.954.276-18.494 1.754-28.698 22.732-55.232-4.798h-59.298c-13.49 19.684-35.076 15.674-51.986 2.942-24.702-2.29-62.61 4.422-84.242-.936-32.774-8.114-42.49-70.174 20.056-70.26-19.718-67.506-21.058-131.62 2.384-199.23 4.954-14.29 11.566-27.734 17.418-41.642-23.104-11.462-42.066-28.982-58.154-48.876-15.724 6.768-29.564 14.52-41.33 27.288-4.372 4.742-15.78 23.612-22.87 11.126-9.143-16.104 45.206-47.386 55.35-53.014-4.33-8.162-7.8-15.794-10.13-24.79-14.22 2.096-29.694 7.984-41.79 15.868-4.684 3.054-14.927 12.784-21.08 9.446-24.093-13.078 48.768-39.258 58.148-41.14-1.506-10.698-2.546-21.248-2.25-32.068-12.316-.038-25.534.13-37.496 3.248-7.155 1.864-14.938 5.712-22.188 6.504-7.313.8-11.773-7.62-5.902-12.886 10.69-9.586 52.296-13.172 65.586-12.548 1.718-10.48 2.148-21.22 3.776-31.744 3.22-20.812 5.884-16.03.972-37.668-12.208-53.794-15.182-112.028-3.79-166.12 3.716-17.644 8.648-39.615 28.398-45.175 30.968-1.58 74.556 56.095 91.792 79.367 7.03 9.49 12.806 19.902 20.062 29.232 30.332-7.232 105.62-8.382 136.112 0M519.7 385.61c8.986-2.738 11.73-14.44 0-15.454-9.724 1.906-10.798 13.782 0 15.454M304.104 693.212c3.166 10.134.474 47.076 4.648 65.592 4.2-6.356-3.578-8.442 9.686-8.028 3.432-12.268-4.378-52.728 2.882-61.498 6.98-31.804 13.192-83.294 31.036-108.656-4.99-2.136-9.88-4.47-14.782-6.802-17.432 31.558-32.028 82.628-33.47 119.392"/><path fill="#FBCD77" d="M509.932 257.65c24.23 2.568 20.344-9.756 35.774-31.606 8.274-11.716 70.858-90.894 85.728-74.038 18.99 21.523 14.496 123.882 11.976 152.03-1.904 21.272-7.066 43.116-7.036 64.438.022 15.346 4.18 30.414 4.524 45.8-14.806 4.046-55.318 10.392-62.144 22-2.148 3.656-.554 9.2 3.064 11.33 4.254 2.504 32.754-11.126 41.754-13.476 6.326-1.004 12.65-2.152 19.054-2.498-.062 8.698-.732 17.174-1.728 25.81-5.726.03-11.62.336-17.326 0-9.652-.468-33.492-.474-40.728 6.474-5.398 5.186-.734 11.182 4.252 13.936 10.376-2.106 20.368-3.984 30.996-4.338 6.33-.058 12.704-.258 19.03 0-3.816 7.362-7.118 15.096-11.184 22.302-4.746-.988-9.492-2.094-14.324-2.568-7.562-1.58-25.764-6.074-32.074-1.98-3.576 2.318-4.79 8.348-1.982 11.696 3.87 4.614 17.724 3.956 23.652 4.952 4.8.83 8.988 1.862 13.584 3.508-15.752 14.75-29.168 29.722-48.852 39.918-49.844 35.32-144.386 35.352-200.416 16.61-25.362-8.484-71.36-32.34-83.432-56.528 12.328-3.53 24.246-4.174 36.66-6.498 19.952-25.634-42.104-8.906-48.154-7.15-3.324-7.934-7.012-15.858-8.976-24.262 8.616.276 17.23-.372 25.836.358 6.59.558 21.254 6.128 26.806 1.132 3.468-3.122 2.656-8.812-.492-11.844-6.88-6.628-45.62-5.782-56.726-5.718-1.906-8.698-2.082-16.986-1.24-25.81 13.1 2.602 25.6 4.244 38.212 9.218 7.46 2.942 29.892 20.008 33.77 5.242 4.288-16.318-61.804-29.554-71.982-31.816-.946-12.88 2.272-26.204 4.804-38.78 3.874-19.236 1.784-16.326-1.818-34.65-10.928-55.592-15.566-114.97-.342-170.2 1.696-6.154 4.732-21.034 13.064-21.365 19.08-.758 65.886 59.199 78.718 77.641 14.536 20.892 12.338 34.358 35.362 30.73 7.39-2.622 21.336-2.832 30.308-5.21 3.712.122 7.45.35 11.154 0 11.804-.604 28.902-.848 40.756 0 3.554.292 7.108.11 10.666 0 5.454 1.188 28.532 3.008 31.452 5.21m9.768 127.96c8.986-2.738 11.73-14.44 0-15.454-9.724 1.906-10.798 13.782 0 15.454"/><path fill="#F7B34D" d="M427.058 252.44c11.804-.604 28.902-.848 40.756 0-.352 17.15 1.28 61.282-21.244 65.566-25.104-9.572-14.316-61.536-19.512-65.566"/><path fill="#F7B34D" d="M478.48 252.44c5.454 1.188 28.532 3.008 31.452 5.21-1.882 3.23 3.676 28.922-7.114 40.928-4.372 4.864-11.774 4.756-16.356.212-9.55-9.472-8.23-33.69-7.982-46.35"/><path fill="#F7B34D" d="M385.596 257.65c7.39-2.622 21.336-2.832 30.308-5.21-.016 12.114 1.266 37.56-7.996 46.394-4.776 4.556-11.09 5.152-15.46-.21-9.666-11.858-4.55-29.212-6.852-40.974"/><path fill="#F7B34D" d="M623.572 434.128c6.326-1.004 12.65-2.152 19.054-2.498-.062 8.698-.732 17.174-1.728 25.81-5.726.03-11.62.336-17.326 0 .076-7.848.604-15.458 0-23.312"/><path fill="#F7B34D" d="M601.21 507.914c4.8.83 8.988 1.862 13.584 3.508-15.752 14.75-29.168 29.722-48.852 39.918 3.732-8.832 26.92-22.74 35.268-43.426"/><path fill="#F7B34D" d="M618.092 473.512c6.33-.058 12.704-.258 19.03 0-3.816 7.362-7.118 15.096-11.184 22.302-4.746-.988-9.492-2.094-14.324-2.568 2.654-1.782 5.742-16.064 6.478-19.734"/><path fill="#FEEFDA" d="M411.816 431.63c5.788-18.228 22.264-14.312 37.448-14.212 14.592.098 28.138-3.224 35.498 12.538 16.25 1.406 33.656 6.94 44.54 19.764 56.054 66.05-96.092 136.942-158.808 59.182-29.382-36.43-6.038-86.06 41.322-77.272"/><path fill="#683B3A" d="M411.816 431.63c5.788-18.228 22.264-14.312 37.448-14.212 14.592.098 28.138-3.224 35.498 12.538 3.034 18.502-12.408 29.74-27.46 36.09 4.842 28.932 33.064 37.39 45.876 17.404 3.932-6.136-1.046-15.056 7.14-16.814 17.556-3.772 10.846 20.662 3.246 29.896-17.124 20.8-48.742 17.334-64.606-3.286-28.166 30.188-74.642 17.302-75.19-18.938-.114-7.53 9.29-12.834 14.906-6.99 4.782 4.974-1.46 14.44 10.478 22.14 19.366 12.49 36.98-2.392 39.578-23.412-13.61-6.81-27.714-17.674-26.914-34.416"/><path fill="#FEBFBC" d="M435.132 431.63c4.878-.064 9.68 1.374 14.528 1.328 3.834-.038 21.278-4.474 19.486 3.938-1.044 4.906-4.506 7.858-8.492 10.424-19.196 9.934-46.146-11.806-25.522-15.69"/><path fill="#683B3A" d="M282.094 176.192c23.944 1.364 76.984 71.04 75.528 85.792-.606 6.144-15.426 9.702-19.912 11.944-12.528 6.26-23.644 13.898-34.7 22.452-12.942 10.074-19.104 20.912-29.534 29.694-10.288 1.616-11.842-6.754-13.038-14.886-3.316-22.538-14.062-130.804 21.656-134.996"/><path fill="#FEBFBC" d="M282.094 192.98c19.184 7.378 47.026 45.224 55.48 63.422-12.358 4.944-23.606 11.742-34.564 19.218-10.204 7.428-18.606 15.82-27.68 24.454-5.232-29.11-6.274-80.262 6.764-107.095"/><path fill="#683B3A" d="M614.794 176.192c32.278 2.152 24.048 103.76 21.514 123.298-.92 7.078-.348 21.792-9.414 23.938-6.45 1.526-25.098-21.58-33.746-26.692l-.61-.356c-10.412-9.16-22.306-16.32-34.83-22.202-4.652-2.184-18.958-6.162-19.474-12.474-1.39-16.982 54.454-83.241 76.56-85.512"/><path fill="#FEBFBC" d="M614.794 192.98c11.668 15.236 8.476 87.81 5.488 107.094-8.056-9.432-17.556-17.422-27.744-24.454-10.722-7.79-22.358-13.642-34.328-19.218 10.182-19.564 36.352-54.838 56.584-63.423"/><path fill="#683B3A" d="M363.278 363.074c14.226-2.86 28.08 6.344 30.958 20.568 2.878 14.222-6.308 28.088-20.528 30.984-14.244 2.9-28.14-6.306-31.022-20.554-2.884-14.248 6.34-28.132 20.592-30.998"/><path fill="#FEEFDA" d="M356.092 370.3a8.046 8.046 0 1 1 5.072 15.27 8.046 8.046 0 0 1-5.072-15.27"/><path fill="#683B3A" d="M526.502 363.294c13.942-2.352 27.16 7.02 29.556 20.956s-6.934 27.182-20.862 29.622c-13.99 2.452-27.31-6.928-29.718-20.928-2.406-13.998 7.018-27.288 21.024-29.65M519.7 385.61c8.986-2.738 11.73-14.44 0-15.454-9.724 1.906-10.798 13.782 0 15.454"/><path fill="#F7B34D" d="M577.84 395.148c17.91-1.46 30.54 12.416 7.15 16.798-19.824.986-31.108-13.306-7.15-16.798"/><path fill="#F7B34D" d="M321.32 391.17c18.69-1.752 22.86 14.512 3.304 16.656-18.778-.96-22.894-14.088-3.304-16.656"/><path fill="#FBCD77" d="M543.58 580.622c11.632-5.51 26.006-13.692 37.024-18.364 9.338 12.066 18.334 24.49 28.586 35.806 9.676 10.682 21.274 19.6 30.522 30.608 35.142 41.824 49.83 138.956 8.326 180.214-5.662-3.108-10.59-4.584-16.988-5.376l-24.516-.04c-17.676.002-26.792.788-40.592 12.522-4.474.042-8.956.14-13.43 0 5.682-36.472 13.654-72.746 19.224-109.224-1.328-3.426-2.85-5.768-6.398-7.2-10.066-4.064-11.3 16.098-12.322 21.818l-18.144 101.156c-1.798 10.172-3.196 25.468-7.102 34.654-11.02 25.932-41.156 17.094-41.302-9.588-.054-9.844 1.62-19.934 2.822-29.694l9.988-83.946c.89-7.358 1.624-15.066 3.404-22.266-.858-2.716-1.758-5.544-4.412-7.018-14.688-8.164-14.486 23.572-15.332 30.396-2.96 23.874-4.782 48.164-8.456 71.908h-49.056c-.032-9.41-5.512-96.894-9.454-101.022-6.662-6.978-13.754-.034-13.308 7.624 1.934 33.268 5.496 66.47 7.836 99.72 1.058 15.04 8.732 57.516-16.194 59.318-27.158 1.964-28.116-48.194-30.968-65.69-3.65-22.418-7.942-44.738-11.27-67.204-.536-3.63-3.344-53.04-18.518-36.89-5.742 6.112 11.322 93.32 13.236 104.144H319.56c-1.346-8.756-4.686-17.498-6.932-26.104-6.722-27.18-10.52-59.78-8.524-87.672 3.166 10.134.474 47.076 4.648 65.592 4.2-6.356-3.578-8.442 9.686-8.028 3.432-12.268-4.378-52.728 2.882-61.498 6.98-31.804 13.192-83.294 31.036-108.656 62.184 22.268 129.216 21.434 191.224 0"/><path fill="#F7B34D" d="M543.58 580.622c11.632-5.51 26.006-13.692 37.024-18.364 9.338 12.066 18.334 24.49 28.586 35.806 9.676 10.682 21.274 19.6 30.522 30.608 35.142 41.824 49.83 138.956 8.326 180.214-5.662-3.108-10.59-4.584-16.988-5.376 4.782-6.876 7.896-14.378 10.446-22.334 21.694-67.684-14.754-142.472-69.348-183.496-8.862-6.66-18.834-10.566-27.918-16.618z"/><path fill="#FEEFDA" d="M304.104 693.212c3.166 10.134.474 47.076 4.648 65.592 4.2-6.356-3.578-8.442 9.686-8.028 3.432-12.268-4.378-52.728 2.882-61.498-2.698 24.514-3.464 59.418 1.492 83.38.806 12.04 5.466 22.636 7.492 34.33H319.56c-1.346-8.756-4.686-17.498-6.932-26.104-6.722-27.18-10.52-59.78-8.524-87.672"/><path fill="#FBCD77" d="M679.956 787.438c89.422-.646 102.048-77.088 100.456-152.418-.28-13.266-1.734-26.762-1.24-40.008 1.58-42.398 64.842-39.302 61.422 1.716-.298 65.856-13.928 143.942-61.91 191.602-26.562 26.384-77.686 40.352-114.884 34.808-1.238-1.15-2.29-2.244-3.296-3.602 3.798-5.21 7.754-10.162 10.51-16.026 3.7-4.946 6.218-10.552 8.942-16.072"/><path fill="#F7B34D" d="M671.014 803.51c5.55 3.086 12.726 1.806 18.758 1.256 80.128-7.296 110.922-67.252 123.522-140.82 4.612-26.932 1.144-51.678 27.3-67.218-.298 65.856-13.928 143.942-61.91 191.602-26.562 26.384-77.686 40.352-114.884 34.808-1.238-1.15-2.29-2.244-3.296-3.602 3.798-5.21 7.754-10.162 10.51-16.026"/><path fill="#FBCD77" d="M609.242 819.536c12.682-.092 27.254-2.282 37.176 7.352 8.9 8.642 9.38 22.28.048 30.914-7.052 6.528-17.246 5.834-26.184 6.132H543.58c2.466-10.742 4.274-21.658 6.374-32.478 13.528.02 19.558 3.376 29.976-6.118 7.93-7.224 19.386-5.878 29.312-5.802"/><path fill="#F7B34D" d="M609.242 819.536c12.682-.092 27.254-2.282 37.176 7.352 8.9 8.642 9.38 22.28.048 30.914-7.052 6.528-17.246 5.834-26.184 6.132 16.468-18.314 12.596-28.816-4.222-44.398-2.29.144-4.53.088-6.818 0"/><path fill="#FBCD77" d="M291.636 862.068c-21.854-1.572-31.616-40.346 11.374-38.93 15.724.022 31.466.192 47.188 0 1.918 12.804 3.6 26.522 7.31 38.93-21.938.01-43.942.392-65.872 0"/><path fill="#FEEFDA" d="M291.636 862.068c-21.854-1.572-31.616-40.346 11.374-38.93-13.796 10.134-23.746 23.454-11.374 38.93"/><path fill="#F7B34D" d="M428.42 823.138c14.52-.306 29.108-.008 43.634 0-.964 12.118-2.948 24.358 0 36.316h-44.996c2.906-12.77-.3-23.868 1.362-36.316"/></svg>