<!-- created by svgstack.com | Attribution is required. --><svg xmlns="http://www.w3.org/2000/svg" width="1024" height="1024"><path d="M218.892 151.066c17.692.474 60.26 64.83 65.608 81.016 35.666-16.092 98.156-11.342 133.69 0 9.486-17.674 57.334-93.851 76.882-77.252 18.604 15.799 11.334 100.878 14.454 129.816 15.386 31.666 7.704 41.936 12.946 69.382 7.308.738 15.826 1.642 21.77 6.478 3.938 3.204 1.75 8.52-3.372 8.104-4.642-.376-12.464-4.164-18.398-5.252-1.336 6.508-2.086 15.468-1.36 22.042 6.74 1.426 39.562 16.058 27.124 22.288-1.616.81-23.204-11.002-30.316-13.03-2.428 5.882-4.54 11.922-6.902 17.838 4.986 2.138 38.766 16.836 26.492 25.892-8.042 2.07-21.082-20.166-30.084-15.786l-.092 1.192c4.056 8.922 36.158 31.522 44.538 35.864 17.78 9.212 36.188 13.642 55.36 18.758 102.898 27.456 142.32 114.172 149.836 214.166 1.048 13.95.294 27.906.68 41.866 39.392.632 60.95-15.6 59.132-54.616-2.288-49.112-39.066-85.612-55.58-129.904-14.392-38.598-17.37-83.844-4.884-123.296 8.918-28.172 38.134-72.43 73.768-60.436 23.588 7.94 30.576 37.28 15.086 56.264-9.082 11.13-17.334 17.362-22.212 31.776-17.216 50.866 21.942 101.028 44.278 145.8 24.554 49.396 32.734 126.014-10.212 168.088-34.826 34.118-79.192 38.958-125.446 38.636-34.774 26.948-36.402 24.97-83.226 26.488l-37.414 1.388c-19.322.734-64.646 6.21-81.946-.112-16.016-5.854-23.822-24.012-18.074-39.756-17.6-3.948-36.6-3.346-53.324-10.758-.898 16.362-2.946 43.97-11.256 56.976-31.546 49.374-118.274 18.968-69.44-51.99v-18.874c-6.794-3.038-13.738-5.882-20.178-9.63-.998 6.032-1.336 12.168-1.962 18.248l-3.19 29.742c-1.712 15.642-2.936 30.636-15.292 41.882-37.908 34.502-90.862-4.306-70.372-43.882 2.602-5.03 7.198-9.382 8.63-14.942 4.982-19.35 2.684-68.052 1.756-88.794-1.064-23.788-1.01-19.11-12.348-39.468-34.176-61.36-39.386-118.472-35.196-186.048-18.446-18.972-20.688-28.84-32.827-48.73l-.508-.824c-9.017 4.6-18.376 9.652-26.019 16.352-2.218 1.944-14.622 17.274-17.617 9.582-4.075-10.464 34.653-31.158 41.699-34.42-2.122-6.28-3.778-12.642-5.201-19.112-12.054 1.81-41.003 18.072-42.575 17.372-14.618-6.52 26.783-23.676 40.34-26.026-1.336-7.144-1.504-14.684-2.12-21.93-20.383-.634-23.649 5.61-38.018 9.872-4.145 1.23-7.393-3.722-4.512-7.006 7.416-8.456 31.41-11.538 42.53-12.382 1.041-26.204 4.483-51.254 15.477-75.332-5.167-40.33-6.036-67.814 3.915-108.828 2.638-10.868 2.822-22.265 15.482-24.752"/><path fill="#FBD492" d="M493.922 444.256c4.214 1.132 13.044 10.512 16.87 13.82 46.944 40.592 92.73 33.66 138.536 60.626 70.594 41.556 104.234 179.706 78.848 249.568-18.438 50.738-66.834 41.978-110.87 43.746-12.398.498-71.602 5.608-79.842 1.58-5.156-2.522-6.41-7.91-3.798-12.878 11.944-22.726 56.544-4.45 62.824-20.688 7.7-19.906-73.828-57.444-46.776-123.856 14.436-35.444 38.342-38.952 67.116-51.448 15.22-6.612 8.762-37.87-45.736-5.492-48.23 28.652-63.636 87.468-33.764 135.372 4.55 7.298 10.248 13.84 14.612 21.252l.452.774c2.778 2.788 5.424 5.698 8.088 8.594-10.3 1.322-19.192 6.044-29.092 7.824-12.442 2.238-56.626-7.132-70.982-10.854 3.862-29.674 7.624-59.668 10.386-89.458-2.448-5.794-7.106-10.54-13.942-9.066-12.27 2.65-10.692 26.872-11.796 35.98l-9.566 80.316c-1.592 13.112-2.436 26.896-5.178 39.778-5.872 27.602-42.662 30.182-45.506 9.278-1.744-12.812 7.946-21.168 14.75-30.416l.002-117.488c.01-6.906 1.652-15.49-3.374-21.154-7.498-8.446-17.664-2.652-18.948 7.028-2.688 20.256-.006 56.316-.238 77.956-67.896-26.076-116.068-121.876-124.734-189.16-2.608-20.246-2.422-39.976-2.66-60.298 43.696 20.358 58.438 31.67 112.934 26.946 55.614-4.82 97.03-37.228 131.384-78.182"/><path fill="#FBD492" d="M482.072 183.58c3.854 12.486 5.608 62.838 5.246 75.53-.236 8.322-2.49 18.084-1.87 26.038.632 8.084 7.828 18.126 10.02 26.878 3.532 14.088 2.958 29.64 3.986 44.094-3.374.598-26.952 7.824-18.01 14.028 3.896 2.702 12.41-2.582 16.34-3.918l.63-.21c-.168 6.516-1.262 13.04-2.722 19.38-22.184-.26-22.98 10.158-1.77 9.258-2.4 4.642-4.564 9.372-6.726 14.126-21.766-.028-20.986 8.864-5.124 10.406-6.312 8.376-12.162 16.912-19.118 24.796-41.782 47.344-106.518 69.648-167.672 48.842-28.228-9.604-57.014-30.812-70.42-58.062-3.084-4.988-5.562-10.238-7.96-15.576 6.362-3.276 5.654-8.846-2.046-8.484-2.592-2.53-3.544-11.526-4.338-15.178 11.492-1.398 9.686-9.18-1.654-8.278-.728-5.27-1.324-10.536-1.858-15.828 15.214 3.536 14.988-6.522 0-8.064-.406-19.868 2.41-40.094 8.822-58.918 10.628-31.194 6.426-9.394 3.678-42.404-2.112-25.374-1.208-53.612 5.356-78.457 12.656 12.711 25.826 32.457 34.866 48.009 15.828 27.23 8.27 28.738 35.12 19.894 31.864-10.496 73.99-9.6 105.808-1.218 7.916 2.084 15.42 5.426 23.312 7.588 12.456-3.852 36.932-57.08 58.104-74.273"/><path d="M332.454 359.978c39.688-2.698 51.204 1.346 21.638 33.146.942 7.874 1.764 17.672 9.318 22.18 20.694 12.344 20.56-19.92 26.488-21.116 3.972-.802 6.974 2.272 7.286 6.004 1.79 21.42-25.738 38.134-43.092 22.434-1.988-1.996-3.784-4.276-5.622-6.414-31.716 42.12-66.51-24.164-44.894-21.736 4.962.558 6.6 13.434 10.66 18.418 12.34 15.152 27.354.78 27.308-18.236-7.07-7.472-34.668-29.992-9.09-34.68"/><path d="M400.348 310.652c9.57-1.116 18.224 5.756 19.306 15.328 1.082 9.574-5.822 18.204-15.398 19.252-9.528 1.042-18.106-5.818-19.182-15.342-1.076-9.526 5.754-18.128 15.274-19.238"/><path d="M291.718 311.152c9.34-1.852 18.43 4.168 20.368 13.492 1.936 9.326-4.002 18.468-13.308 20.49-9.428 2.048-18.714-3.984-20.676-13.43-1.964-9.444 4.154-18.676 13.616-20.552"/><path fill="#FBD492" d="M816.942 387.25c6.896-1.106 13.242 3.874 14.09 10.798 1.16 9.458-11.292 17.736-16.676 24.626-10.882 13.924-16.698 30.704-18.082 48.248-4.248 53.84 27.544 90.048 48.642 134.86 44.014 93.488 21.15 166.832-85.796 178.228-4.604.184-9.132.204-13.734 0 4.204-8.968 7.194-17.766 9.468-27.378 104.072 1.884 97.254-89.426 57.24-159.634-31.91-55.988-61.864-114.498-27.406-179.292 6.962-13.092 17.644-26 32.254-30.456"/><path fill="#FBD492" d="M300.784 717.242c7.728 4.878 24.748 21.998 34.432 29.48-1.456 16.75-3.212 33.456-5.02 50.172-1.546 14.29.272 31.984-13.774 40.096-7.924 3.92-19.664 6.24-26.716-.63-13.986-13.624 4.406-25 6.872-35.912 6.036-26.696 3.802-56.06 4.206-83.206"/></svg>