<!-- created by svgstack.com | Attribution is required. --><svg xmlns="http://www.w3.org/2000/svg" width="1024" height="1024"><path fill="#3C3E52" d="M267.068 146.223c29.252-1.433 25.888 20.365 27.116 40.129 1.948 31.344 21.232 57.882 49.91 70.696 30.112-13.496 48.156-14.96 79.876-14.776l35.252.07c36.696.022 63.77-3.504 97.25 14.706 32.502-17.022 52.206-30.098 55.578-72.195.61-7.615-.902-16.615 2.32-23.655 10.37-22.66 39.956-18.51 48.706 9.737 11.972 38.651 2.274 70.757-15.604 104.337 35.424-7.922 72.912-2.31 105.94 11.988 12.098 5.238 41.424 18.424 46.404 31.014-2.984 11.072-17.54 29.278-25.56 38.158-34.134 37.796-79.946 59.62-131.096 54.814-3.74-.352-7.674-1.426-11.396-1.234l-.364.666c3.132 3.456 18.342 5.568 23.086 6.826 52.814 14.002 89.692 35.96 123.232 78.67 13.412-14.008 21.936-26.648 43.69-30.856 7.026-26.672 21.626-47.728 45.916-61.324 47.666-26.68 63.534-2.106 50.098 4.132-4.824 2.24-12.134 1.838-17.442 2.67-28.898 4.534-50.04 25.06-60.518 51.934 33.648 1.63 79.242 25.304 80.1 63.174 1.306 57.634-101.724 42.122-100.998-42.134-13.976 5.97-23.108 16.02-30.45 29.058 17.344 28.362 24.592 62.59 23.416 95.548.188 20.114-6.374 32.566-9.34 50.57-1.392 8.454-.946 17.436-1.918 26.01-3.472 30.618-11.43 82.896-25.254 111.26 3.728 10.974 9.302 29.988 5.864 41.334-7.532 24.854-47.91 26.572-67.748 20.118-32.112-10.45-25.91-35.244-16.902-61.452-2.632-10.498-4.018-21.664-5.622-32.37-8.06 1.362-15.806 3.54-23.112 7.238-4.694 9.65-7.11 25.32-11.594 36.602 32.342 69.724-59.562 73.132-82.03 49.988-13.856-14.27-4.192-32.892-2.25-49.742.946-8.192.168-16.23.35-24.428-7.472-.488-14.784.432-22.228.956-41.984 2.958-84.878-1.556-125.246-13.376.068 9.12-.358 16.442-3.358 25.132 3.378 9.628 8.246 32.842 7.822 42.952-1.648 39.406-72.158 37.742-88.86 17.986-14.88-17.6-.324-41.208-1.042-61.186-.254-7.074-6.04-23.118-7.952-31.576-6.294-27.822-17.382-82.234-15.234-111.156-29.474-24.954-36.678-43.322-36.362-79.736-3.096-5.88-7.464-10.946-10.986-16.56-27.408-43.686-13.522-73.67-3.76-116.118 2.674-11.626 3.066-23.614 5.684-35.158-71.345 16.196-123.248-13.894-161.111-75.27-12.882-20.88 7.068-26.346 26.412-36.822 43.006-23.294 82.057-27.228 127.823-13.562-9.556-17.806-17.602-33.438-20.678-53.838-3.504-23.234-8.586-76.458 24.17-79.95"/><path fill="#F2EEEB" d="m394.99 259.494 66.846-.012c36.618-.01 62.66-3.19 94.636 17.52 58.078 37.72 49.86 88.688 59.056 144.91 2.956 18.076 10.062 36.652 13.436 56.586 2.396 27.792.692 50.37-13.75 74.946-25.098-63.03-104.014-80.518-164.406-80.53-69.98-.014-127.316 18.604-163.624 80.53-20.45-32.798-20.906-59.494-8.846-96.374 5.868-18.326 7.412-36.378 9.94-55.31 9.664-72.356 28.242-127.708 106.712-142.266"/><path fill="#A3B2C4" d="M278.338 457.07c5.868-18.326 7.412-36.378 9.94-55.31 9.664-72.356 28.242-127.708 106.712-142.266 20.296 25.226-5.684 44.144 19.686 63.638 13.598 10.45 37.38 15.522 34.584 37.724-2.912 23.138-36.334 14.978-40.276 39.29-2.406 14.834 4.694 28.78-9.898 39.944-10.938 8.372-38.254-.346-52.84 3.568-18.328 4.918-39.854 41.582-67.908 13.412"/><path fill="#3C3E52" d="M349.064 367.41c16.754-.632 30.878 12.378 31.618 29.128s-12.182 30.956-28.926 31.804c-16.896.854-31.26-12.21-32.006-29.112-.746-16.9 12.408-31.18 29.314-31.82"/><path fill="#F2EEEB" d="M364.308 380.866c5.608-1.108 11.05 2.554 12.134 8.168 1.082 5.614-2.606 11.038-8.224 12.096-5.582 1.05-10.966-2.608-12.042-8.186s2.56-10.976 8.132-12.078"/><path fill="#A3B2C4" d="M556.472 277.002c58.078 37.72 49.86 88.688 59.056 144.91 2.956 18.076 10.062 36.652 13.436 56.586-23.36-.194-59.18 6.574-77.904.98-38.008-11.354-30.462-36.97-46.568-54.074-10.022-10.644-26.004-14.074-33.026-27.718-11.352-22.062 4.714-58.188 28.352-66.974 49.65-18.454 18.478-34.064 56.654-53.71"/><path fill="#3C3E52" d="M545.086 369.216c16.056.262 28.91 13.402 28.818 29.462-.09 16.058-13.094 29.052-29.152 29.13a29.297 29.297 0 1 1 .334-58.592"/><path fill="#F2EEEB" d="M559.782 381.14c15.096.034 14.382 16.186 1.76 20.644-14.752-.762-15.808-17.806-1.76-20.644"/><path fill="#F2EEEB" d="M431.462 489.988c49.79-.282 92.09.302 134.71 30.456 34.178 24.182 52.324 65.322 25.646 102.104-29.362 40.484-77.206 46.724-122.196 53.898-52.444-2.438-99.776.204-144.324-37.086-35.956-30.096-37.304-66.014-7.13-100.876 28.806-33.284 71.124-45.308 113.294-48.496"/><path fill="#3C3E52" d="M523.794 545.074c24.356 1.21 11.982 49.34-10.512 51.852-26.446-3.946-11.424-48.98 10.512-51.852"/><path fill="#3C3E52" d="M373.554 545.074c23.038-1.762 39.394 36.802 18.458 51.852-23.37 3.146-38.418-40.59-18.458-51.852"/><path fill="#575B68" d="M621.936 573.5c1.866-5.036 6.028-9.374 8.998-13.832 24.298-36.472 18.65-86.97 5.39-126.328-1.412-4.188 9.416-.332 11.094.09 21.484 5.43 42.434 13.688 61.736 24.598 75.82 42.854 109.876 137.528 65.466 215.322-23.344 40.89-62.09 65.798-106.568 78.346-4.934 1.392-16.564 2.256-17.508 8.28-2.676-2.242-9.334-3.552-12.81-4.894-37.476-14.464-55.126-59.642-57.316-97.01 26.902-20.002 44.692-50.552 41.518-84.572"/><path fill="#F2EEEB" d="M580.418 658.072c2.19 37.368 19.84 82.546 57.316 97.01 3.476 1.342 10.134 2.652 12.81 4.894-7.018 22.836-4.71 48.886-37.212 45.376-31.452-3.396-19.624-47.448-26.7-55.15-7.998-8.706-15.524-.222-14.658 11.708-44.724 4.776-104.676 7.56-147.474-10.184-2.35-4.184-4.966-8.046-10.354-7.47-13.914 1.49-6.62 27.94-7.608 36.868-2.388 21.63-31.224 29.536-46.47 15.744-10.642-9.626-24.964-105.228-26.712-131.144 14.526 8.522 25.854 14.102 42.322 18.576-9.34 33.97 27.834 52.736 53.404 29.472 14.344 14.95 33.582 13.876 48.188 0 26.934 23.606 60.032 1.158 51.354-29.472 19.128-10.238 30.934-12.258 51.794-26.228"/><path fill="#575B68" d="M610.812 310.588c4.108-3.632 8.886-6.124 13.732-8.622 50.742-26.16 111.372-10.464 156.758 19.416-34.758 45.288-91.332 90.146-151.76 69.724-.288-8.762-2.264-18.618-.578-27.226-1.288-2.718-2.202-5.274-2.328-8.304-.262-.42-14.688-41.006-15.824-44.988"/><path fill="#F3ADC2" d="M626.636 355.576c6.316-26.636 46.71-34.144 69.088-28.686 26.5 6.462 34.382 27.568 8.824 41.09-18.192 9.626-60.44 16.442-75.142-3.512l-.442-.588c-1.288-2.718-2.202-5.274-2.328-8.304"/><path fill="#575B68" d="M123.976 321.382c52.08-36.12 115.878-45.316 169.62-6.348-4.926 10.542-7.94 23.958-14.082 33.376-.75 6.422-1.19 12.988-2.696 19.296-1.598 6.254-2.586 12.62-4.278 18.864-52.096 25.844-126.63-16.154-148.564-65.188"/><path fill="#F3ADC2" d="M276.818 367.706c-5.318.738-10.398 3.012-15.536 4.512-52.998 15.476-99.722-26.688-60.05-46.59 21.706-10.888 68.782 3.544 78.282 22.782-.75 6.422-1.19 12.988-2.696 19.296"/><path fill="#F4CF9D" d="M635.58 163.515c18.384.18 15.858 51.219 13.636 62.551-5.994 30.588-23.038 53.044-48.606 70.164-1.932-2.198-3.394-4.798-4.946-7.272-7.63-6.652-14.258-14.18-22.398-20.288 27.876-21.796 47.198-28.344 54.132-71.754 1.906-11.932-2.624-27.81 8.182-33.401"/><path fill="#F4CF9D" d="M267.068 163.515c4.9-.737 7.028.896 9.75 4.994-1.1 43.611 13.428 75.611 51.484 100.161-6.282 5.844-12.292 11.912-17.756 18.534-2.412 2.798-4.428 5.984-6.52 9.026-36.484-27.102-48.312-66.796-45.118-111.022.612-8.481-.794-17.59 8.16-21.693"/><path fill="#A3B2C4" d="M781.302 696.378c1.938 9.65-16.984 80.18-22.104 93.768-7.286 3.304-41.986 7.174-46.002 0-1.04-11.406-3.11-22.678-6.588-33.598 36.666-21.3 44.722-24.544 74.694-60.17"/><path fill="#A3B2C4" d="M835.992 478.498c19.096 4.262 32.626 4.584 49.094 18.212 11.29 9.34 24.546 28.216 12.666 41.85-15.402 10.886-33.392 1.38-45.19-10.62-13.722-13.958-16.758-30.608-16.57-49.442"/><path fill="#575B68" d="m407 813.974.382.096c3.342 4.146 5.844 19.768 5.774 24.932-.282 20.69-46.378 15.988-58.09 9.472-2.126-1.594-3.528-3.412-4.994-5.58-.416-9.746 1.456-19.854 4.994-28.92 20.652 10.192 30.58 7.972 51.934 0"/><path fill="#575B68" d="M587.876 811.446c17.114 14.23 34.476 13.908 54.758 5.084 2.628 10.422 5.796 22.11 0 31.944-10.484 4.71-24.026 5.606-35.34 4.812-34.526-2.424-22.774-17.114-19.418-41.84"/><path fill="#575B68" d="m762.004 807.686.73.516c2.836 12.034 7.942 26.468-6.688 32.14-13.018 5.048-32.108 4.298-44.804-1.324-1.97-1.31-3.232-2.988-4.634-4.84-1.868-8.79.672-17.862 2.392-26.492 18.012 5.716 34.958 3.93 53.004 0"/><path fill="#D43871" d="M392.012 688.904c8.784.184 18.722 2.062 27.266 4.094-1.136 3.704-2.486 7.232-4.53 10.534-2.846 2.102-6.476 3.198-9.808 4.262-10.28-3.192-13.422-8.184-12.928-18.89"/><path fill="#D43871" d="m510.052 688.904 1.18-.298c5.776 3.044-1.516 16.616-11.816 19.188-2.344-.814-4.282-1.758-6.408-3.024-3.754-3.424-5.126-7.002-6.406-11.772 7.66-2.712 15.344-3.878 23.45-4.094"/><path fill="#D43871" d="M438.654 692.998c10.322-.028 20.646-.112 30.968 0-1.364 4.058-3.43 7.152-5.968 10.534-11.526 9.564-21.986 2.128-25-10.534"/></svg>