<!-- created by svgstack.com | Attribution is required. --><svg xmlns="http://www.w3.org/2000/svg" width="1024" height="1024"><path fill="#434756" d="M281.652 161.261c64.652-2.784 100.226 36.385 131.76 87.801 19.782 32.256 13.046 39.084-9.006 69.318-.15 30.056 19.564 62.214 44.464 77.88 83.964 52.83 204.896-15.64 287.078 32.728 3.746 2.206 7.05 5.104 10.766 7.352 13.16 7.958 48.678 5.272 63.964 1.548 41.576-10.128 67.774-33.3 84.474-72.698 3.036-7.158 6.258-21.802 9.574-26.974 8.606-13.416 32.274-8.596 33.994 7.824.442 4.206-.392 9.08-.776 13.298-7.464 81.78-63.54 135.696-144.116 142.784 6.536 24.884 10.124 41.218 8.498 67.368-2.464 39.632-11.83 60.772 10.53 98.268 9.22 15.462 23.262 28.078 24.708 47.044 1.594 20.932-5.772 64.1-8.574 85.63-1.294 9.948-1.52 21.164-4.422 30.728-4.794 15.796-22.188 30.716-38.61 31.708-10.11.612-42.968.818-50.58-.814-29.178-6.262-10.11-67.922 27.746-68.342-.032-10.452.874-20.816 1.92-31.206 3.54-35.186 9.056-37.318-22.872-57.936-6.034-3.898-11.9-7.996-17.734-12.186.714 20.61-10.576 44.514-17.106 64.146-9.244 32.552-11.238 77.906-52.458 81.628-7.946.716-41.11 1.158-47.822-.418-28.57-6.706-12.442-59.352 25.092-60.606 5.53-11.384 17.566-52.506 15.01-64.708-2.108-10.066-20.208-23.72-27.618-30.7-18.774-17.688-30.262-33.344-37.642-58.758-49.712 20.774-99.448 56.248-153.976 58.096-1.594 8.85-2.704 17.852-4.056 26.744l-11.894 83.08c-4.108 28.244-3.116 61.736-39.836 69.664-5.704 1.232-48.336 1.694-55.104.852-10.498-1.308-14.294-12.588-16.182-21.628-8.674.022-38.968 1.298-44.902-1.296-13.684-5.984-12.232-29.504-6.85-40.204 7.94-15.782 24.858-20.388 40.414-25.478.158-9.82-1.18-20.072-1.718-29.924l-3.094-61.308c-.482-9.7-.924-19.4-1.192-29.108-.792-28.81-.562-19.08-14.188-44.206-33.618-61.984-41.322-144.926-40.742-215.428-27.692 5.93-43.88 3.756-69.461 5.966-10.151.878-14.188 7.362-26.327-3.314-13.142-11.556-5.584-30.608 4.61-41.378-32.315-12.818-72.147-81.938-39.767-99.012 15.967-8.42 43.557-1.894 65.924-15.586 21.688-13.278 23.173-27.248 37.933-43.558 20.886-23.078 49.746-33.15 80.166-34.68"/><path fill="#F0CC94" d="M142.61 261.452c44.449-7.182 46.664-32.884 69-57.358 27.086-29.673 79.82-37.34 115.79-22.857 28.712 9.855 51.782 40.117 67.958 64.525 6.486 9.784 19.542 25.55 15.08 38.092-6.514 18.31-53.582 72.524-70.918 80.786-11.192 5.332-18.668-1.652-23.354-11.794-19.032-41.188 25.248-88.144 17.226-129.188-1.964-10.046-13.65-20.108-17.23-9.34-1.118 3.366 3.276 11.214 3.95 15.026 6.46 36.49-41.416 84.416-13.312 134.218 25.848 45.806 67.244-12.878 85.368-30.016 23.696 94.186 107.488 102.396 191.826 95.758 49.388-3.888 101.034-15.852 146.12 11.902 44.532 27.414 63.754 81.668 58.466 132.352-4.424 42.41-9.338 65.704 14.632 104.318 20.89 33.656 24.37 24.666 19.372 65.032l-5.174 40.454c-2.668 22.466-.148 58.802-28.462 65.628-7.192 1.734-46.258 1.86-52.792-.568-10.844-26.442 17.098-41.706 39.318-44.956 3.404-22.984 11.298-73.56-1.402-90.784-10.564-14.326-29.732-18.712-41.456-31.618-22.064-9.662-45.944-36.372-56.876-58.468-8.6-17.38-5.692-27.402-28.028-29.308-67.616-5.772-143.854 71.004-217.68 74.796 2.232-11.598 3.426-23.398 5.716-34.95.69-5.472 7.548-32.738-2.796-32.524-8.602.18-7.826 11.592-8.438 17.732-3.694 37.052-12.23 79.036-17.696 116.624l-8.102 56.748c-9.15 65.88-20.288 57.258-80.75 56.708-11.598-24.018 7.1-35.35 28.232-41.608 15.932-4.716 10.616-9.054 9.396-26.086-3.178-44.342-2.232-88.628-.716-132.976.294-8.604 2.324-44.586-3.508-50.968-8.588-9.402-9.352 8.146-8.916 13.368.744 15.602-.318 31.426 0 47.068-92.314-30.89-99.726-188.826-100.894-267.814 7.586-2.03 14.622-5.684 22.284-7.398 5.706-3.726 31.386-12.7 22.676-22.696-3.954-4.536-9.61-.322-13.546 1.95-30.346 17.512-68.938 26.418-103.95 24.314 4.328-6.906 15.41-23.972 21.603-28.096 14.757-6.17 43.041-10.842 49.325-29.84 1.256-3.794-.628-9.212-5.066-9.802-5.216-.694-14.064 12.476-19.796 16.21-16.426 10.706-47.416 13.132-66.48 9.11-18.104-3.818-27.91-15.712-37.62-30.592 15.083-7.128 45.953-21.052 39.68-42.726-2.38-3.266-4.835-5.956-8.06-8.388"/><path fill="#CFA06B" d="m435.748 633.134.762.798c61.678-14.578 175.496-97.792 229.524-64.206 19.728 12.264 32.03 62.54 48.64 86.242 3.088 4.408 17.092 21.726 17.942 25.096-22.064-9.662-45.944-36.372-56.876-58.468-8.6-17.38-5.692-27.402-28.028-29.308-67.616-5.772-143.854 71.004-217.68 74.796 2.232-11.598 3.426-23.398 5.716-34.95"/><path fill="#CFA06B" d="M241.56 389.406c7.586-2.03 14.622-5.684 22.284-7.398 1.858 19.888.992 40.058 2.638 60.034 5.102 61.892 24.798 128.674 75.972 168.11.744 15.602-.318 31.426 0 47.068-92.314-30.89-99.726-188.826-100.894-267.814"/><path fill="#FAD9B3" d="M142.61 261.452c44.449-7.182 46.664-32.884 69-57.358 27.086-29.673 79.82-37.34 115.79-22.857l1.53 1.579c-7.422 5.357-74.34-11.624-116.696 38.416-12.682 14.984-25.928 33.118-44.644 41.326-5.794 2.54-11.828 3.246-16.92 7.282-2.38-3.266-4.835-5.956-8.06-8.388"/><path fill="#434756" d="M248.116 229.81c11.036-1.122 20.922 6.842 22.17 17.864 1.25 11.022-6.6 20.998-17.606 22.374a20.247 20.247 0 0 1-21.046-28.248 20.25 20.25 0 0 1 16.482-11.99"/><path fill="#CFA06B" d="M637.58 608.122c5.528-2.53 11.682-1.344 17.332 0 18.496 32.89 14.17 36.31 46.546 67.18 21.932 20.91-1.732 59.528-8.856 84.118-11.85 40.904-3.396 65.794-55.68 65.61l-24.548-.046c-2.274.232-4.566.074-6.846 0-.726-27.076 10.624-33.06 35.938-36.09 7.3-14.778 21.182-58.308 18.858-75.582-2.368-17.622-18.232-28.78-30.388-39.926-18.796-17.232-28.63-31.056-35.89-55.88 13.244-5.444 29.164-10.68 43.534-9.384"/><path fill="#CFA06B" d="M297.44 643.814c12.608 12.908 27.2 20.464 43.064 28.402 1.588 20.65-.306 46.052.034 67.346.29 18.08 2.852 36.092 2.912 54.15-35.404 11.314-25.186 9.154-40.93 32.624l-1.674.22c-15.774.054-43.656 7.576-42.684-11.782 1.414-28.118 44.158-24.016 44.724-36.982.328-7.506-1-15.312-1.276-22.844l-3.186-70.682c-.598-13.41-1.828-27.046-.984-40.452"/><path fill="#CFA06B" d="M765.978 454.514c61.22.762 114.862-19.128 139.922-80.416 1.834-4.488 9.17-27.194 11.134-28.972 4.24-3.844 8.356 1.52 8.2 5.754-5.922 72.538-58.288 141.032-135.788 137.572-3.386-4.734-6.094-9.612-8.596-14.856-5.266-6.07-10.044-12.658-14.872-19.082"/><path fill="#FEB226" d="M765.978 454.514c61.22.762 114.862-19.128 139.922-80.416 1.834-4.488 9.17-27.194 11.134-28.972 4.24-3.844 8.356 1.52 8.2 5.754-6.278 2.866-10.922 24.898-13.542 31.402-26.76 66.43-67.462 80.918-130.842 91.314-5.266-6.07-10.044-12.658-14.872-19.082"/><path fill="#F0978F" d="M150.67 357.48c6.816-.686 14.269-.016 21.155 0-4.522 8.982-10.377 16.738-16.656 24.528-16.298 19.038-21.677-6.244-4.5-24.528"/><path fill="#76A7D2" d="M107.809 265.422c15.29-.192 45.168.654 12.891 17.476-23.954 11.916-29.479-13.398-12.891-17.476"/></svg>