<!-- created by svgstack.com | Attribution is required. --><svg xmlns="http://www.w3.org/2000/svg" width="1024" height="1024"><path fill="#3B475F" d="M287.904 147.561c38.102-3.603 83.966 48.802 95.018 81.603 3.424 10.162 4.662 20.65 7.714 30.804 3.23 10.742 10.254 21.524 15.514 31.488 12.946 24.522 36.116 75.814 51.974 93.884 35.31 40.24 98.39 47.642 148.812 45.588 52.674-2.144 92.144-10.684 142.512 16.132 56.184-15.26 93.512-67.544 109.328-121.182 2.566-8.704 5.046-30.064 19.11-25.826 5.354 1.612 8.328 6.472 10.734 11.156 36.334 70.742 6.634 149.958-60.558 188.924-6.992 4.056-14.454 7.398-21.646 11.1 12.242 33.69 17.16 65.21 9.776 100.718-5.73 27.552-12.34 65.176 2.856 91.344 6.08 10.472 12.808 16.17 16.398 28.984 4.964 17.722-3.106 74.508-5.454 95.18-1.826 16.066-8.036 31.56-24.992 35.996-17.69 4.63-53.834 5.368-67.074-11.688-20.754.64-75.322 7.038-66.042-30.884 1.09-15.926 17.212-25.45 27.654-35.608.408-75.104-64.398-59.426-83.626-138.728-9.566 4.186-19.66 7.258-29.278 11.382-42.024 18.022-74.156 32.67-121.426 39.224-2.094 31.996-6.776 67.232-10.662 99.142-3.032 24.902.652 62.17-31.372 69.174-20.416 4.464-55.088 6.36-68.384-13.702-8.93-1.444-18.502-.168-26.596-4.938-11.564-6.816-17.338-23.184-14-36.018 3.792-14.58 17.638-19.332 24.914-31.368l.364-.618c.224-49.644-9.914-87.118-23.556-133.13-12.614-42.548-22.662-84.974-26.71-129.226-2.76-30.166-2.572-57.664-24.75-81.152-33.336-35.304-65.052-.612-105.049-24.06-17.92-10.506-23.34-26.094-29.929-44.648-6.074-17.11-18.241-42.628 3.926-53.632 14.667-7.28 49.82-11.916 67.528-15.684 21.35-48.152 51.32-62.96 104.292-62.772 7.518-41.135-39.25-70.12-17.32-86.959"/><path fill="#EBD9AE" d="M311.458 174.816c10.77 6.178 20.322 14.669 28.97 23.548 13.164 14.088 22.686 32.032 26.846 50.916 4.624 20.986 4.112 20.782 14.4 40.418l38.414 73.526c5.096 9.868 9.9 20.126 16.46 29.146 41.308 56.8 121.956 62.29 186.65 58.708 14.67-.812 29.37-2.626 44.072-2.53 95.166.608 147.082 75.658 126.854 167.198-7.082 32.048-10.82 68.838 6.664 98.576 9.088 15.46 15.838 19.696 15.228 38.706-.418 13.096-2.774 26.246-3.95 39.304-3.912 43.426 5.636 56.826-47.04 51.632-24.95-2.46 6.692-23.368 11.834-29.55 8.986-10.802 4.68-49.302.024-64.42-12.874-41.796-58.458-49.436-80.288-98.984-3.88-8.804-5.696-20.286-14.848-25.244-41.212-22.322-111.17 18.344-149.48 32.262-19.244 6.99-39.174 12.25-59.348 15.714-11.524 1.978-25.172-1.81-27.806 12.988-1.9 10.68-2.398 21.872-3.616 32.67l-9.436 87.822c-1.13 9.82.344 31.606-10.99 36.292-2.766 1.142-41.874 1.816-43.486 1.056-14.43-6.786 23.884-21.262 24.868-44.122.552-12.778-1.04-25.696-1.346-38.468-.538-22.44.654-45.106-1.994-67.458-3.528-29.764-18.252-34.938-36.13-52.84-72.788-72.884-35.206-162.968-79.512-216.132 21.176.248 38.96-5.682 54.626-20.894 8.344-8.106 35.422-46.848 8.466-45.268-11.474.672-15.174 41.084-57.076 45.756-19.048 2.124-37.692-6.926-56.634-8.232-26.66-1.838-62.228 11.706-78.859-22.432-2.359-4.37-3.46-9.246-4.657-14.026 10.945-9.938 15.43-19.454 15.102-34.734 11.188-2.496 40.046-6.014 48.506-10.536 12.716-6.796 12.49-52.784 67.88-59.472 21.048-2.542 37.556 6.592 44.34-19.676 5.022-19.44-3.984-44.513-13.708-61.22"/><path fill="#3B475F" d="M262.536 294.052c18.606-.932 20.406 25.066 5.246 31.668-18.106 2.912-20.404-25.022-5.246-31.668"/><path fill="#C9A466" d="M643.26 642.458c9.472-.798 19.198.386 28.624 1.318 20.296 68.58 67.646 71.912 81.396 104.98-3.036 19.778-2.852 39.07-2.81 59.008-5.608 7.976-11.84 13.96-15.694 23.182-4.732-.152-9.502-.012-14.238 0-5.696-.02-22.046 1.464-26.22-1.394-9.906-6.786 21.506-29.402 25.408-35.538 2.814-4.426 1.04-15.586.672-20.762-5.392-75.828-66.69-62.088-83.34-130.794z"/><path fill="#C9A466" d="M877.532 337.542c1.744 6.488 2.92 12.976 4.996 19.398l-.074.714c-.878 9.188.648 18.478-.218 27.784-4.666 50.19-39.562 88.986-85.306 106.744-4.326-6.002-8.792-11.824-13.562-17.48a260 260 0 0 0-12.442-11.932c56.268-27.508 86.37-67.198 106.606-125.228"/><path fill="#EBD9AE" d="M877.532 337.542c1.744 6.488 2.92 12.976 4.996 19.398-8.01 11.662-11.568 25.448-18.772 37.496-14.35 23.996-33.232 47.31-55.914 63.954-7.846 5.758-17.028 10.146-24.474 16.312a260 260 0 0 0-12.442-11.932c56.268-27.508 86.37-67.198 106.606-125.228"/><path fill="#C9A466" d="M339.472 648.83c5.982 4.126 34.356 31.498 35.962 36.33 5.4 16.246 5.804 91.782 5.398 111.5-.288 13.924-18.97 20.196-26.042 34.286-11.782-.012-18.948-.984-19.538-13.668 3.994-9.858 18.076-15.988 23.516-27.056 10.65-21.682-9.078-110.66-19.296-141.392"/></svg>