<!-- created by svgstack.com | Attribution is required. --><svg xmlns="http://www.w3.org/2000/svg" width="1024" height="1024"><path fill="#403F41" d="M361.04 151.006c31.124-.582 61.216 6.223 86.776 24.678 18.664 13.475 10.684 12.341 33.828 20.445 72.308 25.319 72.612 54.591 43.962 120.875-5.998 13.874-13.224 21.634-12.16 37.164 4.668 68.088 40.406 121.978 93.734 162.354 30.634 23.194 61.706 41.322 91.024 66.862 44.648 38.894 73.272 103.858 77.376 163.112 8.412-6.006 17.396-11.102 23.472-19.73 26.612-37.784 8.812-96.826-25.27-124.692-8.95-7.318-15.912-11.552-17.81-23.842-2.52-16.312 9.354-30.24 25.342-32.392 13.318-1.792 29.852 10.3 40.142 18.138 59.874 45.604 82.636 141.23 34.376 203.162-23.374 29.994-56.056 45.544-93.288 50.224-20.578 37.88-39.49 40.234-81.154 40.222l-42.878-.022-59.99-.022c-21.506-.002-24.206-1.442-44.306 4.678-52.314 15.926-83.19-69.408-22.252-87.736-23.282-12.372-32.272-19.666-59.112-27.988-17.604 39.016-8.96 106.22-64.004 114.804-16.41 2.558-45.83 1.642-59.03-7.912l-27.882.04c-16.934.024-32.206.5-45.288-12.134-32.444-31.332-7.052-81.994 43.28-81.82 10.366-31.818 18.714-76.618 25.378-109.718 5.676-28.194 6.46-14.982-.952-42.534-11.07-41.144-8.362-83.152 9.13-122.382 3.826-8.584 9.656-16.502 13.022-25.196l.244-.64c-6.868-39.886-17.324-36.408-51.906-24.99-6.946 26.008-29.61 49.744-54.01 25.252-11.95-11.996-14.286-31.308-14.378-47.402-42.655-5.4-76.41-43.672-81.471-85.61-8.282-68.626 82.661-35.092 106.635-81.65 3.332-6.474 5.276-13.53 8.274-20.144 18.594-41.042 56.172-68.3 101.146-73.454M218.028 302.332c7.72-2.868 15.996-4.09 23.79-7.124 33.148-12.906 37.012-33.132 49.346-60.576 21.868-48.658 86.456-66.38 133.342-45.159 3.538-.478 7.258-.132 10.822 0-52.9-31.197-118.762-26.203-151.604 29.953-5.366 9.176-8.12 18.736-12.198 28.392-10.988 26.018-33.802 37.722-60.022 42.778 2.426 3.812 4.73 7.58 6.524 11.736m-52.934 6.61c-.971 3.324-1.255 6.652-1.59 10.082 2.57-.608 5.158-2.17 7.543-3.314-1.278-3.062-3.633-4.504-5.953-6.768m332.93 513.502c4.058-9.262 4.724-16.912 13.94-23.796 3.054-2.28 6.726-3.568 9.518-6.224-14.936 1.89-26.128 14.716-23.458 30.02m-178.698-52.44c-4.388 10.404-14.62 8.348-24.172 8.558-27.066.594-42.962 26.814-26.27 46.91 1.188-2.6.36-5.704.678-8.5 1.358-11.914 10.678-28.736 22.472-32.616 8.976-2.954 34.35 3.684 27.292-14.352m50.964 4.48c-3.382 11.946-8.544 11.802-19.266 14.998-20.012 5.968-22.594 28.932-13.552 45.026 4.376-15.942 2.606-26.798 21.92-36.162 10.952-5.31 23.276-11.236 10.898-23.862m197.094-19.006c-.46-4.592-4.022-9.388-5.3-14.022-14.128-51.272 31.506-101.83 83.996-88.408 3.1.792 15.418 6.184 17.386 5.656l-1.13-1.266c-24.756-20.862-73.162-15.658-94.32 9.548-20.692 24.652-21.24 63.674-.632 88.492"/><path fill="#FECB58" d="M503.254 402.82c3.198 11.446 7.166 22.106 11.85 33.026 34.748 71.72 77.532 93.234 137.778 135.688 52.238 36.812 87.286 81.998 98.778 145.974 4.768 26.536 5.9 57.35-3.076 82.988-16.066 45.89-49.282 38.016-88.194 38.006l-71.122-.026c-13.52-.002-27.108-.254-40.62.142-18.142.532-41.016 16.862-50.624-16.174 4.058-9.262 4.724-16.912 13.94-23.796 3.054-2.28 6.726-3.568 9.518-6.224h117.03c-23.662-30.018-47.05-3.132-71.128-36.946-.46-4.592-4.022-9.388-5.3-14.022-14.128-51.272 31.506-101.83 83.996-88.408 3.1.792 15.418 6.184 17.386 5.656l-1.13-1.266c-3.322-8.678-19.35-19.29-27.54-22.896-62.888-27.688-121.66 46.4-95.318 109.456 5.146 12.32 22.598 38.558-10.98 17.848-24.19-14.918-42.49-25.984-69.914-34.282 7.232-25.532 20.188-49.74 24.22-76.066-31.946 21.524-50.71 96.536-59.892 133.34-9.564 38.328-8.99 58.052-56.092 58.288-13.686.068-18.334.526-29.348-8.618 4.376-15.942 2.606-26.798 21.92-36.162 10.952-5.31 23.276-11.236 10.898-23.862 3.598-30.128 9.38-60.006 13.266-90.136 5.164-40.026 6.518-49.828-8.574-86.762 1.116 21.968-3.242 42.09-6.324 63.63-26.354-40.188-41.766-98.708-25.414-144.652 2.698-15.156 9.82-29.982 17.796-43.04 61.988-.606 102.508-28.074 142.214-70.704"/><path fill="#EEAB4D" d="M503.254 402.82c3.198 11.446 7.166 22.106 11.85 33.026-3.462 1.34-19.022 18.186-24.204 22.35-39.714 31.904-95.552 58.384-147.656 58.368 2.698-15.156 9.82-29.982 17.796-43.04 61.988-.606 102.508-28.074 142.214-70.704"/><path fill="#FECB58" d="M218.028 302.332c7.72-2.868 15.996-4.09 23.79-7.124 33.148-12.906 37.012-33.132 49.346-60.576 21.868-48.658 86.456-66.38 133.342-45.159-19.202 8.19-28.486 24.769-19.558 44.713 16.862 37.666 23.238 43.296 21.52 86.742-.9 22.79-9.82 57.664 18.292 68.322 21.862 8.286 37.506-9.418 51.934-22.742-.16 3.132-.274 6.154 0 9.286-24.214 46.458-80.366 76-132.046 78.858-3.862-45.622-27.856-55.002-68.752-40.434-.734-4.644-.98-8.92-1.052-13.608 17.54-11.756 35.588-25.238 38.494-47.712-9.178-23.986-20.014-.132-24.29 8.108-21.85 42.114-98.344 44.154-128.25 2.198 18.127-12.35 43.324-36.252 37.23-60.872"/><path fill="#403F41" d="M324.822 237.662c24.254-2.734 40.062 33.502 20.468 36.91-12.332 2.144-8.126-12.872-15.472-17.92-14.548-3.79-8.42 15.778-18.13 17.998-18.114 4.142-17.544-32.442 13.134-36.988"/><path fill="#FECB58" d="M435.328 207.12c23.016-2.602 58.54 12.408 76.678 25.752 12.992 9.56 12.26 16.44 9.852 30.994-4.972 30.05-18.42 59.814-36.748 84.102-6.29 8.066-16.306 20.946-26.518 23.676-19.924 5.328-14.74-30.732-14.102-40.216 1.922-28.624 1.17-58.31-11.112-84.812-6.352-13.706-24.526-34.994 1.95-39.496"/><path fill="#FECB58" d="M781.46 565.032c7.422-1.04 14.51 4.286 20.358 8.156 78.7 52.056 86.138 176.656-8.616 217.318-6.752 2.766-13.592 4.318-20.726 5.666 2.082-10.346 3.176-20.168 3.104-30.73 77.452-22.312 65.19-131.194 11.536-177.17-6.488-5.56-21.5-15.858-5.656-23.24"/><path fill="#EEAB4D" d="M343.244 657.438c6.99 9.912 12.568 19.924 21.404 28.434-2.016 7.37-2.784 15.276-3.916 22.834l-4.854 32.154c-1.392 9.714-2.522 19.574-4.712 29.144-31.288 2.712-44.458 36.534-35.208 64.504-14.33.068-37.098 4.438-47.074-9.036 1.188-2.6.36-5.704.678-8.5 1.358-11.914 10.678-28.736 22.472-32.616 8.976-2.954 34.35 3.684 27.292-14.352.152-10.022 4.268-22.504 6.634-32.34 5.524-22.978 14.916-57.006 17.284-80.226"/><path fill="#6B6B72" d="M191.39 294.882c2.039 3.094 4.02 6.19 5.877 9.396 8.719 16.128-14.944 34.218-26.22 41.684-4.252-7.716-7.5-18.058-7.543-26.938 2.57-.608 5.158-2.17 7.543-3.314-1.278-3.062-3.633-4.504-5.953-6.768 4.366-7.17 18.75-11.604 26.295-14.06"/><path fill="#DBEBFB" d="M191.39 294.882c2.039 3.094 4.02 6.19 5.877 9.396-8.596 1.384-19.617 5.646-26.22 11.432-1.278-3.062-3.633-4.504-5.953-6.768 4.366-7.17 18.75-11.604 26.295-14.06"/><path fill="#EE8B8D" d="m275.378 408.166.578.56c3.19 15.144-5.522 56.578-23.858 34.112-5.332-8.678-7.136-18.55-6.53-28.62 9.614-2.736 20-3.84 29.81-6.052"/></svg>