<!-- created by svgstack.com | Attribution is required. --><svg xmlns="http://www.w3.org/2000/svg" width="1024" height="1024"><path fill="#F8802F" d="M359.616 427.272c7.618-29.694 9.49-51.372-2.85-81.392-6.29-15.298-16.074-33.602 13.694-29.998 48.398 5.86 110.014 36.386 140.17 74.896 23.886 1.55 48.022 3.712 71.072 10.608 71.026 21.524 127.136 57.538 180.856 109.324 8.572 8.264 23.112 21.124 28.514 31.116l.35.656c-8.934 14.482-22.044 27.404-34.046 39.35-50.676 50.442-112.494 90.284-183.462 103.888-21.074 3.63-41.804 7.422-63.284 7.032-15.248 23.198-54.046 48.262-79.488 58.652-14.222 5.808-60.562 21.158-73.758 15.124-13.696-6.264-1.9-26.126 1.75-35.42 9.488-24.158 10.136-46.884.482-71.522-4.662-3.17-9.97-5.554-14.982-8.144-37.706-19.468-60.574-37.448-93.47-61.432-13.334-14.23-38.384-27.452-34.278-50.536 2.68-15.058 21.692-31.42 34.278-39.896 16.614-20.712 85.872-62.68 108.452-72.306"/><path fill="#84BAE2" d="M581.702 401.386c71.026 21.524 127.136 57.538 180.856 109.324 8.572 8.264 23.112 21.124 28.514 31.116l.35.656c-8.934 14.482-22.044 27.404-34.046 39.35-50.676 50.442-112.494 90.284-183.462 103.888-4.118-7.278-9.358-13.968-13.588-21.214-39.39-67.454-40.594-161.464-2.132-229.654 6.774-12.01 15.48-22.334 23.508-33.466"/><path fill="#FEFEFE" d="M651.57 485.186c17.184-.404 31.422 13.24 31.75 30.426s-13.378 31.364-30.564 31.616c-17.082.252-31.152-13.35-31.478-30.43-.328-17.08 13.214-31.212 30.292-31.612"/><path fill="#181A2D" d="M648.638 502.702a13.611 13.611 0 0 1 16.674 16.906 13.6 13.6 0 0 1-9.98 9.472c-7.22 1.686-14.462-2.72-16.286-9.906-1.822-7.186 2.442-14.51 9.592-16.472"/><path fill="#4E6388" d="M359.616 427.272c7.618-29.694 9.49-51.372-2.85-81.392-6.29-15.298-16.074-33.602 13.694-29.998 48.398 5.86 110.014 36.386 140.17 74.896-52.666-.412-103.924 13.314-151.014 36.494"/><path fill="#4E6388" d="m359.616 659.586.618.184c13.788 4.22 27.986 11.142 42.046 15.844 39.39 13.174 68.438 15.414 108.35 17.138-15.248 23.198-54.046 48.262-79.488 58.652-14.222 5.808-60.562 21.158-73.758 15.124-13.696-6.264-1.9-26.126 1.75-35.42 9.488-24.158 10.136-46.884.482-71.522"/><path fill="#F06822" d="M393.278 522.238h121.588c-5.082 13.576-14.698 24.206-27.004 31.65-36.254 19.548-101.708 15.236-112.368-31.65z"/><path fill="#4E6388" d="M251.164 590.01c-33.626 31.226-76.947 56.67-119.921 72.368-27.87 10.182-50.634 16.372-36.51-21.712 9.794-26.406 25.392-52.916 45.672-72.784 28.403-27.824 17.868-26.958-.382-49.858-18.5-23.214-94.583-134.466-6.431-96.608 36.36 15.616 71.188 36.978 100.836 63.342 5.58 4.962 10.824 10.236 16.736 14.82-12.586 8.476-31.598 24.838-34.278 39.896-4.106 23.084 20.944 36.306 34.278 50.536"/><path fill="#84BAE2" d="M887.638 298.702a39.58 39.58 0 0 1-29.508-29.562 39.579 39.579 0 0 1 54.826-45.05c18.578 8.38 27.754 29.498 21.206 48.798-6.55 19.3-26.684 30.47-46.524 25.814"/><path fill="#FEFEFE" d="M879.224 236.896a9.73 9.73 0 0 1 11.414 7.282c1.214 5.11-1.846 10.262-6.914 11.638a9.727 9.727 0 0 1-11.844-12.27 9.73 9.73 0 0 1 7.344-6.65"/><path fill="#84BAE2" d="M819.06 421.244c-51.914-5.716-37.874-93.756 19.818-74.102 46.982 21.084 16.348 83.28-19.818 74.102"/><path fill="#FEFEFE" d="M804.898 360.626c13.976-1.648 17.748 12.338 7.344 18.568-13.404 2.082-16.932-11.468-7.344-18.568"/><path fill="#FEFEFE" d="M867.208 476.62c27.908-2.418 34.138 32.772 9.494 40.798-27.524 4.062-33.542-31.982-9.494-40.798"/></svg>