<!-- created by svgstack.com | Attribution is required. --><svg xmlns="http://www.w3.org/2000/svg" width="1024" height="1024"><path fill="#679FBB" d="M232.514 474.61c21.45-21.238 64.11-50.84 89.848-66.79 117.304-72.702 251.616-91.972 379.798-30.014 50.906 20.98 107.86 60.934 146.298 98.952 30.968 30.63 30.636 40.202-3.698 71.956-37.41 34.602-93.83 76.018-141.986 95.332l-.614.242c-9.754 4.736-20.102 8.378-30.318 11.972-164.026 57.692-317.342-.958-439.328-112.744-5.874-3.744-36.021-27.798-34.562-35.56 1.379-7.332 27.684-28.46 34.562-33.346"/><path fill="#304E68" d="M702.16 377.806c50.906 20.98 107.86 60.934 146.298 98.952 30.968 30.63 30.636 40.202-3.698 71.956-37.41 34.602-93.83 76.018-141.986 95.332l-.614.242c-56.312-73.074-54.36-193.554 0-266.482"/><path fill="#FEFEFE" d="M749.556 451.428c17.074-1.26 31.914 11.614 33.076 28.696s-11.796 31.848-28.884 32.912c-16.952 1.058-31.574-11.776-32.726-28.72-1.154-16.944 11.596-31.64 28.534-32.888"/><path fill="#304E68" d="M749.638 473.794c4.744-1.728 9.986.74 11.676 5.496 1.69 4.754-.818 9.978-5.586 11.632-4.716 1.636-9.87-.84-11.542-5.544-1.672-4.702.762-9.876 5.452-11.584"/><path fill="#346F9C" d="M368.212 447.548c18.722-.842 9.424 16.166 5.144 24.232-12.738 23.998-16.12 46.128-1.29 70.97 5.324 8.916 15.026 21.884-2.022 25.946-13.69-.64-21.162-23.944-24.994-34.754-8.714-24.574-4.502-42.548 6.494-65.416 3.932-8.176 7.44-17.746 16.668-20.978"/><path fill="#346F9C" d="M488.846 449.66c15.822 1.468 6.758 15.34 2.39 21.828-12.428 18.454-14.212 45.878-4.63 65.852 3.468 7.23 23.236 30.164-1.652 28.646-35.634-10.942-34.002-110.512 3.892-116.326"/><path fill="#346F9C" d="M97.479 368.422c70.248 3.61 98.97 58.526 135.035 106.188-6.878 4.886-33.183 26.014-34.562 33.346-1.46 7.762 28.688 31.816 34.562 35.56-29.542 49.558-70.21 110.188-135.035 109.896-.12-51.336.56-93.076 47.012-128.126v-31.684c-39.21-25.69-51.818-80.73-47.012-125.18"/><path fill="#346F9C" d="M391.762 285.25c40.862-1.492 101.582 15.314 130.986 46.196-28.852-1.016-51.408 8.598-75.12 9.05-11.484 5.424-25.958 8.754-38.158 13.22-19.36 7.09-36.946 15.34-55.548 24.09-.238-16.792 19.808-91.066 37.84-92.556"/><path fill="#346F9C" d="M353.922 641.656c52.89 24.392 109.312 47.684 168.826 47.008-7.228 6.44-18.88 12.622-27.516 17.264-29.47 16.932-78.908 27.092-111.67 25.862-13.14-21.192-26.528-66.534-29.64-90.134"/></svg>