<!-- created by svgstack.com | Attribution is required. --><svg xmlns="http://www.w3.org/2000/svg" width="1024" height="1024"><path fill="#020201" d="M534.156 294.5c20.6-1.082 85.236.542 95.73 12.046 5.52 6.048-.7 14.78-3.192 20.834-9.414 22.868-6.572 38.26-7.694 61.02 47.796 13.28 102.578 62.054 143.686 92.444 21.394-42.448 91.918-91.13 134.75-105.028 5.876-1.906 13.26-4.974 19.442-5.012 19.226-.12 4.15 20.77.378 26.654-18.546 28.928-35.852 73.468-41.574 108.256-3.912 23.776 20.69 83.412 31.174 103.532 3.292 6.316 33.626 45.936 8.502 43.616-41.216-3.806-103.346-52.682-130.014-81.488-8.19-8.846-14.27-18.992-22.012-28.052l-.646-.746c-18.198 18.654-49.154 40.572-70.43 55.062-155.564 104.706-333.736 114.528-495.577 11.01-16.388-10.482-93.642-69.526-97.273-88.494-5.616-29.328 8.411-34.906 28.64-52.636 60.719-53.212 131.758-93.134 210.632-111.244 21.674-4.976 21.898-4.138 41.988-14.664 55.902-29.288 93.118-39.466 153.49-47.11m-202.568 97.106c110.408-32.148 242.73-1.522 342.6 52.04 5.808 3.116 18.16 11.82 24.274 12.214-105.358-77.896-245.782-113.708-373.384-76.304 2.014 4.144 4.128 8.1 6.51 12.05m-19.672 4.44c-1.664-3.47-3.746-6.61-5.932-9.772-27.836 4.476-81.872 34.75-104.654 49.966 12.254 1.438 36.274-13.048 47.736-17.612 20.718-8.25 41.868-15.112 62.85-22.582"/><path fill="#29A2A8" d="M331.588 391.606c110.408-32.148 242.73-1.522 342.6 52.04 5.808 3.116 18.16 11.82 24.274 12.214 15.08 7.168 56.958 44.964 69.282 56.626C642.302 629.53 495.058 694.232 321.058 645.544c2.562-6.594 6.68-12.99 10.042-19.246 40.266-74.928 35.76-159.368.488-234.692"/><path fill="#020201" d="M401.654 390.096c21.35-.284 46.11 20.758 44.738 43.16-.92 15.002-10.662 24.114-21.252 33.402 30.812 18.696 26.742 47.874 0 67.728 60.842 41.88-27.526 100.258-31.12 66.634 3.456-10.794 43.152-14.748 30.444-41.372-7.374-15.446-27.876-16.886-30.322-23.096-5.704-14.484 43.52-14.924 31.324-44.104-6.482-15.51-28.414-14.692-31.706-23.928-5.36-15.038 42.37-13.592 31.388-43.24-5.9-15.93-28.414-14.002-31.054-23.566-1.644-5.954 2.008-10.312 7.56-11.618"/><path fill="#020201" d="M512.864 396.046c19.314-2.466 38.204 21.416 37.248 39.434-.858 16.174-9.986 21.34-20.878 31.178 29.872 13.876 25.706 48.468 1.55 67.728 29.178 19.768 24.532 56.848-5.726 71.818-10.796 5.342-31.128 8.446-24.334-8.566 7.878-8.448 35.576-10.606 30.032-33.306-4.526-18.522-29.13-17.122-31.408-28.922-2.852-14.778 37.928-12.96 31.16-39.67-4.67-18.434-30.606-17.088-32.376-28.89-2.15-14.346 36.858-14.366 33.092-36.004-2.224-12.786-15.896-14.076-24.034-20.044-8.832-6.476-3.24-14.278 5.674-14.756"/><path fill="#020201" d="M599.144 431.602c42.784-1.946 65.72 47.288 26.046 78.094 22.56 15.528 29.186 44.844 8.05 64.652-8.114 7.604-28.638 20.964-38.42 9.532-7.39-20.144 45.556-15.516 31.032-47.252-7.362-16.092-26.462-14.134-31.454-22.084-10.42-16.592 43.49-16.23 31.808-48.352-6.366-17.508-27.318-11.98-32.204-21.058-2.728-5.066.362-11.188 5.142-13.532"/><path fill="#969595" d="M311.916 396.046c42.354 74.362 37.606 172.646-10.624 243.046-72.136-26.256-124.95-62.142-177.083-116.726 5.792 2.752 15.653 8.782 22.095 6.33 4.848-1.846 6.71-7.612 4.654-12.214-3.096-6.922-22.697-12.16-30.019-16.142 15.718-15.58 60.106-55.34 80.391-64.1 12.254 1.438 36.274-13.048 47.736-17.612 20.718-8.25 41.868-15.112 62.85-22.582"/><path fill="#020201" d="M216.996 441.792c26.114-2.452 49.234 16.814 51.532 42.942 2.296 26.126-17.108 49.132-43.248 51.274-25.922 2.122-48.692-17.084-50.97-42.992-2.278-25.906 16.792-48.792 42.686-51.224"/><path fill="#FEFEFE" d="M218.168 460.884c15.348-1.706 29.196 9.294 31.006 24.63 1.812 15.336-9.094 29.26-24.416 31.174-15.472 1.934-29.56-9.1-31.389-24.584-1.828-15.484 9.301-29.496 24.799-31.22"/><path fill="#020201" d="M217.898 477.188c6.366-1.792 12.976 1.934 14.738 8.308 1.764 6.374-1.992 12.966-8.374 14.7-6.34 1.722-12.88-2.004-14.632-8.336-1.752-6.334 1.944-12.89 8.268-14.672"/><path fill="#969595" d="M537.354 313.41c24.334-.924 47.81 1.278 71.818 4.844-6.918 20.266-10.1 39.944-10.028 61.302-29.586-11.456-55.126-19.682-86.28-26.118-38.328-7.344-63.042-5.83-99.81-7.414 46.438-18.432 75.268-27.028 124.3-32.614"/><path fill="#969595" d="M894.88 396.046c.784 2.69-8.62 18.126-10.354 21.906-12.696 27.676-20.962 55.862-27.978 85.418h-72.682l-2.616-3.03c-1.586-1.716-2.94-3.736-4.352-5.602 15.768-37.202 83.408-82.738 117.982-98.692"/><path fill="#969595" d="M833.716 522.366h22.832c6.81 37.11 20.884 71.402 38.332 104.626-13.524-5.154-25.994-12.444-38.332-19.924-32.4-21.222-57.094-46.37-79.65-77.786 2.186-2.478 4.53-4.69 6.968-6.916z"/></svg>