<?xml version="1.0" encoding="utf-8" ?><!-- created by svgstack.com | Attribution is required. --><svg xmlns="http://www.w3.org/2000/svg" xmlns:xlink="http://www.w3.org/1999/xlink" width="1024" height="1024"><path fill="#FA8E2F" transform="scale(2 2)" d="M255.751 130.993C244.592 142.772 232.951 154.119 221.505 165.618L104.203 282.818C87.8857 298.943 85.4381 296.765 69.5636 280.689C64.9026 275.969 58.1178 271.245 57.6113 264.015C56.9491 254.562 67.8658 246.728 74.0664 240.375L222.698 90.4124C229.51 83.6182 247.074 62.4525 255.564 62.2358C263.884 62.0235 279.633 81.1956 286.536 88.1468L326.781 128.374C332.728 134.281 338.484 140.419 344.597 146.151C347.118 149.083 349.97 151.687 352.73 154.389L380.417 182.263C384.073 185.977 387.763 190.136 391.93 193.261C394.732 197.354 400.907 202.775 404.615 206.484L447.304 249.404C460.211 262.35 458.703 262.889 446.476 275.975C442.401 280.337 436.055 288.243 431.541 291.423C420.766 299.012 412.167 286.729 405.307 279.918L278.033 152.994C270.718 145.564 263.484 137.993 255.751 130.993Z"/><path fill="#5B8898" transform="scale(2 2)" d="M344.597 146.151L344.594 107.575C344.592 100.707 344.182 93.5941 344.597 86.7507L391.93 86.7507L391.944 181.823C391.952 185.57 392.219 189.533 391.93 193.261C387.763 190.136 384.073 185.977 380.417 182.263L352.73 154.389C349.97 151.687 347.118 149.083 344.597 146.151Z"/><path fill="#FEC16A" transform="scale(2 2)" d="M216.755 375.751C201.453 381.223 182.996 390.794 168.008 394.859L168.008 448L143.236 448.017C121.415 448.01 120.24 448.379 120.254 424.312L120.25 285.674C123.906 281.447 128.455 277.644 132.434 273.679L244.507 161.574C248.164 157.949 251.714 153.621 255.751 150.454C263.156 156.142 272.663 166.906 279.573 173.81L378.12 272.67C380.435 274.965 390.884 283.755 390.882 287.061L390.876 423.459C390.886 445.294 392.291 448.017 371.163 448.01L347.662 447.995C317.365 447.989 287.031 447.679 256.739 448C260.355 446.198 265.433 446.061 269.379 445.009C283.225 441.318 296.002 434.602 306.634 424.985C318.471 414.28 342.971 382.722 343.346 369.297C343.551 361.931 335.283 358.105 329.291 361.978C317.698 369.471 310.57 385.834 301.628 394.859C299.659 394.917 297.675 394.863 295.705 394.859L295.712 335.978C295.711 329.63 295.925 323.202 294.335 317C284.54 278.801 228.357 277.797 218.122 317.467C215.919 326.003 216.745 335.692 216.745 344.47L216.755 375.751Z"/><path fill="#5B8898" transform="scale(2 2)" d="M216.755 375.751L216.745 344.47C216.745 335.692 215.919 326.003 218.122 317.467C228.357 277.797 284.54 278.801 294.335 317C295.925 323.202 295.711 329.63 295.712 335.978L295.705 394.859L267.746 394.87C261.852 394.871 253.416 396.389 248.294 392.773C247.416 389.423 247.356 385.778 247.575 382.345C253.431 379.209 267.389 376.572 270.53 370.954C274.078 364.609 267.266 357.281 260.548 358.593C250.372 360.58 227.84 371.732 216.755 375.751Z"/><path fill="#D5E3EC" transform="scale(2 2)" d="M168.008 394.859C182.996 390.794 201.453 381.223 216.755 375.751C227.84 371.732 250.372 360.58 260.548 358.593C267.266 357.281 274.078 364.609 270.53 370.954C267.389 376.572 253.431 379.209 247.575 382.345C247.356 385.778 247.416 389.423 248.294 392.773C253.416 396.389 261.852 394.871 267.746 394.87L295.705 394.859C297.675 394.863 299.659 394.917 301.628 394.859C310.57 385.834 317.698 369.471 329.291 361.978C335.283 358.105 343.551 361.931 343.346 369.297C342.971 382.722 318.471 414.28 306.634 424.985C296.002 434.602 283.225 441.318 269.379 445.009C265.433 446.061 260.355 446.198 256.739 448C254.91 448.287 252.819 447.969 250.943 447.97L190.324 447.996C182.934 447.993 175.38 447.646 168.008 448L168.008 394.859Z"/></svg> 