<!-- created by svgstack.com | Attribution is required. --><svg xmlns="http://www.w3.org/2000/svg" width="1024" height="1024"><path fill="#322F2E" d="M406.346 241.514c120.05-4.47 220.706 69.168 255.68 184.134 4 13.148 6.246 26.58 9.2 39.97 1.058-21.298 3.228-55.512 8.802-74.666 32.784-112.62 187.54-138.166 244.772-31.984 40.622 75.366-7.374 171.67-94.144 177.344-26.154 1.71-41.604-9.606-67.312 6.984-14.216 9.176-21.084 24.048-31.702 36.612-22.992 27.204-46.742 43.476-77.736 60.072 16.962 37.328 16.576 67.646 0 103.302-4.168 3.636-7.704 8.074-11.78 11.842-25.068 23.168-62.438 25.198-89.61 4.334-23.234-17.842-38.512-51.44-42.24-80.188-9.484.602-19.064 2.706-28.536 3.774-35.73 4.028-71.322 5.186-107.24 4.328-11.264-.27-22.282-1.19-33.528.106-1.636 27.122-22.502 61.464-44.996 75.936-32.782 21.09-76.44 13.24-97.344-20.52-15.093-24.376-15.137-51.682-8.83-78.89-40.49-14.604-76.789-45.286-95.368-84.264-4.161-8.728-18.965-38.086-4.46-43.65 9.04-3.47 34.994 30.134 72.519 14.602 1.003-15.68-.457-31.448.777-47.214 9.242-118.09 85.126-228.82 204.446-256.328 12.912-2.978 25.554-3.976 38.63-5.636"/><path fill="#9B703F" d="M340.972 276.592c24.084-8.784 50.94-14.126 76.612-14.104 11.432 0 23.854-.52 35.116 1.81 6.26.602 12.476 1.834 18.62 3.16 7.988 2.7 16.306 4.898 23.63 9.134 5.4.774 10.27 2.504 15.326 4.486 19.122 7.332 38.22 18.574 53.46 32.25 5.032 3.87 10.296 8.444 14.21 13.452 6.006 5.028 12.302 10.892 17.076 17.106 3.034 3.044 8.89 10.936 10.862 14.636 19.442 21.034 36.86 69.582 41.906 96.378 1.666 6.94 3.29 13.988 3.804 21.126 2.114 12.066 7.066 36.152-2.602 44.46-4.482 4.77-12.032 10.01-17.994 12.716-32.138 22.102-92.074 36.246-129.35 43.11-5.952 1.034-11.988 2.354-17.976 3.07-7.72 1.214-15.538 2.202-23.144 4-6.11-.108-11.582.142-17.588 1.376-13.366-1.092-26.65.66-40.002 0-32.25.034-69.702-3.994-99.782-2.88-6.204-1.61-12.026-2.162-18.394-2.496-7.408-1.886-14.822-2.784-22.448-3.07-4.808-1.392-12.908-1.534-16.864-3.896-4.616-2.148-17.38-4.334-23.382-6.176-13.656-4.19-26.813-9.672-40.408-13.99 1.068-29.342-3.403-61.878 8.141-89.596.776-6.15 2.711-12.058 4.497-17.972 6.62-22.284 14.598-44.07 26.534-64.154 2.048-5.79 12.26-20.09 16.456-24.774 8.794-13.028 24.366-28.494 36.79-37.988 3.278-4.762 9.706-8.888 14.358-12.286 11.212-7.64 22.2-14.492 34.42-20.452 3.758-2.728 13.654-7.242 18.116-8.436"/><path fill="#483930" d="M340.972 276.592c24.084-8.784 50.94-14.126 76.612-14.104l.124.414c2.072 6.708 5.294 12.64 6.466 19.676.736 4.424.196 16.59.778 18.278l-1.628 1.232c-2.676 13.788-15.434 24.282-16.978 32.276-3.676 2.444-7.488 4.878-10.846 7.752-3.488 7.966-9.672 14.416-13.006 22.472-12.344 29.822-9.458 54.778-15.288 83.396-2.87 3.034-6.014 4.944-9.662 6.916.752 6.994.394 15.118 0 22.176 1.718 3.516 2.906 15.07 4.108 19.842 8.108 26.7 17.198 53.054 33.386 76.04 2.588 3.678 6.174 7.682 7.9 11.8-32.25.034-69.702-3.994-99.782-2.88-6.204-1.61-12.026-2.162-18.394-2.496-7.408-1.886-14.822-2.784-22.448-3.07-4.808-1.392-12.908-1.534-16.864-3.896-4.616-2.148-17.38-4.334-23.382-6.176-13.656-4.19-26.813-9.672-40.408-13.99 1.068-29.342-3.403-61.878 8.141-89.596.776-6.15 2.711-12.058 4.497-17.972 6.62-22.284 14.598-44.07 26.534-64.154 2.048-5.79 12.26-20.09 16.456-24.774 8.794-13.028 24.366-28.494 36.79-37.988 3.278-4.762 9.706-8.888 14.358-12.286 11.212-7.64 22.2-14.492 34.42-20.452 3.758-2.728 13.654-7.242 18.116-8.436"/><path fill="#9B703F" d="M220.832 380.528c-.608 18.98-4.96 38.114-4.702 57.092 25.84 15.342 45.856 39.618 72.306 53.96 23.312-11.27 46.824-23.544 69.108-36.68.752 6.994.394 15.118 0 22.176 1.718 3.516 2.906 15.07 4.108 19.842 8.108 26.7 17.198 53.054 33.386 76.04 2.588 3.678 6.174 7.682 7.9 11.8-32.25.034-69.702-3.994-99.782-2.88-6.204-1.61-12.026-2.162-18.394-2.496-7.408-1.886-14.822-2.784-22.448-3.07-4.808-1.392-12.908-1.534-16.864-3.896-4.616-2.148-17.38-4.334-23.382-6.176-13.656-4.19-26.813-9.672-40.408-13.99 1.068-29.342-3.403-61.878 8.141-89.596.776-6.15 2.711-12.058 4.497-17.972 6.62-22.284 14.598-44.07 26.534-64.154"/><path fill="#7CB552" d="M361.652 496.918c8.108 26.7 17.198 53.054 33.386 76.04 2.588 3.678 6.174 7.682 7.9 11.8-32.25.034-69.702-3.994-99.782-2.88.426-8.272 3.36-47.184 5.608-52.604 5.588-7.322 14.494-10.984 22.336-15.37z"/><path fill="#3E923D" d="M189.801 462.654c12.685 13.72 46.229 40.232 61.723 52.758-3.894 19.33-2.778 39.038-6.074 57.004-4.616-2.148-17.38-4.334-23.382-6.176-13.656-4.19-26.813-9.672-40.408-13.99 1.068-29.342-3.403-61.878 8.141-89.596"/><path fill="#483930" d="M194.298 444.682c17.394 12.046 55.258 43.196 68.752 57.688 8.768 9.418 4.262 23.35 3.16 34.988l-3.896 38.954c-4.808-1.392-12.908-1.534-16.864-3.896 3.296-17.966 2.18-37.674 6.074-57.004-15.494-12.526-49.038-39.038-61.723-52.758.776-6.15 2.711-12.058 4.497-17.972"/><path fill="#483930" d="M357.544 477.076c1.718 3.516 2.906 15.07 4.108 19.842L331.1 513.904c-7.842 4.386-16.748 8.048-22.336 15.37-2.248 5.42-5.182 44.332-5.608 52.604-6.204-1.61-12.026-2.162-18.394-2.496 1.744-4.484 1.582-10.97 2.062-15.848l2.978-28.296c2.72-27.484.846-19.612 25.998-33.448 14-7.702 28.494-15.796 41.744-24.714"/><path fill="#7CB552" d="M340.972 276.592c24.084-8.784 50.94-14.126 76.612-14.104l.124.414c2.072 6.708 5.294 12.64 6.466 19.676.736 4.424.196 16.59.778 18.278l-1.628 1.232c-2.676 13.788-15.434 24.282-16.978 32.276-3.676 2.444-7.488 4.878-10.846 7.752-5.954 1.552-7.164 5.704-13.262 1.694-5.778-3.8-11.208-8.238-16.918-12.174l-28.076-19.76c-4.782-3.428-10.324-6.784-14.388-11.02-.51-5.28-.286-10.544 0-15.828 3.758-2.728 13.654-7.242 18.116-8.436"/><path fill="#483930" d="M322.856 285.028c3.758-2.728 13.654-7.242 18.116-8.436-.076 4.956-.238 9.954 0 14.904 6.256 6.31 13.82 10.944 21.136 15.92l24.898 16.932 36.318-22.26c-2.676 13.788-15.434 24.282-16.978 32.276-3.676 2.444-7.488 4.878-10.846 7.752-5.954 1.552-7.164 5.704-13.262 1.694-5.778-3.8-11.208-8.238-16.918-12.174l-28.076-19.76c-4.782-3.428-10.324-6.784-14.388-11.02-.51-5.28-.286-10.544 0-15.828"/><defs><linearGradient id="a" x1="155.89" x2="174.758" y1="220.588" y2="146.833" gradientUnits="userSpaceOnUse"><stop offset="0" stop-color="#503E36"/><stop offset="1" stop-color="#936835"/></linearGradient></defs><path fill="url(#a)" d="M161.428 142.514c-.143 2.642-.255 5.274 0 7.914 2.032 2.118 4.803 3.796 7.194 5.51l14.038 9.88c2.855 1.968 5.57 4.187 8.459 6.087 3.049 2.005 3.654-.071 6.631-.847-1.744 3.983-4.836 7.208-6.503 11.236-6.172 14.911-4.729 27.389-7.644 41.698-1.435 1.517-3.007 2.472-4.831 3.458-1.494-12.639 6.518-31.169 9.519-43.795-2.476-2.588-6.046-4.61-8.995-6.635l-19.709-13.275c-4.891-3.238-11.415-6.756-15.369-11.005 5.606-3.82 11.1-7.246 17.21-10.226" transform="scale(2)"/><path fill="#9B703F" d="M274.078 317.766c5.374 2.91 11.248 5.622 16.308 9.014-11.152 4.838-45.91 27.726-53.098 28.974 8.794-13.028 24.366-28.494 36.79-37.988"/><path fill="#7CB552" d="M303.156 342.116c6.194-1.96 46.208 27.112 54.388 33.118-.79 20.468-4.826 41.966-7.34 62.386-13.122 9.574-44.292 26.252-59.818 32.81-12.942-6.806-45.252-32.626-55.334-42.086.02-9.464 1.592-43.798 6.104-50.52 4.714-7.024 53.272-34.322 62-35.708"/><path fill="#C1D782" d="M571.896 484.166c15.764 9.304 46.962 20.582 59.102 31.246v17.79c-32.138 22.102-92.074 36.246-129.35 43.11v-44.946c7.086-6.814 17.346-11.944 25.616-17.378z"/><path fill="#C1D782" d="M361.652 496.918c3.828-2.072 7.602-4.25 11.852-5.338 9.758 2.922 61.968 32.846 69.436 39.786.17 17.774-.574 35.638 0 53.392-13.366-1.092-26.65.66-40.002 0-1.726-4.118-5.312-8.122-7.9-11.8-16.188-22.986-25.278-49.34-33.386-76.04"/><path fill="#614839" d="M571.896 465.618c7.428 1.222 71.676 33.688 75.894 38.966 1.074 5.346 1.156 10.47 1.202 15.902-4.482 4.77-12.032 10.01-17.994 12.716v-17.79c-12.14-10.664-43.338-21.942-59.102-31.246l-44.632 29.822c-8.27 5.434-18.53 10.564-25.616 17.378v44.946c-5.952 1.034-11.988 2.354-17.976 3.07-.072-7.126-1.236-54.726 1.432-58.246 5.614-7.404 28.972-19.646 37.506-25.338 13.466-8.984 34.282-26.25 49.286-30.18"/><path fill="#614839" d="M494.95 276.592c5.4.774 10.27 2.504 15.326 4.486 19.122 7.332 38.22 18.574 53.46 32.25 5.032 3.87 10.296 8.444 14.21 13.452-8.208 3.648-23.408 13.514-31.304 14.686-4.352.646-55.974-28.352-60.19-31.79 1.164-10.548 4.238-23.356 8.498-33.084"/><path fill="#C1D782" d="M510.276 281.078c19.122 7.332 38.22 18.574 53.46 32.25-4.708 4.004-11.986 6.594-17.55 9.294-13.914-6.162-26.14-15.422-40.576-20.534 1.982-6.92 2.554-14.168 4.666-21.01"/><path fill="#C1D782" d="M605.884 358.522c19.442 21.034 36.86 69.582 41.906 96.378-7.46-4.502-38.068-19.908-46.42-22.14-7.006-16.634-13.652-43.444-18.592-61.06 7.49-4.658 15.452-8.774 23.106-13.178"/><path fill="#614839" d="M595.022 343.886c3.034 3.044 8.89 10.936 10.862 14.636-7.654 4.404-15.616 8.52-23.106 13.178 4.94 17.616 11.586 44.426 18.592 61.06 8.352 2.232 38.96 17.638 46.42 22.14 1.666 6.94 3.29 13.988 3.804 21.126-7.896-2.742-19.162-9.556-27.09-13.514-45.718-22.82-34.648-8.11-49.936-57.314-15.168-48.816-20.856-35.352 20.454-61.312"/><path fill="#614839" d="M357.544 477.076c5.59-1.304 10.858-5.504 16.814-4.622 4.326.64 80.532 41.252 86.188 49.438 2.522 13.69-1.052 44.764-.018 61.49-6.11-.108-11.582.142-17.588 1.376-.574-17.754.17-35.618 0-53.392-7.468-6.94-59.678-36.864-69.436-39.786-4.25 1.088-8.024 3.266-11.852 5.338-1.202-4.772-2.39-16.326-4.108-19.842"/><path fill="#614839" d="M417.584 262.488c11.432 0 23.854-.52 35.116 1.81 6.26.602 12.476 1.834 18.62 3.16l-.31.796c-4.378 11.354-2.498 26.236-13.246 33.936-11.454 8.208-38.42 25.64-51.418 32.174 1.544-7.994 14.302-18.488 16.978-32.276l1.628-1.232c-.582-1.688-.042-13.854-.778-18.278-1.172-7.036-4.394-12.968-6.466-19.676z"/><path fill="#C1D782" d="M417.584 262.488c11.432 0 23.854-.52 35.116 1.81-.906 7.614-2.728 16.166-5.482 23.32-7.18 4.772-14.748 9.02-22.266 13.238-.582-1.688-.042-13.854-.778-18.278-1.172-7.036-4.394-12.968-6.466-19.676z"/><path fill="#614839" d="M467.952 328.452c2.972.174 62.454 30.284 70.118 35.446l.77.528c6.366 4.264 19.64 66.512 19.83 76.04-6.242 7.072-19.86 14.124-28.234 19.334l-27.978 17.738c-7.732 4.878-15.594 9.546-22.952 14.982-2.742 1.592-5.556 3.132-8.84 2.592-5.566-.916-73.528-37.47-79.722-45.404-1.724-6.912-.188-72.314 1.266-81.054 6.266-5.244 27.894-15.25 36.082-19.576l23.372-12.41c5.336-2.858 10.61-6.084 16.288-8.216"/><path fill="#C1D782" d="M467.952 348.41c4.03-.422 50.552 23.748 57.484 30.622 4.718 7.72 12.37 43.218 14.714 53.728-18.666 12.124-44.112 29.646-63.682 39.66-1.556 1.374-3.416 2.462-5.148 3.606-11.376-5.66-56.296-29.18-63.46-35.56-.612-20.478 1.446-40.93 1.1-61.434 19.774-10.004 39.136-20.774 58.992-30.622"/><path fill="#C1D782" d="M668.562 529.274c5.93-7.692 14.236-46.012 15.63-56.21 5.372-39.314-.23-72.286 22.176-108.432 58.888-95 205.792-70.06 218.484 39.244 3.18 27.394-3.192 49.388-16.198 73.2-7.314-8.194-12.786-4.718-22.624-4.596-47.878.592-44.032-37.05-58.566-37.664-21.52-.906.816 31.548 8.216 38.312 17.324 15.838 38.272 18.96 60.87 18.452-18.138 18.498-44.768 31.506-70.936 31.902-30.462.464-52.584-11.05-80.868 17.562-13.106 13.258-19.688 29.286-35.03 43.714-18.44-16.898-30.166-33.136-41.154-55.484"/><path fill="#322F2E" d="M817.578 357.864c17.866-.938 33.13 12.738 34.154 30.598s-12.578 33.19-30.434 34.3c-17.976 1.118-33.436-12.598-34.466-30.58s12.758-33.374 30.746-34.318"/><path fill="#FEFEFE" d="M808.394 366.59a8.42 8.42 0 1 1 1.358 16.784 8.417 8.417 0 0 1-9.062-7.712 8.42 8.42 0 0 1 7.704-9.072"/><path fill="#3E923D" d="M540.15 589.276c18.97-4.976 30.604-12.206 49.162-1.474 34.862 20.16 73.502 100.16 50.326 139.734-2.01 3.432-4.48 6.6-6.896 9.75-2.914-15.608-3.99-21.684-17.77-31.144-27.692-19.008-52.806 4.992-38.372 11.652 5.624 2.596 16.758-3.826 28.62 2.7 19.716 10.846 5.352 46.622-30.484 29.016-57.334-28.166-43.012-120.586-53.612-127.536 1.204-1.46 1.308-4.27 1.652-6.148 2.652-9.676 10.584-19.464 17.374-26.55"/><path fill="#3E923D" d="M251.524 593.868c6.386.55 69.974 8.138 73.374 9.558l-1.102.168c-.036 2.864 4.824 12.866 5.882 16.704-8.544 11.842 8.222 66.828-29.222 114.242-13.122-18.926-38.288-42.422-63.624-33.346-4.87 1.746-6.57 8.428-4.656 12.85 4.876 11.268 36.186-7.614 52.586 32.95-21.19 12.314-46.344 11.398-64.012-6.984-36.735-38.222-.592-116.668 30.774-146.142"/><path fill="#C1D782" d="M540.15 589.276c-6.79 7.086-14.722 16.874-17.374 26.55-.344 1.878-.448 4.688-1.652 6.148-1.904-.626-3.87-1.124-5.798-1.676l-5.05 1.676c-9.292 7.142-3.848 27.658-4.666 37.888-41.688 5.166-82.958 9.738-125.014 8.016-11.242-.46-22.834-1.624-34.062-.974-.41-12.85.298-25.722 0-38.576-2.652-8.542-8.518-12.808-16.856-8.03-1.058-3.838-5.918-13.84-5.882-16.704l1.102-.168c15.174.024 30.24 1.66 45.394 1.796 61.172.55 110.704-3.386 169.858-15.946"/><path fill="#BBBB49" d="M346.534 628.328c3.196.298 6.554 1.472 9.72 2.168 38.308 8.42 80.252 6.896 118.668-1.094 7.734-1.608 28.964-7.832 35.354-7.428-9.292 7.142-3.848 27.658-4.666 37.888-41.688 5.166-82.958 9.738-125.014 8.016-11.242-.46-22.834-1.624-34.062-.974-.41-12.85.298-25.722 0-38.576"/><path fill="#BBBB49" d="M522.776 615.826c-.344 1.878-.448 4.688-1.652 6.148-1.904-.626-3.87-1.124-5.798-1.676 2.2-1.824 4.816-3.374 7.45-4.472"/><path fill="#BBBB49" d="M601.37 571.096c24.894-9.422 47.578-23.928 67.192-41.822 10.988 22.348 22.714 38.586 41.154 55.484-16.666 19.11-40.176 31.32-61.926 43.57-15.488-24.62-19.828-38.342-46.42-57.232"/><path fill="#BBBB49" d="M109.854 566.77c21.7 6.95 41.617 8.43 63.569 1.72 20.149 9.732 37.907 12.862 56.267 20.786-8.726 8.946-14.868 20.378-21.302 31.022-4.11 8.658-8.08 17.192-11.424 26.18-39.145-18.382-69.106-38.45-87.11-79.708"/></svg>