<!-- created by svgstack.com | Attribution is required. --><svg xmlns="http://www.w3.org/2000/svg" width="1024" height="1024"><defs><linearGradient id="a" x1="277.331" x2="337.764" y1="292.692" y2="161.239" gradientUnits="userSpaceOnUse"><stop offset="0" stop-color="#833D36"/><stop offset="1" stop-color="#B97260"/></linearGradient></defs><path fill="url(#a)" d="M272.504 157.811c20.117-7.426 58.939-1.479 76.943 8.245 3.927 1.784 8.047 3.749 11.591 6.223 21.482 13.778 41.77 36.391 51.492 60.144 1.971 4.103 5.637 11.707 6.377 16.069 2.295 6.75 5.87 18.274 5.868 25.254 2.593-.153 3.728.509 5.777 1.998 9.721-1.733 35.695-9.065 42.024-4.596 5.639 3.982 2.511 12.055-.944 16.329-10.596 13.11-34.192 20.546-49.226 28.297 2.116 13.886-16.124 17.11-27.79 20.903-2.843-9.669-7.932-21.137-19.041-23.001-2.594-.436-5.444-.014-7.815-1.345-3.354.499-6.817.86-10.091 1.76-11.729 6.47-14.6 16.3-11.649 29.093-4.028.037-8.018.673-12.02 1.076-21.879 2.207-43.885 1.278-65.717-1.076.949 5.461 3.285 9.785 6.35 14.355 4.874 5.552 16.302 17.338 7.856 24.54-4.736 4.039-13.266 4.559-19.164 3.955-15.391-1.576-31.3-11.336-38.148-25.605-4.574-7.743-6.47-17.289-6.036-26.17-7.762-2.747-14.76-5.811-21.493-10.626-16.62-13.784-19.271-20.285-26.952-38.787-.189-1.35-.07-2.694 0-4.05 15.675 6.351 38.435 11.657 54.481 5.058-17.729-11.784-49.887-42.301-50.019-63.19 3.306-5.645 8.225-5.771 13.493-2.791l3.628-6.88c13.095-24.917 40.365-43.918 66.565-52.25 4.489-1.428 8.908-2.88 13.66-2.932" transform="scale(2)"/><path fill="#D59575" d="M341.392 561.592c31.35 12.702 76.87 23.314 108.962 10.116 68.606 47.576 158.542 66.27 241.324 58.61 7.556-.698 16.156-2.624 23.66-2.136-23.458 12.94-29.2 32.6-23.298 58.186-8.056.074-16.036 1.346-24.04 2.152-43.758 4.414-87.77 2.556-131.434-2.152 1.898 10.922 6.57 19.57 12.7 28.71 9.748 11.104 32.604 34.676 15.712 49.08-9.472 8.078-26.532 9.118-38.328 7.91-30.782-3.152-62.6-22.672-76.296-51.21-9.148-15.486-12.94-34.578-12.072-52.34-15.524-5.494-29.52-11.622-42.986-21.252-33.24-27.568-38.542-40.57-53.904-77.574-.378-2.7-.14-5.388 0-8.1"/><defs><linearGradient id="b" x1="245.235" x2="243.073" y1="356.27" y2="311.625" gradientUnits="userSpaceOnUse"><stop offset="0" stop-color="#96C196"/><stop offset="1" stop-color="#D5E3CD"/></linearGradient></defs><path fill="url(#b)" d="M219.141 334.259c2.776-29.75 46.418-34.256 49.142 8.925.949 5.461 3.285 9.785 6.35 14.355 4.874 5.552 16.302 17.338 7.856 24.54-4.736 4.039-13.266 4.559-19.164 3.955-15.391-1.576-31.3-11.336-38.148-25.605-4.574-7.743-6.47-17.289-6.036-26.17" transform="scale(2)"/><path fill="#77BB9F" d="M450.354 720.858c.86-2.048-1.35-3.756-1.56-5.868 3.496-2.564 11.65-5.376 15.844-6.57 21.966-6.25 45.758-8.112 68.51-6.526 17.148 1.194 6.536 9.524 16.118 13.184 9.748 11.104 32.604 34.676 15.712 49.08-9.472 8.078-26.532 9.118-38.328 7.91-30.782-3.152-62.6-22.672-76.296-51.21"/><path fill="#603F3C" d="M350.316 445.328c6.612-11.29 16.45-11.542 26.986-5.582 15.93 26.11 21.442 45.778 45.678 69.64 7.442 7.34 14.748 14.78 22.728 21.544 30.896 23.772 70.252 46.388 108.416 55.41 9.016 2.944 21.432 3.956 29.368 7.178 32.992 8.186 65.892 5.628 99.304 6.93 10.836-.352 21.84-2.12 32.542-3.718 42.836-11.322 69.54-12.016 112.104-37.194 7.076-4.186 14.216-9.618 22.108-12.044 5.186-.306 7.456 1.018 11.554 3.996 19.442-3.466 71.39-18.13 84.048-9.192 11.278 7.964 5.022 24.11-1.888 32.658-21.192 26.22-68.384 41.092-98.452 56.594 4.232 27.772-32.248 34.22-55.58 41.806-5.686-19.338-15.864-42.274-38.082-46.002-5.188-.872-10.888-.028-15.63-2.69-6.708.998-13.634 1.72-20.182 3.52-7.504-.488-16.104 1.438-23.66 2.136-82.782 7.66-172.718-11.034-241.324-58.61-35.458-23.568-99.774-84.602-100.038-126.38"/><path fill="#688874" d="M861.104 551.488c19.442-3.466 71.39-18.13 84.048-9.192 11.278 7.964 5.022 24.11-1.888 32.658-21.192 26.22-68.384 41.092-98.452 56.594-3.034-13.834-7.318-27.69-14.132-40.15 14.42-8.506 39.774-19.496 30.424-39.91"/><path fill="#D59575" d="M830.68 591.398c6.814 12.46 11.098 26.316 14.132 40.15 4.232 27.772-32.248 34.22-55.58 41.806-5.686-19.338-15.864-42.274-38.082-46.002-5.188-.872-10.888-.028-15.63-2.69 37.02-10.95 57.808-12.166 95.16-33.264"/><path fill="#AB5E4C" d="M730.612 493.364c20.68-.046 102.882 8.034 105.806 6.504.836-.438 1.13-2.026 1.396-2.884 4.59 13.5 11.74 36.548 11.736 50.508-7.892 2.426-15.032 7.858-22.108 12.044-42.564 25.178-69.268 25.872-112.104 37.194-5.776-6.432-9.664-14.056-14.186-21.37l-16.46-26.252c7.156-8.678 39.256-51.804 45.92-55.744"/><path fill="#D59575" d="M722.076 344.558c42.964 27.556 83.54 72.782 102.984 120.288-49.242 24.04-138.172-21.978-127.1-74.354 2.088-9.868 18.048-36.808 24.116-45.934"/><path fill="#D59575" d="M545.008 315.622c40.234-14.852 117.878-2.958 153.886 16.49-12.324 12.878-16.812 32.04-32.358 43.346-14.82 10.78-37.544 11.512-54.94 8.738-35.168-5.606-49.808-26.992-69.36-54.124.994-4.804 1.892-9.622 2.772-14.45"/><path fill="#AB5E4C" d="M463.624 495.444c22.406.034 44.67-5.374 67.03-4.622 11.99 9.966 35.33 42.712 47.464 56.67-2.386 4.052-21.948 38.178-23.994 38.848-38.164-9.022-77.52-31.638-108.416-55.41 6.926-11.512 12.082-23.438 17.916-35.486"/><path fill="#AB5E4C" d="M602.102 560.124H658.7c7.764 10.26 18.388 28.422 24.096 40.324-33.412-1.302-66.312 1.256-99.304-6.93 3.798-9.56 12.324-25.216 18.61-33.394"/><path fill="#AB5E4C" d="M384.558 425.986c17.086 19.894 33.198 40.712 51.036 59.958-4.402 7.71-8.102 15.808-12.614 23.442-24.236-23.862-29.748-43.53-45.678-69.64z"/><path fill="#AB5E4C" d="M627.552 412.25c11.9-.366 23.868-.038 35.774 0 7.48 22.75 31.982 41.606 43.02 63.262-11.688 16.954-29.532 40.438-43.02 55.418-8.47.44-16.736.244-25.202 0-11.882.082-24.2.09-36.022-1.14-11.996-11.04-34.432-40.406-45.22-54.278 3.482-11.942 19.25-52.606 26.61-61.872 5.624-.694 11.542-.44 17.206-.562z"/><defs><linearGradient id="c" x1="230.33" x2="55.265" y1="277.579" y2="147.33" gradientUnits="userSpaceOnUse"><stop offset="0" stop-color="#43B1A2"/><stop offset="1" stop-color="#B9C4A0"/></linearGradient></defs><path fill="url(#c)" d="M122.799 241.906c-20.143 2.132-84.004-10.783-86.71-38.171-5.92-59.899 68.667-103.722 113.713-65.967 18.265 15.308 24.539 35.065 26.445 57.75.099 4.998-1.451 25.799-1.089 27.146.132 20.889 32.29 51.406 50.019 63.19-16.046 6.599-38.806 1.293-54.481-5.058-8.567-2.644-26.434-15.397-32.664-21.952-4.451-2.891-12.226-12.363-15.233-16.938" transform="scale(2)"/><path fill="#FEFEFE" d="M197.51 297.79c15.566-.96 28.944 10.914 29.842 26.482s-11.028 28.9-26.6 29.736c-15.485.832-28.727-11.014-29.62-26.496-.892-15.48 10.901-28.77 26.379-29.722"/><path fill="#603F3C" d="M196.123 308.126c10.679-1.976 20.935 5.09 22.895 15.772 1.962 10.682-5.118 20.928-15.804 22.872-10.663 1.94-20.883-5.122-22.839-15.782s5.091-20.89 15.748-22.862"/><path fill="#FEFEFE" d="M196.82 307.89c5.954-.216 9.034 3.332 3.366 7.732-6.026-.142-7.355-3.78-3.366-7.732"/><path fill="#5D69A4" d="M200.186 389.52c5.852-.332 11.99 3.624 10.54 10.336-1.414 6.554-10.356 12.732-15.698 16.098-23.308 14.692-50.243 19.154-77.105 13.006-5.527-1.384-13.724-7.154-10.952-13.862 4.437-10.742 49.077 7.68 80.203-16.01 4.15-3.158 8.271-7.398 13.012-9.568"/><path fill="#77BB9F" d="M715.338 628.182c6.548-1.8 13.474-2.522 20.182-3.52 4.742 2.662 10.442 1.818 15.63 2.69 22.218 3.728 32.396 26.664 38.082 46.002 4.572 12.406 8.97 26.368 16.254 37.458 9.096 13.85 36.642 26.358 27.4 46.964-10.89 24.282-58.74 16.328-76.786 7.546-32.29-15.71-56.036-44.07-64.06-78.954-5.902-25.586-.16-45.246 23.298-58.186"/><defs><linearGradient id="d" x1="187.697" x2="138.34" y1="306.875" y2="346.586" gradientUnits="userSpaceOnUse"><stop offset="0" stop-color="#5F7D6E"/><stop offset="1" stop-color="#79A491"/></linearGradient></defs><path fill="url(#d)" d="M170.696 284.846c7.681 18.502 10.332 25.003 26.952 38.787-1.173.941-2.649 1.663-3.95 2.428-20.286 11.946-12.845 25.707-23.89 32.125-10.842 6.3-23.51 1.821-29.477-8.685-12.719-22.395 11.738-54.283 30.365-64.655" transform="scale(2)"/></svg>