<!-- created by svgstack.com | Attribution is required. --><svg xmlns="http://www.w3.org/2000/svg" width="1024" height="1024"><path fill="#303030" d="M456.498 309.53c88.496-.82 175.282 29.004 226.42 105.768 6.904 10.362 11.984 21.278 17.806 32.23 26.304-8.796 27.478-31.18 41.27-52.242 36.67-56.004 128.752-75.622 169.462-15.664 30.282 44.602-8.282 91.648-45.462 116.596-47.534 31.896-109.21 42.664-165.27 31.586-8.01 10.846-17.456 19.232-27.264 28.3 26.006 25.412 48.574 63.616 46.02 100.886-1.216 17.746-11.736 38.42-32.446 36.326-25.704-2.6-35.71-41.624-51.312-59.508-9.692-13.54-27.166-27.008-41.856-34.488-88.766 28.834-151.948 27.076-239.496 7.548.084 30.57-10.952 86.924-40.072 102.622-14.978 8.076-26.914-3.07-33.8-16.024-15.118-28.438-14.286-73.52-4.978-103.954-38.36 11.53-83.083 4.144-119.097-12.192-9.458-4.29-60.883-32.784-53.524-45.798 2.562-4.53 7.836-3.024 12.017-2.154 37.723 7.848 64.38 3.344 101.396-8.41-2-43.82 15.752-85.462 43-119.314 51.598-64.104 120.042-83.832 197.186-92.114"/><path fill="#1D9B6B" d="M403.242 424.68c17.99 12.686 46.748 28.142 61.246 41.354-1.992 22.052-3.186 44.174-5.488 66.2-1.416 15.614 12.206 21.26 14.34 0 1.278-22.042 3.492-44.2 5.456-66.2 8.276-5.826 18.706-10.134 27.786-14.588l42.966-21.298 79.036 54.166c20.482 12.796 20.774-2.178 10.932-9.424 10.912-8.116 22.1-22.936 31.262-33.168 8.818 16.606 22.37 43.25 16.692 62.246-6.116 20.462-46.428 46.422-64.956 56.186-84.708 44.638-186.66 46.732-276.882 18.706-36.21-11.246-82.782-37.334-105.668-66.42.592-27.048 8.484-39.156 16.404-62.046l.874-.68c11.112 1.622 49.388 17.192 62.012 22.188.286 10.89 3.352 22.238 6.088 32.78 2.676 14.772 13.226 21.852 15.68 7.758-3.784-13.276-4.66-27.216-8.796-40.538 17.606-13.056 52.272-36.98 71.016-47.222"/><path fill="#38B093" d="M403.242 424.68c17.99 12.686 46.748 28.142 61.246 41.354-1.992 22.052-3.186 44.174-5.488 66.2-34.41-2.192-58.288-4.928-92.212-12.632-8.442-1.918-16.536-5.144-24.986-6.994l-.78-.168c-3.784-13.276-4.66-27.216-8.796-40.538 17.606-13.056 52.272-36.98 71.016-47.222"/><path fill="#38B093" d="m549.548 430.148 79.036 54.166c-40.42 30.248-106.294 46.104-155.244 47.92 1.278-22.042 3.492-44.2 5.456-66.2 8.276-5.826 18.706-10.134 27.786-14.588z"/><path fill="#38B093" d="m256.368 450.394.874-.68c11.112 1.622 49.388 17.192 62.012 22.188.286 10.89 3.352 22.238 6.088 32.78-18.868-2.134-65.124-37.26-68.974-54.288"/><path fill="#81D49D" d="M829.912 357.078c30.77-5.164 72.604 15.222 78.274 48.146 10.23 59.396-76.88 102.164-128.238 110.642-24.998 3.372-46.334 1.026-71.108 0 6.688-22.922 3.554-33.292-2.892-55.432 28.654-14.83 25.09-17.834 39.694-45.178 16.752-31.362 47.384-57.182 84.27-58.178"/><path fill="#303030" d="M835.892 386.862c8.96-1.578 17.508 4.388 19.116 13.344 1.608 8.954-4.33 17.522-13.28 19.16-8.99 1.646-17.608-4.328-19.224-13.324s4.386-17.594 13.388-19.18"/><path fill="#38B093" d="M461.532 334.42c31.276-3.052 70.916 5.792 99.856 16.06-4.302 17.452-11.044 50.496-17.344 65.752-5.412 3.816-11.97 6.688-17.874 9.678l-35.73 17.762c-6.298 3.23-12.612 6.818-19.206 9.388-20.38-13.282-40.878-26.522-60.876-40.378-4.892-18.41-7.014-48.85-10.292-69.188 15.98-6.452 43.848-8.848 61.466-9.074"/><path fill="#38B093" d="m385.908 346.558.23.178c1.446 3.054 8.854 58.32 9.722 65.946-19.928 16.716-54.556 31.95-70.518 47.752-8.366-4.134-26.854-12.186-35.968-12.906-7.94-4.436-16.532-7.246-25.044-10.374 22.544-43.07 77.364-75.622 121.578-90.596"/><path fill="#38B093" d="M574.518 355.548c39.182 15.168 74.602 51.372 96.26 86.174-9.162 10.232-20.35 25.052-31.262 33.168-26.658-17.018-53.82-40.328-80.806-55.344 4.734-21.462 11.004-42.546 15.808-63.998"/><path fill="#81D49D" d="M662.27 564.406c3.296.62 11.496 11.666 13.876 14.786 16.528 21.678 33.578 52.154 29.632 80.182-4.122 29.272-21.164 25.31-35 4.912-15.462-26.698-33.212-56.602-61.84-71.042 18.576-8.626 36.138-17.65 53.332-28.838"/><path fill="#81D49D" d="M292.692 581.468c12.632 9.17 33.382 15.756 48.33 20.868 2.186 28.486-6.09 60.682-21.768 84.444-10.576 14.444-19.682 16.638-27.876-2.304-13.974-32.298-11.624-70.784 1.314-103.008"/><path fill="#81D49D" d="M224.698 532.234c17.216 14.906 33.124 30.734 53.652 41.234-23.432 12.72-65.348 8.05-89.658 1.638-25.264-5.998-38.356-17.806-59.594-28.568 40.158-2.238 52.975.396 95.6-14.304"/></svg>