<svg xmlns="http://www.w3.org/2000/svg" xmlns:xlink="http://www.w3.org/1999/xlink" viewBox="0 0 500 500"><defs><clipPath id="freepik--clip-path--inject-6"><path d="M112,269.22c-1.15,1.14-18.78,62.45-25.68,74.71s-24.14,43.69-16.47,69S94,442.41,112,443.56s42.15-17.24,50.58-38.32,5.36-82,7.66-99.24-8.81-40.23-8.81-40.23Z" style="fill:none"></path></clipPath></defs><g id="freepik--background-complete--inject-6"><path d="M486.31,296.53l-1.18-.5-3.44-1.52c-3-1.31-7.49-3.29-13.31-5.66s-13-5.16-21.51-7.76c-4.26-1.31-8.87-2.54-13.81-3.64a141.67,141.67,0,0,0-15.8-2.43,121.75,121.75,0,0,0-36.46,2.52c-12.92,2.7-26.36,7.07-40.45,11.72-3.54,1.14-7.1,2.35-10.73,3.47l-5.48,1.71-5.57,1.61-2.82.8-2.85.73c-1.91.47-3.81,1-5.75,1.43-3.89.78-7.79,1.72-11.81,2.23l-3,.45c-.5.08-1,.16-1.51.22l-1.53.13-6.12.53c-2.06.12-4.13.07-6.2.11l-3.12,0-3.13-.19a132.43,132.43,0,0,1-25-4.18c-16.62-4.34-32.14-10.77-47.4-16a229.52,229.52,0,0,0-22.76-6.81,171.83,171.83,0,0,0-22.44-3.78,181.52,181.52,0,0,0-42,.76,185.72,185.72,0,0,0-35.62,8.6,178.57,178.57,0,0,0-27.63,12.29l-5.57,3.26-2.63,1.54c-.83.54-1.63,1.1-2.43,1.63l-4.53,3.07-2.12,1.43c-.66.49-1.29,1-1.91,1.48L22,310.9c-1.82,1.58-3.33,3-4.57,4.06l-2.81,2.49-1,.84.93-.87,2.78-2.54c1.23-1.11,2.73-2.5,4.54-4.1s4.1-3.22,6.57-5.16c.62-.48,1.24-1,1.91-1.49l2.11-1.44,4.53-3.09c.79-.54,1.59-1.1,2.42-1.64l2.63-1.56,5.57-3.28a175.92,175.92,0,0,1,27.65-12.38A185.12,185.12,0,0,1,111,272.05a181.82,181.82,0,0,1,42.12-.8,171.25,171.25,0,0,1,22.5,3.77,228,228,0,0,1,22.81,6.81c15.29,5.26,30.79,11.68,47.37,16A131.63,131.63,0,0,0,270.75,302l3.11.19,3.11,0c2.06,0,4.12,0,6.17-.11l6.1-.52,1.52-.13c.5,0,1-.14,1.5-.21l3-.46c4-.5,7.9-1.43,11.78-2.21,1.93-.44,3.83-1,5.74-1.43l2.84-.72,2.81-.8L324,294l5.47-1.71c3.63-1.11,7.19-2.32,10.73-3.45,14.1-4.64,27.56-9,40.51-11.69a121.77,121.77,0,0,1,36.58-2.47,141.78,141.78,0,0,1,15.84,2.48c4.95,1.11,9.56,2.35,13.82,3.68,8.54,2.64,15.69,5.48,21.5,7.86C480.05,293.5,486.31,296.53,486.31,296.53Z" style="fill:#f5f5f5"></path><path d="M230.47,243a3.36,3.36,0,0,1-.17.46l-.57,1.28c-.51,1.1-1.22,2.72-2,4.73a113.76,113.76,0,0,0-5.23,16.13,112.05,112.05,0,0,0-2.69,16.75c-.18,2.17-.29,3.93-.33,5.14,0,.56-.06,1-.08,1.4a1.54,1.54,0,0,1-.06.49,1.72,1.72,0,0,1,0-.49c0-.38,0-.84,0-1.4,0-1.22,0-3,.16-5.16a99,99,0,0,1,8-33c.88-2,1.64-3.59,2.21-4.67.26-.49.48-.9.65-1.24S230.45,243,230.47,243Z" style="fill:#f5f5f5"></path><path d="M246.69,268.43a5.81,5.81,0,0,1-1.07.68c-.71.4-1.71,1-2.93,1.8a52.46,52.46,0,0,0-15.83,16c-.78,1.22-1.38,2.24-1.77,2.95a6.41,6.41,0,0,1-.67,1.08,5.91,5.91,0,0,1,.49-1.18,34.22,34.22,0,0,1,1.64-3,47.22,47.22,0,0,1,15.94-16.1c1.26-.76,2.3-1.32,3-1.67A6.4,6.4,0,0,1,246.69,268.43Z" style="fill:#f5f5f5"></path><path d="M224.23,241.28c-1.59.9-2.75,2.84-2.14,4.56a1.62,1.62,0,0,0,1.13,1.14,2.14,2.14,0,0,0,1.49-.47,15.91,15.91,0,0,0,5.56-6.31C228.45,240.29,225.82,240.39,224.23,241.28Z" style="fill:#f5f5f5"></path><path d="M228.3,233.71c-1.23-1.35-3.38-2.05-4.92-1.07a1.66,1.66,0,0,0-.86,1.36,2.13,2.13,0,0,0,.79,1.34,15.88,15.88,0,0,0,7.39,4C230.21,237.6,229.53,235.06,228.3,233.71Z" style="fill:#f5f5f5"></path><path d="M235.2,246.68c.37,1.78-.33,3.94-2,4.61a1.65,1.65,0,0,1-1.61-.1,2.1,2.1,0,0,1-.62-1.43,15.78,15.78,0,0,1,1.09-8.34C233.17,242.85,234.83,244.89,235.2,246.68Z" style="fill:#f5f5f5"></path><path d="M238.61,238.81c1.82,0,3.76,1.2,4,3a1.65,1.65,0,0,1-.45,1.54,2.1,2.1,0,0,1-1.54.29,15.85,15.85,0,0,1-7.88-2.92C234.42,239.93,236.78,238.78,238.61,238.81Z" style="fill:#f5f5f5"></path><path d="M237.35,236c1.12-1.44,1.43-3.68.2-5a1.64,1.64,0,0,0-1.48-.62,2.08,2.08,0,0,0-1.19,1,15.87,15.87,0,0,0-2.68,8C233.85,238.57,236.23,237.46,237.35,236Z" style="fill:#f5f5f5"></path><circle cx="231.43" cy="240.43" r="0.63" style="fill:#f5f5f5"></circle><path d="M242.18,264.2c-1.81-.23-3.89.64-4.43,2.39a1.66,1.66,0,0,0,.23,1.59,2.12,2.12,0,0,0,1.48.51,16,16,0,0,0,8.22-1.76C246.16,265.91,244,264.43,242.18,264.2Z" style="fill:#f5f5f5"></path><path d="M250,260.54c-.18-1.82-1.5-3.66-3.31-3.79a1.65,1.65,0,0,0-1.5.58,2.06,2.06,0,0,0-.17,1.55,15.86,15.86,0,0,0,3.55,7.62C249.18,264.8,250.14,262.35,250,260.54Z" style="fill:#f5f5f5"></path><path d="M247.79,275.07c-.76,1.65-2.61,3-4.37,2.5a1.64,1.64,0,0,1-1.23-1,2.11,2.11,0,0,1,.35-1.52,15.78,15.78,0,0,1,5.84-6.05C248.44,270.78,248.55,273.41,247.79,275.07Z" style="fill:#f5f5f5"></path><path d="M255.21,270.77c1.44,1.11,2.31,3.2,1.47,4.82a1.67,1.67,0,0,1-1.29,1,2.09,2.09,0,0,1-1.4-.67,15.88,15.88,0,0,1-4.6-7C251.18,269.18,253.76,269.66,255.21,270.77Z" style="fill:#f5f5f5"></path><path d="M255.86,267.78c1.76-.5,3.34-2.11,3.16-3.92a1.66,1.66,0,0,0-.83-1.38,2.17,2.17,0,0,0-1.56.1,15.9,15.9,0,0,0-6.89,4.82C251.53,267.75,254.11,268.27,255.86,267.78Z" style="fill:#f5f5f5"></path><path d="M249,268.18a.64.64,0,1,1-.13-.89A.64.64,0,0,1,249,268.18Z" style="fill:#f5f5f5"></path><path d="M58.59,237a2.46,2.46,0,0,1,.26.42l.66,1.24c.57,1.08,1.32,2.67,2.2,4.67a100.3,100.3,0,0,1,5.4,16.16,100.23,100.23,0,0,1,2.55,16.84c.13,2.18.18,3.95.17,5.17,0,.56,0,1,0,1.4a1.72,1.72,0,0,1,0,.49,1.61,1.61,0,0,1-.06-.49c0-.38,0-.84-.08-1.4,0-1.21-.15-3-.33-5.14a112.05,112.05,0,0,0-2.69-16.75,112.66,112.66,0,0,0-5.23-16.14c-.83-2-1.53-3.62-2-4.72q-.33-.77-.57-1.29A1.53,1.53,0,0,1,58.59,237Z" style="fill:#f5f5f5"></path><path d="M42.36,262.45a6.4,6.4,0,0,1,1.16.5,32.1,32.1,0,0,1,3,1.67A47.08,47.08,0,0,1,62.5,280.71a34.13,34.13,0,0,1,1.64,3.05,6,6,0,0,1,.49,1.17,6,6,0,0,1-.67-1.07c-.39-.72-1-1.73-1.77-2.95a53.61,53.61,0,0,0-7-8.85,53.58,53.58,0,0,0-8.78-7.13c-1.22-.79-2.22-1.4-2.93-1.8A5.81,5.81,0,0,1,42.36,262.45Z" style="fill:#f5f5f5"></path><path d="M64.82,235.3c1.59.89,2.75,2.84,2.14,4.56A1.66,1.66,0,0,1,65.83,241a2.14,2.14,0,0,1-1.49-.47,15.91,15.91,0,0,1-5.56-6.31C60.61,234.3,63.23,234.4,64.82,235.3Z" style="fill:#f5f5f5"></path><path d="M60.75,227.73c1.23-1.35,3.38-2,4.92-1.07a1.65,1.65,0,0,1,.86,1.35,2.13,2.13,0,0,1-.79,1.35,15.82,15.82,0,0,1-7.39,4C58.84,231.62,59.52,229.08,60.75,227.73Z" style="fill:#f5f5f5"></path><path d="M53.85,240.7c-.37,1.78.33,3.93,2,4.61a1.7,1.7,0,0,0,1.61-.1,2.1,2.1,0,0,0,.62-1.43A15.77,15.77,0,0,0,57,235.44C55.88,236.87,54.22,238.91,53.85,240.7Z" style="fill:#f5f5f5"></path><path d="M50.45,232.83c-1.83,0-3.77,1.19-4.05,3a1.65,1.65,0,0,0,.46,1.55,2.17,2.17,0,0,0,1.53.29,15.82,15.82,0,0,0,7.88-2.92C54.63,234,52.27,232.79,50.45,232.83Z" style="fill:#f5f5f5"></path><path d="M51.7,230c-1.11-1.44-1.43-3.68-.2-5a1.66,1.66,0,0,1,1.49-.61,2.12,2.12,0,0,1,1.18,1,15.81,15.81,0,0,1,2.68,8C55.2,232.59,52.82,231.48,51.7,230Z" style="fill:#f5f5f5"></path><path d="M57,234.45a.63.63,0,1,0,1.26,0,.63.63,0,1,0-1.26,0Z" style="fill:#f5f5f5"></path><path d="M46.87,258.22c1.81-.23,3.9.64,4.43,2.38a1.66,1.66,0,0,1-.23,1.6,2.1,2.1,0,0,1-1.47.5,15.78,15.78,0,0,1-8.23-1.76C42.89,259.93,45.06,258.44,46.87,258.22Z" style="fill:#f5f5f5"></path><path d="M39.09,254.56c.18-1.82,1.5-3.66,3.32-3.79a1.64,1.64,0,0,1,1.5.58,2.11,2.11,0,0,1,.16,1.55,15.86,15.86,0,0,1-3.55,7.62C39.87,258.82,38.91,256.37,39.09,254.56Z" style="fill:#f5f5f5"></path><path d="M41.26,269.08c.77,1.66,2.61,3,4.37,2.51a1.68,1.68,0,0,0,1.23-1,2.11,2.11,0,0,0-.35-1.52,15.83,15.83,0,0,0-5.83-6C40.61,264.8,40.5,267.43,41.26,269.08Z" style="fill:#f5f5f5"></path><path d="M33.84,264.79c-1.44,1.11-2.31,3.2-1.46,4.81a1.65,1.65,0,0,0,1.28,1,2.1,2.1,0,0,0,1.4-.68,15.77,15.77,0,0,0,4.6-7C37.87,263.2,35.29,263.67,33.84,264.79Z" style="fill:#f5f5f5"></path><path d="M33.19,261.79c-1.75-.49-3.34-2.1-3.16-3.92a1.67,1.67,0,0,1,.83-1.38,2.12,2.12,0,0,1,1.56.11,15.84,15.84,0,0,1,6.89,4.82C37.52,261.76,35,262.29,33.19,261.79Z" style="fill:#f5f5f5"></path><path d="M40.06,262.2a.64.64,0,1,0,1-.76.62.62,0,0,0-.88-.13A.64.64,0,0,0,40.06,262.2Z" style="fill:#f5f5f5"></path><path d="M423.79,228.76a1.82,1.82,0,0,1-.17.46q-.22.53-.57,1.29c-.51,1.1-1.22,2.71-2,4.72a109.8,109.8,0,0,0-7.93,32.89c-.18,2.17-.28,3.93-.33,5.14,0,.56-.06,1-.08,1.4a1.61,1.61,0,0,1-.06.49,1.72,1.72,0,0,1,0-.49c0-.38,0-.84,0-1.4,0-1.22,0-3,.17-5.17a99,99,0,0,1,7.95-33c.87-2,1.63-3.59,2.2-4.67.26-.5.48-.9.66-1.24S423.77,228.75,423.79,228.76Z" style="fill:#f5f5f5"></path><path d="M439.6,252.39a6,6,0,0,1-1.08.68c-.7.4-1.71,1-2.93,1.8a52.46,52.46,0,0,0-15.83,16c-.77,1.22-1.38,2.24-1.77,2.95a6.41,6.41,0,0,1-.67,1.08,6.58,6.58,0,0,1,.49-1.17c.34-.75.9-1.79,1.64-3a47.13,47.13,0,0,1,15.95-16.1c1.25-.76,2.29-1.32,3-1.67A6.28,6.28,0,0,1,439.6,252.39Z" style="fill:#f5f5f5"></path><path d="M417.55,227c-1.59.89-2.75,2.84-2.14,4.56a1.66,1.66,0,0,0,1.13,1.14,2.13,2.13,0,0,0,1.49-.47,15.83,15.83,0,0,0,5.56-6.31C421.77,226.05,419.14,226.14,417.55,227Z" style="fill:#f5f5f5"></path><path d="M421.62,219.47c-1.22-1.35-3.37-2.05-4.92-1.07a1.65,1.65,0,0,0-.86,1.35,2.13,2.13,0,0,0,.79,1.35,15.86,15.86,0,0,0,7.39,4C423.53,223.36,422.85,220.82,421.62,219.47Z" style="fill:#f5f5f5"></path><path d="M428.52,232.44c.37,1.78-.32,3.93-2,4.61a1.68,1.68,0,0,1-1.6-.1,2.15,2.15,0,0,1-.63-1.43,16,16,0,0,1,1.09-8.34C426.5,228.61,428.15,230.65,428.52,232.44Z" style="fill:#f5f5f5"></path><path d="M431.93,224.57c1.82,0,3.76,1.19,4,3a1.66,1.66,0,0,1-.45,1.54,2.18,2.18,0,0,1-1.53.29,15.85,15.85,0,0,1-7.89-2.92C427.74,225.69,430.1,224.53,431.93,224.57Z" style="fill:#f5f5f5"></path><path d="M430.67,221.77c1.12-1.44,1.43-3.68.21-5a1.66,1.66,0,0,0-1.49-.61,2.13,2.13,0,0,0-1.19,1,15.8,15.8,0,0,0-2.67,8C427.17,224.33,429.55,223.22,430.67,221.77Z" style="fill:#f5f5f5"></path><path d="M425.39,226.19a.64.64,0,0,1-.64.63.63.63,0,0,1-.63-.63.64.64,0,0,1,.63-.64A.64.64,0,0,1,425.39,226.19Z" style="fill:#f5f5f5"></path><path d="M435.08,248.16c-1.8-.23-3.89.64-4.43,2.39a1.66,1.66,0,0,0,.23,1.59,2.12,2.12,0,0,0,1.48.51,15.86,15.86,0,0,0,8.22-1.76C439.06,249.87,436.89,248.39,435.08,248.16Z" style="fill:#f5f5f5"></path><path d="M442.86,244.5c-.18-1.81-1.49-3.66-3.31-3.79a1.65,1.65,0,0,0-1.5.58,2.06,2.06,0,0,0-.17,1.55,15.82,15.82,0,0,0,3.55,7.62C442.08,248.76,443,246.31,442.86,244.5Z" style="fill:#f5f5f5"></path><path d="M440.69,259c-.76,1.65-2.6,3-4.37,2.5a1.64,1.64,0,0,1-1.23-1,2.16,2.16,0,0,1,.35-1.52,15.78,15.78,0,0,1,5.84-6.05C441.34,254.74,441.45,257.37,440.69,259Z" style="fill:#f5f5f5"></path><path d="M448.11,254.73c1.44,1.11,2.32,3.2,1.47,4.82a1.65,1.65,0,0,1-1.29,1,2.09,2.09,0,0,1-1.4-.67,15.88,15.88,0,0,1-4.6-7C444.08,253.14,446.67,253.62,448.11,254.73Z" style="fill:#f5f5f5"></path><path d="M448.76,251.74c1.76-.5,3.34-2.11,3.16-3.92a1.66,1.66,0,0,0-.83-1.38,2.17,2.17,0,0,0-1.56.1,15.9,15.9,0,0,0-6.89,4.82C444.43,251.71,447,252.23,448.76,251.74Z" style="fill:#f5f5f5"></path><path d="M441.89,252.14a.64.64,0,0,1-.89.13.64.64,0,0,1,.76-1A.64.64,0,0,1,441.89,252.14Z" style="fill:#f5f5f5"></path><path d="M386.8,251.87a6,6,0,0,1,1.17.51,34.08,34.08,0,0,1,3,1.66A47.37,47.37,0,0,1,407,270.14a32.27,32.27,0,0,1,1.63,3.05,6.28,6.28,0,0,1,.5,1.17,5.7,5.7,0,0,1-.67-1.08c-.4-.71-1-1.72-1.78-2.95a52.76,52.76,0,0,0-15.83-16c-1.21-.79-2.22-1.4-2.93-1.8A5.07,5.07,0,0,1,386.8,251.87Z" style="fill:#f5f5f5"></path><path d="M391.31,247.64c1.81-.22,3.9.65,4.43,2.39a1.63,1.63,0,0,1-.23,1.59,2.07,2.07,0,0,1-1.47.51,15.84,15.84,0,0,1-8.22-1.76C387.33,249.35,389.5,247.87,391.31,247.64Z" style="fill:#f5f5f5"></path><path d="M383.53,244c.19-1.81,1.5-3.65,3.32-3.79a1.66,1.66,0,0,1,1.5.58,2.17,2.17,0,0,1,.17,1.55A15.9,15.9,0,0,1,385,250C384.31,248.24,383.35,245.8,383.53,244Z" style="fill:#f5f5f5"></path><path d="M385.71,258.51c.76,1.66,2.6,3,4.36,2.5a1.63,1.63,0,0,0,1.23-1,2.09,2.09,0,0,0-.34-1.52,16,16,0,0,0-5.84-6.06C385.06,254.23,384.94,256.85,385.71,258.51Z" style="fill:#f5f5f5"></path><path d="M378.29,254.21c-1.45,1.12-2.32,3.2-1.47,4.82a1.65,1.65,0,0,0,1.28,1,2.15,2.15,0,0,0,1.41-.68,15.88,15.88,0,0,0,4.6-7C382.32,252.62,379.73,253.1,378.29,254.21Z" style="fill:#f5f5f5"></path><path d="M377.63,251.22c-1.75-.49-3.34-2.11-3.15-3.92a1.64,1.64,0,0,1,.83-1.38,2.1,2.1,0,0,1,1.55.11,15.85,15.85,0,0,1,6.9,4.81C382,251.19,379.39,251.71,377.63,251.22Z" style="fill:#f5f5f5"></path><path d="M384.51,251.62a.63.63,0,0,0,.88.13.62.62,0,0,0,.14-.88.64.64,0,0,0-.89-.13A.62.62,0,0,0,384.51,251.62Z" style="fill:#f5f5f5"></path><path d="M356.63,104.07c-2.09-4.77-4.23-9.6-7.75-13.71a22.81,22.81,0,0,0-14.58-8.09c-5.92-.62-12.48,2.11-14.41,6.92-.85-10.84-2.66-22-9-31.39s-18.25-16.82-31-16.16c-12,.63-22.27,8.23-28,17.25s-7.66,19.37-9.54,29.5c-4.55-4.76-14.15-3.27-18.9,1.35s-5.94,11.07-6.95,17.15H358.68Z" style="fill:#f5f5f5"></path><path d="M155.28,87.34c-1.43-3.25-2.88-6.55-5.29-9.36a15.57,15.57,0,0,0-10-5.53c-4.05-.42-8.53,1.44-9.85,4.73-.58-7.41-1.81-15-6.16-21.45s-12.47-11.49-21.16-11c-8.2.43-15.22,5.62-19.12,11.79S78.5,69.71,77.22,76.63c-3.11-3.25-9.67-2.23-12.91.93s-4.06,7.56-4.75,11.71h97.13Z" style="fill:#f5f5f5"></path><path d="M208.31,139.14a21,21,0,0,0-3.06-5.41,9,9,0,0,0-5.75-3.19c-2.34-.25-4.93.83-5.69,2.73-.34-4.28-1.05-8.68-3.56-12.4a13.56,13.56,0,0,0-23.28.44c-2.25,3.56-3,7.64-3.76,11.64-1.8-1.88-5.59-1.29-7.46.53s-2.35,4.37-2.75,6.77h56.12Z" style="fill:#fafafa"></path><path d="M441.92,63.55a20.71,20.71,0,0,0-3.05-5.41A9,9,0,0,0,433.11,55c-2.34-.25-4.93.83-5.69,2.73-.34-4.28-1.05-8.68-3.56-12.4a13.55,13.55,0,0,0-23.27.44c-2.26,3.56-3,7.64-3.77,11.64-1.8-1.88-5.59-1.29-7.46.54s-2.35,4.37-2.75,6.76h56.12Z" style="fill:#ebebeb"></path><path d="M220.32,53.52a21,21,0,0,0-3.06-5.41,9,9,0,0,0-5.76-3.2c-2.34-.24-4.93.84-5.69,2.74-.33-4.29-1.05-8.68-3.56-12.4a13.55,13.55,0,0,0-23.27.43c-2.26,3.56-3,7.65-3.77,11.65-1.79-1.88-5.59-1.29-7.46.53s-2.35,4.37-2.75,6.77h56.13Z" style="fill:#fafafa"></path><path d="M348.75,192a20.87,20.87,0,0,0-3.06-5.41,9,9,0,0,0-5.76-3.2c-2.33-.24-4.92.83-5.68,2.73-.34-4.28-1.05-8.67-3.56-12.39a13.55,13.55,0,0,0-23.28.43c-2.25,3.56-3,7.65-3.76,11.65-1.8-1.88-5.59-1.29-7.46.53s-2.35,4.37-2.75,6.77h56.12Z" style="fill:#fafafa"></path><path d="M454.84,157.16a35.4,35.4,0,0,0-5.15-9.12,15.14,15.14,0,0,0-9.7-5.38c-3.93-.41-8.3,1.41-9.58,4.61-.56-7.22-1.76-14.62-6-20.88s-12.13-11.19-20.59-10.75c-8,.42-14.81,5.47-18.61,11.47s-5.1,12.89-6.34,19.62c-3-3.17-9.41-2.17-12.57.9s-4,7.36-4.63,11.4h94.54Z" style="fill:#f5f5f5"></path></g><g id="freepik--Floor--inject-6"><path d="M477.6,462.2c0,.15-101.91.26-227.59.26S22.4,462.35,22.4,462.2s101.89-.26,227.61-.26S477.6,462.06,477.6,462.2Z" style="fill:#263238"></path></g><g id="freepik--Plants--inject-6"><path d="M217.39,451.26a20.45,20.45,0,0,1,2.56,5.39,20.92,20.92,0,0,1,1.43,5.8c-.15,0-.81-2.55-1.92-5.63S217.25,451.33,217.39,451.26Z" style="fill:#263238"></path><path d="M227.06,435.38c.08,0-.07,1.51-.24,3.93s-.34,5.78-.31,9.49.25,7.05.47,9.47a37.24,37.24,0,0,1,.31,3.93,4.3,4.3,0,0,1-.24-1c-.13-.67-.28-1.65-.44-2.86a84.1,84.1,0,0,1-.16-19c.13-1.21.27-2.19.38-2.86A4.73,4.73,0,0,1,227.06,435.38Z" style="fill:#263238"></path><path d="M240.34,446.74a13.79,13.79,0,0,1-1,2.26c-.64,1.38-1.49,3.3-2.3,5.47s-1.41,4.17-1.82,5.64a15.49,15.49,0,0,1-.72,2.36,9.48,9.48,0,0,1,.36-2.45A44.61,44.61,0,0,1,239,448.84,9.71,9.71,0,0,1,240.34,446.74Z" style="fill:#263238"></path><path d="M440.67,450.34c.16,0,.45,2.75,1.22,6.09s1.69,6,1.54,6a28.39,28.39,0,0,1-2.76-12.1Z" style="fill:#263238"></path><path d="M449.12,441.66a22.42,22.42,0,0,1-.53,3c-.35,1.81-.78,4.33-1,7.14s-.36,5.36-.37,7.21a22.1,22.1,0,0,1-.06,3,14.71,14.71,0,0,1-.31-3,52.77,52.77,0,0,1,.22-7.26,51.51,51.51,0,0,1,1.21-7.17A14.23,14.23,0,0,1,449.12,441.66Z" style="fill:#263238"></path><path d="M458.77,449.36c.13.1-1.73,2.67-3.44,6.16s-2.62,6.52-2.78,6.48a7.11,7.11,0,0,1,.46-2,32.49,32.49,0,0,1,4.42-9A6.75,6.75,0,0,1,458.77,449.36Z" style="fill:#263238"></path><path d="M36.06,451.15a17.86,17.86,0,0,1,3.7,5.14,18.07,18.07,0,0,1,2.18,5.94c-.15,0-1-2.64-2.64-5.7S35.94,451.25,36.06,451.15Z" style="fill:#263238"></path><path d="M45.21,443.33a91.45,91.45,0,0,1,.53,9.67,92.87,92.87,0,0,1,0,9.68,86.73,86.73,0,0,1-.54-9.67A91.07,91.07,0,0,1,45.21,443.33Z" style="fill:#263238"></path></g><g id="freepik--rabbit-2--inject-6"><path d="M347.63,264.05c-3.3-5.75-11-7.89-17.43-6.25s-12,6.11-15.77,11.53c-2.42,3.44-7.3,12.6-11.06,18.07-11.49,16.73-15.56,23.48-30.13,24.77l38.1,12.4c12.52-8.92,31.7-29,36.39-43.63C349.5,275.41,350.52,269.08,347.63,264.05Z" style="fill:#FF725E"></path><g style="opacity:0.30000000000000004"><path d="M347.63,264.05c-3.3-5.75-11-7.89-17.43-6.25s-12,6.11-15.77,11.53c-2.42,3.44-7.3,12.6-11.06,18.07-11.49,16.73-15.56,23.48-30.13,24.77l38.1,12.4c12.52-8.92,31.7-29,36.39-43.63C349.5,275.41,350.52,269.08,347.63,264.05Z"></path></g><path d="M324.9,461.29c-1,.17-27.58,0-27.58,0s-.88-16,14.93-17.22h22.31s-13.17-9.51-7-20.66,65.35,9.94,65.35,9.94l-10.89,28Z" style="fill:#FF725E"></path><path d="M324.9,461.29c-1,.17-27.58,0-27.58,0s-.88-16,14.93-17.22h22.31s-13.17-9.51-7-20.66,65.35,9.94,65.35,9.94l-10.89,28Z" style="opacity:0.30000000000000004"></path><path d="M316.71,415.34c.88,1,12.6,7.72,20,16.45s22.67,13.94,41.31,14.62,30.74-.84,35.1-5.38,24.86-73.22-16.79-96.9-69.05-8.52-80.8-7.85a58.93,58.93,0,0,1-20.31-2.23l-9.6,57.46Z" style="fill:#FF725E"></path><path d="M296.11,383c1.22-.37,28.92,4.79,42.9,13s19.67,47.85,19.67,47.85a29.08,29.08,0,0,1-18.16-7.07c-8.53-7.34-56-46.1-56-46.1Z" style="fill:#ffbf9d"></path><path d="M281.74,316.25a139.06,139.06,0,0,0,45.79-17.8c6.29-3.85,12.3-8.21,18.91-11.49s14-5.47,21.34-4.57,14.49,5.35,17.17,12.23c2.22,5.71,1.1,12.33-1.84,17.7s-7.55,9.65-12.42,13.36c-10.48,8-19.27,8.91-32.29,10.86s-30.27,4.76-41.59-2" style="fill:#FF725E"></path><path d="M281.74,316.25a139.06,139.06,0,0,0,45.79-17.8c6.29-3.85,12.3-8.21,18.91-11.49s14-5.47,21.34-4.57,14.49,5.35,17.17,12.23c2.22,5.71,1.1,12.33-1.84,17.7s-7.55,9.65-12.42,13.36c-10.48,8-25.95,10.85-39.06,12-15,1.3-34.57-3.1-34.82-3.1" style="fill:#FF725E"></path><path d="M296.81,334.57s.2,0,.59.09l1.7.31c1.5.27,3.72.66,6.58,1.09s6.37.9,10.47,1.25a93.66,93.66,0,0,0,13.94.27,127.89,127.89,0,0,0,16.74-2.29A69.15,69.15,0,0,0,365.07,329a47.74,47.74,0,0,0,8.57-6,43.15,43.15,0,0,0,7.44-7.92,25.54,25.54,0,0,0,4.43-10.25,21,21,0,0,0,.25-5.71,17.48,17.48,0,0,0-1.56-5.56,18.94,18.94,0,0,0-7.95-8.12,23.79,23.79,0,0,0-10.74-3,33.48,33.48,0,0,0-10.74,1.45,53,53,0,0,0-9.66,4c-6,3.19-11.36,7-16.55,10.16a140.92,140.92,0,0,1-14.94,8,139,139,0,0,1-23.09,8.24c-2.81.71-5,1.2-6.51,1.49l-1.7.33c-.38.07-.58.09-.58.09s.19-.06.57-.14l1.69-.38c1.49-.33,3.68-.85,6.47-1.59a142.86,142.86,0,0,0,23-8.38,140.7,140.7,0,0,0,14.86-8.06c5.17-3.2,10.48-7,16.56-10.21a53.06,53.06,0,0,1,9.74-4.05,34.36,34.36,0,0,1,10.9-1.48,24.32,24.32,0,0,1,11,3,19.36,19.36,0,0,1,8.16,8.35,17.3,17.3,0,0,1,1.61,5.72,21.35,21.35,0,0,1-.25,5.87,26.17,26.17,0,0,1-4.52,10.44,43.93,43.93,0,0,1-7.54,8,48.41,48.41,0,0,1-8.66,6,69.09,69.09,0,0,1-18.38,6.32A126.84,126.84,0,0,1,330.11,338a94.83,94.83,0,0,1-14-.35c-4.1-.38-7.61-.88-10.47-1.34C299.93,335.33,296.81,334.57,296.81,334.57Z" style="fill:#263238"></path><g style="opacity:0.30000000000000004"><path d="M372,297.87c-15.19-5.27-30.83,2.37-42.56,8.92-12.28,6.85-15.7,10.1-26.95,18.3,16.5,3.52,28.28,3.74,44.61-.5,6.26-1.63,12.46-3.85,17.79-7.53s10.26-7.23,10.88-13.68C376,300.85,372,297.87,372,297.87Z"></path></g><path d="M309.58,356.24c.21.86-4,18.94-13.47,26.73s-30.46,15.91-40.92,13.66c-13.38-2.87-21.28-6.18-17.65-32.26s7.6-35.17,14.11-42.33c5.59-6.15,14.73-10.21,23.92-11.28s24.53,5.74,24.53,5.74l9.49,24.78Z" style="fill:#FF725E"></path><path d="M242.35,389.59c.52-.36,23.31-17.44,23.31-17.44s8.41-14.5,22.29-12.89S302.1,373.07,298.37,381s-26.3,15.19-35.75,15.69-13.71.94-18.05-3.37S242.35,389.59,242.35,389.59Z" style="fill:#ffbf9d"></path><path d="M240.71,390.21a9.75,9.75,0,0,1,9.2-5.52s2.24,10-1.64,9.81S240.71,390.21,240.71,390.21Z" style="fill:#263238"></path><path d="M265.94,383.5a2.62,2.62,0,0,1,.24.92,9.91,9.91,0,0,1,0,2.62,10.93,10.93,0,0,1-12.28,9.75,9.94,9.94,0,0,1-2.54-.64,2.68,2.68,0,0,1-.85-.44,19.64,19.64,0,0,0,3.43.71A10.92,10.92,0,0,0,265.85,387,19.49,19.49,0,0,0,265.94,383.5Z" style="fill:#263238"></path><path d="M280.2,375.83c.05.13-5.07,1.9-11.42,3.95s-11.53,3.59-11.57,3.45,5.06-1.9,11.41-4S280.16,375.69,280.2,375.83Z" style="fill:#fff"></path><path d="M254.66,360.77a11.14,11.14,0,1,0,12.77-9.23A11.14,11.14,0,0,0,254.66,360.77Z" style="fill:#fff"></path><path d="M272.81,370.72a10.67,10.67,0,0,0-18.25-9.05,11.12,11.12,0,0,0,18.16,9.47C272.75,371,272.79,370.86,272.81,370.72Z" style="fill:#263238"></path><path d="M249,346.28a21.08,21.08,0,0,1,20-5" style="fill:#FF725E"></path><path d="M269,341.31c0,.09-1.19-.23-3.11-.42a22.15,22.15,0,0,0-14.34,3.56c-1.61,1.06-2.49,1.9-2.55,1.83s.17-.25.56-.64a14,14,0,0,1,1.78-1.5,20.42,20.42,0,0,1,3-1.77,22.31,22.31,0,0,1,4-1.44,22.55,22.55,0,0,1,4.19-.59,19.17,19.17,0,0,1,3.45.18,14.21,14.21,0,0,1,2.27.49A2.77,2.77,0,0,1,269,341.31Z" style="fill:#263238"></path><path d="M273.17,385.5a43,43,0,0,1-6.58.8,41.07,41.07,0,0,1-6.62.28,43.23,43.23,0,0,1,6.58-.8A42.52,42.52,0,0,1,273.17,385.5Z" style="fill:#fff"></path><circle cx="436.74" cy="409.94" r="22.49" transform="translate(-148.46 537.77) rotate(-55.51)" style="fill:#FF725E"></circle><path d="M443.8,399.85a1.6,1.6,0,0,1,.37.24,8.06,8.06,0,0,1,1,.82,12.63,12.63,0,0,1,2.69,3.82,13.13,13.13,0,0,1,1.16,6.81,3.69,3.69,0,0,1-.24,1,1.8,1.8,0,0,1-.73.9,1.14,1.14,0,0,1-1.23-.13,7.14,7.14,0,0,1-.79-.75l-3-3.14-2.24-2.33.42-.28a7.66,7.66,0,0,1-1,7.67l-.26.33-.13-.4a36.68,36.68,0,0,0-3-7c-.45-.81-.82-1.43-1.08-1.85a2.94,2.94,0,0,1-.37-.67,3,3,0,0,1,.48.59c.3.4.71,1,1.2,1.8a33.42,33.42,0,0,1,3.21,7l-.39-.07a7.22,7.22,0,0,0,.84-7.18l-.6-1.33,1,1,2.25,2.33,3,3.15c.48.52,1,1.06,1.42.79a2,2,0,0,0,.72-1.53,13,13,0,0,0-1-6.61,13.57,13.57,0,0,0-2.5-3.83C444.25,400.26,443.77,399.89,443.8,399.85Z" style="fill:#263238"></path><path d="M355.84,361.91a13.17,13.17,0,0,1,1.41-.06,28,28,0,0,0,3.84-.41c.4-.07.82-.16,1.26-.26a2.29,2.29,0,0,0,1.16-.52.92.92,0,0,0,.09-1.15,3.55,3.55,0,0,0-1-1.14,13.76,13.76,0,0,0-6.34-3l.07-.51c.81.05,1.66.08,2.53.09a52.46,52.46,0,0,0,7.17-.38l-.11.44a19.07,19.07,0,0,0-9-3.34c-2.39-.24-3.81,0-3.81-.09a4.13,4.13,0,0,1,1-.17,16.67,16.67,0,0,1,2.84,0,18.65,18.65,0,0,1,9.27,3.24l.53.37-.64.08a51.67,51.67,0,0,1-7.24.41c-.87,0-1.74,0-2.55-.09l.06-.52a14,14,0,0,1,6.55,3.19,4.21,4.21,0,0,1,1.08,1.29,1.67,1.67,0,0,1,.19.86,1.3,1.3,0,0,1-.37.78,2.75,2.75,0,0,1-1.38.6c-.45.09-.88.17-1.28.23a22.63,22.63,0,0,1-3.9.26A6.18,6.18,0,0,1,355.84,361.91Z" style="fill:#263238"></path><path d="M388.73,378.28c-1.18-.14-38.12-3.84-42.25,34.27,0,0-3,22.81,16.25,34H327.57s-14.19.56-11.53,15.63c0,0,69.44.3,79.48-1.77s13.3-8.22,16.85-13.86S435.41,383.59,388.73,378.28Z" style="fill:#FF725E"></path><path d="M346.48,412.55s-3,22.81,16.25,34H327.57s-14.19.56-11.53,15.63c0,0,69.44.3,79.48-1.77s13.3-8.22,16.85-13.86c2-3.14,8.85-22.2,6.6-39.46" style="fill:#FF725E"></path><path d="M419,407.1s0,.21.08.62.12,1,.21,1.81a58.24,58.24,0,0,1,.21,7,86.13,86.13,0,0,1-4.82,25.21,40.42,40.42,0,0,1-1.57,3.88A15.87,15.87,0,0,1,412,447.5l-1.17,1.87a27.59,27.59,0,0,1-6,7.08,19.74,19.74,0,0,1-4.19,2.56,25.14,25.14,0,0,1-4.82,1.56c-.83.18-1.7.26-2.56.4s-1.72.15-2.6.23c-1.74.17-3.52.23-5.31.34-14.35.66-30.14.79-46.71.89l-22.64,0h-.22l0-.22a16.91,16.91,0,0,1,.43-8.16,6.56,6.56,0,0,1,.37-1l.48-.9.25-.44.31-.41.62-.8a12,12,0,0,1,3.15-2.45,14.55,14.55,0,0,1,3.66-1.4,17.77,17.77,0,0,1,1.91-.34,15.33,15.33,0,0,1,1.91-.05h7.4l26.45,0-.1.36A32,32,0,0,1,351,435a36.22,36.22,0,0,1-4.17-11.8,41,41,0,0,1-.59-7.91c0-.91.07-1.6.11-2.06s.1-.7.1-.7,0,.24,0,.7-.07,1.16-.06,2.06a43.26,43.26,0,0,0,.69,7.87,36.34,36.34,0,0,0,4.23,11.68,31.81,31.81,0,0,0,11.52,11.53l.62.36h-.71l-26.44,0h-7.4a14.5,14.5,0,0,0-1.87.05,14.85,14.85,0,0,0-1.84.34,14.06,14.06,0,0,0-3.54,1.35,11.44,11.44,0,0,0-3,2.35l-.59.77-.29.38-.23.43-.47.85a7.22,7.22,0,0,0-.34.92,16.34,16.34,0,0,0-.41,7.91l-.25-.22,22.64,0c16.56-.1,32.35-.22,46.69-.85,1.79-.11,3.56-.16,5.29-.33.87-.08,1.74-.12,2.59-.23s1.69-.2,2.52-.38a25.59,25.59,0,0,0,4.73-1.51,19.54,19.54,0,0,0,4.1-2.5,27,27,0,0,0,5.9-7q.6-.93,1.17-1.86a14.29,14.29,0,0,0,1.06-1.84c.62-1.27,1.1-2.58,1.58-3.84a87.71,87.71,0,0,0,5-25.1,64.65,64.65,0,0,0-.12-7c-.06-.79-.11-1.39-.15-1.82S419,407.1,419,407.1Z" style="fill:#263238"></path><path d="M330.47,450.57c0,.1-1.12,0-2.87.27A13.35,13.35,0,0,0,317.25,459c-.69,1.63-.84,2.74-.93,2.72a2.12,2.12,0,0,1,0-.78,10.82,10.82,0,0,1,.55-2.08,12.92,12.92,0,0,1,4.12-5.7,13.07,13.07,0,0,1,6.52-2.68,10.53,10.53,0,0,1,2.14,0A2.4,2.4,0,0,1,330.47,450.57Z" style="fill:#263238"></path><path d="M382.24,379s-.73,0-2.05.07a36.42,36.42,0,0,0-5.54.61,34.36,34.36,0,0,0-26.47,23,35.87,35.87,0,0,0-1.39,5.4c-.23,1.3-.32,2-.36,2a1.72,1.72,0,0,1,0-.54c0-.34,0-.86.15-1.52a30.91,30.91,0,0,1,1.24-5.48,33.84,33.84,0,0,1,26.75-23.2,30.77,30.77,0,0,1,5.61-.45c.66,0,1.17,0,1.52.06A2,2,0,0,1,382.24,379Z" style="fill:#263238"></path><g style="opacity:0.30000000000000004"><path d="M347.06,420.39c-3.87-3.84-3.55-10.18-2.11-15.44,2.42-8.76,7.38-17,14.74-22.3A28.29,28.29,0,0,1,385.24,379c-10.56-.55-21.1,2.3-28.65,9.7s-11.52,18.47-9.78,28.9"></path></g><circle cx="259.51" cy="404.51" r="10.39" style="fill:#6f4439"></circle><path d="M324.12,367.22c-4.71.8-7.52,3.2-11.05,8.24-2,2.82-6.11,8.12-9.36,12.24a13.54,13.54,0,0,1-11.78,5.08c-10.07-.86-27.47-2.19-30.42-1.36-3.63,1-7.88,3.79-7.23,7a4.68,4.68,0,0,1,.19,1.93c0,.48-.87,2.1.74,3.4,1.1.87,1.65.21,1.86,1.6.49,3.27,2.23,3.85,6.06,4.45,8.57,1.35,25.59,4.78,44.57,6.8s22.37-3.54,25.35-8.5c1.07-1.77,6.39-11.63,11.3-21.34,2.52-5,.71-12.53-3.71-15.93C336.88,368,331.65,365.94,324.12,367.22Z" style="fill:#FF725E"></path><path d="M344.35,386.77a4.62,4.62,0,0,1-.21.47l-.66,1.36c-.61,1.2-1.48,2.94-2.61,5.18s-2.57,5-4.24,8.13l-2.72,5c-.49.89-1,1.8-1.6,2.7a17.79,17.79,0,0,1-2,2.65,13.33,13.33,0,0,1-2.7,2.22,15.65,15.65,0,0,1-3.33,1.49,29.6,29.6,0,0,1-7.59,1.21,113.19,113.19,0,0,1-16.87-1.3c-5.91-.75-12.09-1.67-18.48-2.73l-19.77-3.39a9.18,9.18,0,0,1-2.51-.8,3.83,3.83,0,0,1-1.81-2,6.33,6.33,0,0,1-.36-1.27c-.09-.43-.12-.86-.31-1s-.71-.23-1.09-.47a3.55,3.55,0,0,1-1-.91,2.57,2.57,0,0,1-.48-1.28,4.09,4.09,0,0,1,.14-1.32l.08-.29a1.85,1.85,0,0,0,0-.27c0-.21,0-.41,0-.59,0-.35-.17-.77-.23-1.19a3.91,3.91,0,0,1,.46-2.54,7.21,7.21,0,0,1,1.62-1.93,14.36,14.36,0,0,1,4.25-2.4,11.77,11.77,0,0,1,1.15-.36,6.63,6.63,0,0,1,1.22-.17c.8-.08,1.58-.08,2.37-.09,3.12,0,6.17.16,9.15.33,5.94.35,11.58.8,16.86,1.26a13.78,13.78,0,0,0,7.39-1,13.44,13.44,0,0,0,5.38-4.3c2.75-3.56,5.23-6.78,7.41-9.62.55-.71,1.08-1.39,1.58-2.05s1-1.32,1.44-1.92a24.32,24.32,0,0,1,2.83-3.11,12.66,12.66,0,0,1,5-2.85,10.77,10.77,0,0,1,2-.42s-.16,0-.49.12a14.5,14.5,0,0,0-1.45.4,12.83,12.83,0,0,0-4.92,2.9,24.93,24.93,0,0,0-2.78,3.11c-.46.6-.92,1.26-1.4,1.93l-1.57,2.06-7.36,9.68a13.9,13.9,0,0,1-5.51,4.44,14.36,14.36,0,0,1-7.59,1.07c-5.27-.44-10.91-.88-16.85-1.21-3-.17-6-.32-9.12-.31-.78,0-1.56,0-2.33.08a8,8,0,0,0-1.12.16,11.22,11.22,0,0,0-1.12.36,13.48,13.48,0,0,0-4.09,2.31c-1.17,1-2.18,2.45-1.9,4,0,.4.19.77.23,1.25a4.68,4.68,0,0,1,0,.65,1.48,1.48,0,0,1,0,.34l-.08.32a2.45,2.45,0,0,0,.26,2.17,2.57,2.57,0,0,0,1.38,1,1.56,1.56,0,0,1,.67.32,2.48,2.48,0,0,1,.46,1.33,6.43,6.43,0,0,0,.33,1.16,3.32,3.32,0,0,0,1.57,1.71,9,9,0,0,0,2.37.75l19.75,3.39c6.39,1.07,12.56,2,18.46,2.76s11.52,1.49,16.79,1.34a29.12,29.12,0,0,0,7.49-1.15,13.25,13.25,0,0,0,5.88-3.58,16.63,16.63,0,0,0,2-2.59c.58-.89,1.11-1.78,1.61-2.67l2.75-5,4.32-8.09,2.7-5.13.7-1.33Z" style="fill:#263238"></path><path d="M265.89,401.45a30.75,30.75,0,0,0-4.95.53,7.17,7.17,0,0,0-3.1,1.43c-.66.58-.84,1.13-.92,1.1s0-.64.66-1.36a6.26,6.26,0,0,1,3.23-1.67A9,9,0,0,1,265.89,401.45Z" style="fill:#263238"></path><path d="M263.65,396.51a30.85,30.85,0,0,0-4.95.53,7.05,7.05,0,0,0-3.1,1.43c-.66.57-.83,1.13-.92,1.1s0-.65.66-1.37a6.45,6.45,0,0,1,3.24-1.67A9.05,9.05,0,0,1,263.65,396.51Z" style="fill:#263238"></path></g><g id="freepik--rabbit-1--inject-6"><path d="M71.75,395.65c-6.56-7-18.7-7.47-26.14-1.4s-9.53,17.57-5.24,26.16,14.28,13.77,23.85,12.92,18.28-7.34,22.38-16Z" style="fill:#ae7461"></path><path d="M54.81,416.26a1.38,1.38,0,0,1-.57-.27,4.11,4.11,0,0,1-1.72-4,4.36,4.36,0,0,1,1.95-2.93l.24.41L50,412.32l-1.23.73a2.4,2.4,0,0,1-1.43.52,1.07,1.07,0,0,1-.74-.42,1.93,1.93,0,0,1-.34-.69,5.27,5.27,0,0,1-.11-1.35,9.14,9.14,0,0,1,1.26-4.33,8.66,8.66,0,0,1,2-2.29,2.8,2.8,0,0,1,1-.58A11.24,11.24,0,0,0,47.72,407a9,9,0,0,0-1.1,4.15,4.83,4.83,0,0,0,.11,1.21c.11.38.33.71.65.73a2.13,2.13,0,0,0,1.12-.45l1.22-.74,4.75-2.82.25.41a3.94,3.94,0,0,0-1.8,2.59,3.84,3.84,0,0,0,.36,2.49A5.33,5.33,0,0,0,54.81,416.26Z" style="fill:#263238"></path><path d="M105.84,414.4l7.21,24.37,1.75,22.75,72.37.63s2.08-1.67,1.57-8.21c-.71-9-31.3-11-31.3-11a58.35,58.35,0,0,0,4.88-37.39,39.38,39.38,0,0,0-3.95-11c-15.41-28.11-59-13-52.84,18.47C105.63,413.45,105.73,413.92,105.84,414.4Z" style="fill:#6f4439"></path><path d="M179.93,462.05a6.36,6.36,0,0,0,1.26-3,6.54,6.54,0,0,0-.57-3.44,7.8,7.8,0,0,0-2.9-3.14,15.2,15.2,0,0,0-7.63-2,32.19,32.19,0,0,1-3.36-.15,3,3,0,0,1,.9-.13c.58,0,1.42-.09,2.46-.09a20.2,20.2,0,0,1,3.67.3A11.88,11.88,0,0,1,178,452a8.05,8.05,0,0,1,3.05,3.38,6.62,6.62,0,0,1,.5,3.69,5,5,0,0,1-1,2.31C180.22,461.89,179.94,462.07,179.93,462.05Z" style="fill:#263238"></path><path d="M196.14,360.54c-3.45-7.28-27.21-36.4-28.36-41.38s4.6-39.47-8.43-43.3L131,299.23s2.3,35.25,14.94,42.15a172.1,172.1,0,0,1,24.14,16.48s6.52,17.24,16.48,17.62S199.59,367.82,196.14,360.54Z" style="fill:#6f4439"></path><path d="M186.58,375.52c-.09,0,.1-.75.14-1.95a10.1,10.1,0,0,0-3.61-8.18c-.91-.78-1.58-1.13-1.54-1.21a4.35,4.35,0,0,1,1.77.92,9.32,9.32,0,0,1,3.75,8.5A4.48,4.48,0,0,1,186.58,375.52Z" style="fill:#263238"></path><path d="M193.81,372a8.13,8.13,0,0,1-.15-1.85,13.49,13.49,0,0,0-.85-4.29,7.34,7.34,0,0,0-2.68-3.33c-.94-.61-1.65-.73-1.63-.82a3,3,0,0,1,1.82.5,6.92,6.92,0,0,1,3,3.45,11.36,11.36,0,0,1,.74,4.48A5.54,5.54,0,0,1,193.81,372Z" style="fill:#263238"></path><path d="M112,269.22c-1.15,1.14-18.78,62.45-25.68,74.71s-23.41,43.48-16.47,69c6.8,25,24.14,29.5,42.15,30.65s42.15-17.24,50.58-38.32,5.36-82,7.66-99.24-8.81-40.23-8.81-40.23Z" style="fill:#ae7461"></path><g style="clip-path:url(#freepik--clip-path--inject-6)"><path d="M111.41,270.58s1.09,5.27,28.72,10c14.57,2.49,18.63,28.62,22.08,36.63s8.33,8.2,8.33,8.2l11-31.47-13.14-20.3Z" style="fill:#e0e0e0"></path></g><g style="opacity:0.30000000000000004"><path d="M154,446.54a8.25,8.25,0,0,0-2.69-3.56,18.39,18.39,0,0,0-15.67-3.75c4.62-8,9.34-16.34,10.4-25.54a34.74,34.74,0,0,0-13-30.87c-9.24-7.14-23-9.68-33.91-5.46l28.21,70.48a182.87,182.87,0,0,0,20.9,3.71c1.69.2,3.61.3,4.88-.82A4,4,0,0,0,154,446.54Z"></path></g><path d="M79.23,414.4l6.1,21.66,2.86,25.46,72.38.63s2.07-1.67,1.56-8.21c-.71-9-31.3-11-31.3-11s10.56-20.69,8.73-40.44A29.38,29.38,0,0,0,134.88,390c-8.48-12.09-26.08-15.77-38.66-11.78-13,4.12-20.76,16.39-17.3,34.74C79,413.45,79.12,413.92,79.23,414.4Z" style="fill:#ae7461"></path><path d="M90.67,381s.06-.07.2-.18l.62-.48a16.26,16.26,0,0,1,2.62-1.5A26.53,26.53,0,0,1,105,376.66a47.63,47.63,0,0,1,16.23,2.49,29.19,29.19,0,0,1,8.52,4.71,26.64,26.64,0,0,1,6.62,8.08,34.61,34.61,0,0,1,3.38,9.89,40.94,40.94,0,0,1,.61,9.72,64.46,64.46,0,0,1-3.23,16.11c-1.45,4.46-2.88,8-3.86,10.39l-1.16,2.78c-.12.29-.23.53-.31.72s-.12.24-.13.23a2.09,2.09,0,0,1,.08-.25l.27-.74c.25-.68.61-1.62,1.06-2.81.92-2.45,2.3-6,3.69-10.43a65,65,0,0,0,3.11-16,40.53,40.53,0,0,0-.64-9.6,34,34,0,0,0-3.33-9.73,26.3,26.3,0,0,0-6.48-7.94A29,29,0,0,0,121,379.6,48.35,48.35,0,0,0,105,377a27.23,27.23,0,0,0-10.77,2A22.67,22.67,0,0,0,90.67,381Z" style="fill:#263238"></path><path d="M120.27,461.8s5.81-18.13,21.56-17.57,20.12,7.49,20.3,9.71c.54,6.83-1.56,8.21-1.56,8.21Z" style="fill:#e0e0e0"></path><path d="M150.63,462.2c-.08-.05.68-1,1.38-2.74a8,8,0,0,0,.56-3.21,5.76,5.76,0,0,0-1.39-3.61,7,7,0,0,0-3.41-1.93,12.39,12.39,0,0,0-3.28-.33,30.6,30.6,0,0,1-3.1.11,3.22,3.22,0,0,1,.82-.2,21,21,0,0,1,2.26-.27,11.8,11.8,0,0,1,3.41.22,7.18,7.18,0,0,1,3.68,2.05,6.07,6.07,0,0,1,1.49,3.94,8,8,0,0,1-.7,3.37,9.56,9.56,0,0,1-1.16,2C150.87,462,150.65,462.22,150.63,462.2Z" style="fill:#263238"></path><path d="M80.71,416.24s.08.14.18.43.26.76.42,1.27c.36,1.1.84,2.71,1.38,4.71,1.1,4,2.42,9.58,3.47,15.82s1.63,11.95,1.9,16.09c.13,2.07.21,3.74.23,4.9,0,.53,0,1,0,1.34a1.38,1.38,0,0,1,0,.46,1.77,1.77,0,0,1-.08-.46c0-.36-.06-.8-.11-1.33-.1-1.24-.24-2.88-.4-4.88-.36-4.12-1-9.81-2-16s-2.3-11.81-3.3-15.82L81.12,418l-.33-1.29A3.13,3.13,0,0,1,80.71,416.24Z" style="fill:#263238"></path><path d="M106.78,360.58a2.48,2.48,0,0,1-.37-.75,9.92,9.92,0,0,1-.54-2.28,11,11,0,0,1,2-7.76l.35.35A31.69,31.69,0,0,1,103.9,353c-1,.53-2,1-3,1.42a2.65,2.65,0,0,1-1.7.19,1.34,1.34,0,0,1-.72-.58,1.94,1.94,0,0,1-.22-.82,10.4,10.4,0,0,1,3.93-7.68,4,4,0,0,1,1.1-.69,13.52,13.52,0,0,0-3.14,3.52,10,10,0,0,0-1.41,4.82,1,1,0,0,0,.61,1,2.18,2.18,0,0,0,1.36-.2,31.42,31.42,0,0,0,3-1.4,34.18,34.18,0,0,0,4.32-2.77l1.43-1.08-1.08,1.42a11,11,0,0,0-2.15,7.43A17.64,17.64,0,0,0,106.78,360.58Z" style="fill:#263238"></path><path d="M138.65,127.59c6-2.78,13.54,0,17.82,5s6.21,11.9,6.17,18.53c0,4.21-.79,14.54-1.46,21.13-2,20.09-7.93,34.61,3.2,44.1l-27.87-8.8c-5-14.52-12.39-51.62-7.73-66.27C130.53,135.76,133.38,130,138.65,127.59Z" style="fill:#6f4439"></path><path d="M145.79,214.3A139.36,139.36,0,0,1,129,168.11c-1.25-7.27-1.92-14.66-3.8-21.79s-5.12-14.15-10.62-19.07-13.57-7.39-20.5-4.87c-5.76,2.09-10,7.29-12.11,13s-2.3,12-1.88,18.15C81,166.7,89,180.23,96.82,190.85c8.93,12.18,21.05,25.32,21.22,25.51" style="fill:#ae7461"></path><g style="opacity:0.30000000000000004"><path d="M100.06,132.47c12.94,8.52,16.28,25,18.15,37.77,2,13.41,1.49,17.93,1.82,31.34-12.37-10.55-19.45-19.43-25.78-34.4-2.44-5.74-4.37-11.78-4.69-18s-.49-12.09,4.07-16.35C95.43,131.15,100.06,132.47,100.06,132.47Z"></path></g><path d="M111.41,270.58s-10.2-20-6.61-36.65,6.75-35.1,40.5-35.55,56.27,32.49,55.37,46S185,269.5,172.32,272.86,111.41,270.58,111.41,270.58Z" style="fill:#e0e0e0"></path><path d="M137.68,267c9-2.16,17.72-6.08,24.29-12.57,6.05-6,10-13.86,12.21-22.06s2.61-15.47,2.88-23.84c-8.8-6.12-19.36-11.35-31.69-11.19-34.24.46-37.44,19.18-41.09,36.07-3.1,14.3,3.46,31.29,6.9,36.72C120.23,269.61,128.87,269.1,137.68,267Z" style="fill:#ae7461"></path><path d="M200.69,242.56c.17-.13-5.39-2.35-10.26,2.17,0,0,5.19,10.09,8.2,7.36S200.69,242.56,200.69,242.56Z" style="fill:#FF725E"></path><path d="M177.44,253.73a19,19,0,0,0,2.37,2.78,11.43,11.43,0,0,0,15.86-.2,20.27,20.27,0,0,0,2.3-2.85,2.92,2.92,0,0,1-.4.92,10.66,10.66,0,0,1-1.64,2.19,11.42,11.42,0,0,1-16.37.21,10.06,10.06,0,0,1-1.7-2.14A3,3,0,0,1,177.44,253.73Z" style="fill:#263238"></path><path d="M161.92,258.06c0-.14,5.17-2.3,11.66-4.84s11.81-4.49,11.86-4.36-5.17,2.3-11.67,4.84S162,258.19,161.92,258.06Z" style="fill:#fff"></path><circle cx="164.92" cy="237.69" r="11.64" transform="translate(-21.21 16.21) rotate(-5.29)" style="fill:#fff"></circle><path d="M176,234.22l-.25-.24a11.15,11.15,0,0,0-17.36,13.35A11.63,11.63,0,0,0,176,234.22Z" style="fill:#263238"></path><path d="M148.88,222.7a2.92,2.92,0,0,1,.45-.77,15.18,15.18,0,0,1,1.52-1.89,20,20,0,0,1,2.68-2.43,22.81,22.81,0,0,1,3.78-2.28,23,23,0,0,1,4.18-1.47,20.18,20.18,0,0,1,3.57-.53,15.18,15.18,0,0,1,2.43,0,2.6,2.6,0,0,1,.88.14c0,.09-1.27,0-3.28.19a23.75,23.75,0,0,0-3.49.62,23.63,23.63,0,0,0-7.79,3.68,23,23,0,0,0-2.69,2.29C149.69,221.72,149,222.75,148.88,222.7Z" style="fill:#263238"></path><path d="M175.36,260.4a45.44,45.44,0,0,1,5.55-4.13,45.85,45.85,0,0,1,5.85-3.71,45.44,45.44,0,0,1-5.55,4.13A45.85,45.85,0,0,1,175.36,260.4Z" style="fill:#fff"></path><path d="M175,272a6.82,6.82,0,0,1-1.24.47c-.81.26-2,.65-3.47,1a60.49,60.49,0,0,1-11.83,1.19c-4.64.13-8.84.1-11.88.05-1.52,0-2.75-.06-3.59-.09a6.4,6.4,0,0,1-1.32-.11,6.08,6.08,0,0,1,1.32-.1l3.59-.07c3-.05,7.24-.07,11.87-.2a70.43,70.43,0,0,0,11.76-1C173.15,272.51,175,271.94,175,272Z" style="fill:#263238"></path><path d="M94.25,129.74a13.88,13.88,0,0,1,3.3.78,21.68,21.68,0,0,1,7.72,5,32.38,32.38,0,0,1,7.25,11.57,107,107,0,0,1,4.42,16.17,182.79,182.79,0,0,1,3.71,30.18c.14,3.9.13,7.05.09,9.23,0,1-.06,1.88-.08,2.5a5.42,5.42,0,0,1-.07.87,7.34,7.34,0,0,1,0-.87c0-.62,0-1.45,0-2.51,0-2.17-.07-5.32-.26-9.2a195.85,195.85,0,0,0-3.85-30.1,111.65,111.65,0,0,0-4.35-16.1A32.78,32.78,0,0,0,105,135.79a22.27,22.27,0,0,0-7.54-5.08A23.12,23.12,0,0,0,95.1,130,5.81,5.81,0,0,1,94.25,129.74Z" style="fill:#263238"></path><g style="opacity:0.30000000000000004"><path d="M162.69,376.82a57.46,57.46,0,0,0-12-20.13c-9.05-9.85-21.55-16.59-28.5-28L111,314.78c-.94,5.62-1.44,11.39-.46,17s3.56,11.09,8,14.71c5,4.11,11.75,5.5,16.81,9.49,4.63,3.66,7.39,9.12,10.67,14s7.75,9.66,13.59,10.51c1.21.18,2.69,0,3.27-1A3.32,3.32,0,0,0,162.69,376.82Z"></path></g><path d="M174.83,366.16c-3.45-7.28-27.21-36.4-28.36-41.38s4.6-39.47-8.43-43.3l-28.35,23.37S112,340.1,124.63,347a172.1,172.1,0,0,1,24.14,16.48s6.51,17.24,16.48,17.62S178.28,373.44,174.83,366.16Z" style="fill:#ae7461"></path><path d="M138,281.48l.54.17.66.25.84.47a9.77,9.77,0,0,1,2,1.78,13.78,13.78,0,0,1,1.93,3.16,32.63,32.63,0,0,1,2.41,9.82,100.65,100.65,0,0,1,.43,13.39c-.05,2.49-.17,5.09-.28,7.79-.05,1.35-.1,2.73-.1,4.13a13.11,13.11,0,0,0,.13,2.09,7,7,0,0,0,.79,1.94,85.09,85.09,0,0,0,4.93,7.54c1.79,2.54,3.68,5.12,5.62,7.76,3.89,5.28,8,10.78,12.18,16.61,1,1.46,2.05,2.95,3,4.48.5.76,1,1.55,1.43,2.35a16.74,16.74,0,0,1,1.11,2.57,12.19,12.19,0,0,1,.59,5.6,9.07,9.07,0,0,1-2.47,5.15,9.66,9.66,0,0,1-4,2.29l-1.11.29c-.37.06-.75.1-1.13.15a15.54,15.54,0,0,1-2.26.1,12.28,12.28,0,0,1-7.91-3.72,32.06,32.06,0,0,1-5.27-6.72,49.92,49.92,0,0,1-3.66-7.36l.07.11a176.08,176.08,0,0,0-24.93-17,16.56,16.56,0,0,1-4.57-4.85,34.67,34.67,0,0,1-2.89-5.51,70.18,70.18,0,0,1-3.38-10.48,125,125,0,0,1-2.68-15.38c-.21-1.8-.33-3.2-.4-4.14,0-.46-.05-.81-.07-1.07a1.7,1.7,0,0,1,0-.37s0,.12,0,.36.07.61.11,1.07c.1.94.25,2.33.48,4.13a133.51,133.51,0,0,0,2.82,15.32,70,70,0,0,0,3.42,10.41,33.94,33.94,0,0,0,2.88,5.44,16.3,16.3,0,0,0,4.47,4.72,173.55,173.55,0,0,1,25,17l0,0,0,.06a50.29,50.29,0,0,0,3.63,7.27,31.51,31.51,0,0,0,5.19,6.61,11.8,11.8,0,0,0,7.58,3.57,15.84,15.84,0,0,0,2.18-.09c.37-.05.73-.09,1.09-.15l1.06-.28a9.15,9.15,0,0,0,3.76-2.16,8.55,8.55,0,0,0,2.33-4.85,11.94,11.94,0,0,0-.57-5.37,16,16,0,0,0-1.07-2.48c-.45-.79-.92-1.56-1.41-2.32-1-1.52-2-3-3-4.46-4.12-5.83-8.26-11.33-12.14-16.63-1.94-2.64-3.83-5.23-5.62-7.77a86.1,86.1,0,0,1-4.93-7.61,7.3,7.3,0,0,1-.83-2.06,14.47,14.47,0,0,1-.13-2.16c0-1.42.06-2.8.12-4.15.12-2.71.25-5.31.31-7.78a101.14,101.14,0,0,0-.35-13.36,33.19,33.19,0,0,0-2.3-9.77,14.16,14.16,0,0,0-1.87-3.14,9.7,9.7,0,0,0-2-1.79l-.83-.49-.64-.27Z" style="fill:#263238"></path><path d="M166.57,381.14c-.08,0,.11-.75.15-1.95a10.54,10.54,0,0,0-.85-4.51,10.41,10.41,0,0,0-2.76-3.67c-.91-.78-1.58-1.13-1.54-1.21a4.48,4.48,0,0,1,1.77.92,9.38,9.38,0,0,1,3.75,8.5A4.23,4.23,0,0,1,166.57,381.14Z" style="fill:#263238"></path><path d="M173.8,377.59a8.58,8.58,0,0,1-.14-1.85,13.53,13.53,0,0,0-.86-4.29,7.22,7.22,0,0,0-2.68-3.33c-.93-.61-1.65-.73-1.63-.82a3,3,0,0,1,1.82.5,6.92,6.92,0,0,1,3,3.45,11.22,11.22,0,0,1,.75,4.48A5.35,5.35,0,0,1,173.8,377.59Z" style="fill:#263238"></path><path d="M85.33,436.06a1.92,1.92,0,0,1-.51-.25c-.32-.19-.81-.42-1.39-.82a23.8,23.8,0,0,1-4.56-3.83,31.3,31.3,0,0,1-4.93-7.31c-.75-1.48-1.45-3.08-2.14-4.75a45.8,45.8,0,0,1-1.91-5.26,52.08,52.08,0,0,1-1.68-10.67,67.66,67.66,0,0,1,0-8.82,41.24,41.24,0,0,1,.79-5.88,14.6,14.6,0,0,1,.42-1.57,2.17,2.17,0,0,1,.2-.52c.06,0-.19.75-.42,2.13a49.56,49.56,0,0,0-.63,5.87,74.77,74.77,0,0,0,.1,8.76,53,53,0,0,0,1.7,10.56,48.54,48.54,0,0,0,1.88,5.21c.68,1.66,1.37,3.25,2.09,4.73a32.55,32.55,0,0,0,4.78,7.28,26.17,26.17,0,0,0,4.41,3.9C84.69,435.62,85.35,436,85.33,436.06Z" style="fill:#263238"></path></g></svg>
