<svg xmlns="http://www.w3.org/2000/svg" viewBox="0 0 500 500"><g id="freepik--background-complete--inject-2"><path d="M443.92,340.2H263.17a5.87,5.87,0,0,1-5.86-5.86V71.06a5.87,5.87,0,0,1,5.86-5.86H443.92a5.87,5.87,0,0,1,5.86,5.86V334.34A5.87,5.87,0,0,1,443.92,340.2ZM263.17,65.45a5.62,5.62,0,0,0-5.61,5.61V334.34a5.62,5.62,0,0,0,5.61,5.61H443.92a5.61,5.61,0,0,0,5.61-5.61V71.06a5.61,5.61,0,0,0-5.61-5.61Z" style="fill:#e0e0e0"></path><path d="M235.49,340.2H54.75a5.87,5.87,0,0,1-5.87-5.86V71.06a5.87,5.87,0,0,1,5.87-5.86H235.49a5.86,5.86,0,0,1,5.86,5.86V334.34A5.86,5.86,0,0,1,235.49,340.2ZM54.75,65.45a5.62,5.62,0,0,0-5.62,5.61V334.34A5.62,5.62,0,0,0,54.75,340H235.49a5.61,5.61,0,0,0,5.61-5.61V71.06a5.61,5.61,0,0,0-5.61-5.61Z" style="fill:#e0e0e0"></path><rect y="401.27" width="500" height="0.25" style="fill:#e0e0e0"></rect><rect x="51.67" y="415.53" width="16.06" height="0.25" style="fill:#e0e0e0"></rect><rect x="170.35" y="412.82" width="53.53" height="0.25" style="fill:#e0e0e0"></rect><rect x="68.73" y="424.82" width="36.25" height="0.25" style="fill:#e0e0e0"></rect><rect x="378.35" y="412.69" width="43.19" height="0.25" style="fill:#e0e0e0"></rect><rect x="430.45" y="412.69" width="6.33" height="0.25" style="fill:#e0e0e0"></rect><rect x="316.21" y="418.92" width="53.89" height="0.25" style="fill:#e0e0e0"></rect><path d="M413.72,109.59a5.85,5.85,0,0,0-6.3-.37,11.21,11.21,0,0,0-14.75-4.72,12.72,12.72,0,0,0-24.81.3,4.84,4.84,0,0,1-.95,2.51c-1,1.06-2.76.7-4.23.59a10.47,10.47,0,0,0-10.55,7.36L415.9,115A5.09,5.09,0,0,0,413.72,109.59Z" style="fill:#f0f0f0"></path><path d="M465.31,274.1a3.7,3.7,0,0,0-4-.23,7.1,7.1,0,0,0-9.35-3,8.06,8.06,0,0,0-15.73.19,3.11,3.11,0,0,1-.6,1.59c-.66.67-1.75.44-2.69.37a6.64,6.64,0,0,0-6.69,4.67l40.44-.15A3.22,3.22,0,0,0,465.31,274.1Z" style="fill:#f0f0f0"></path><path d="M458.58,213.45a7.09,7.09,0,0,0-7.67-.45c-3.1-6.28-11.77-9.05-18-5.74a15.47,15.47,0,0,0-30.18.36,5.9,5.9,0,0,1-1.16,3.06c-1.25,1.28-3.35.85-5.14.71a12.74,12.74,0,0,0-12.84,9l77.6-.29C461.92,217.44,460.75,215.09,458.58,213.45Z" style="fill:#f0f0f0"></path><path d="M334.74,281.08a9.1,9.1,0,0,0-9.85-.57c-4-8.07-15.12-11.64-23.06-7.38a19.88,19.88,0,0,0-38.78.46c-.3,1.39-.49,2.92-1.49,3.93-1.61,1.65-4.31,1.1-6.61.92a16.35,16.35,0,0,0-16.49,11.5l99.69-.36C339,286.2,337.52,283.19,334.74,281.08Z" style="fill:#f0f0f0"></path><path d="M81.3,309.75a5.81,5.81,0,0,0-6.3-.37,11.22,11.22,0,0,0-14.76-4.73,13.12,13.12,0,0,0-12.52-9.77A13.11,13.11,0,0,0,35.44,305a5,5,0,0,1-.95,2.52c-1,1-2.76.7-4.23.58a10.47,10.47,0,0,0-10.55,7.36l63.77-.23A5.07,5.07,0,0,0,81.3,309.75Z" style="fill:#f0f0f0"></path><path d="M61.3,210.36a3.18,3.18,0,0,0-3.43-.2,6.11,6.11,0,0,0-8-2.57,6.92,6.92,0,0,0-13.51.16,2.73,2.73,0,0,1-.52,1.37c-.56.57-1.5.38-2.31.32a5.68,5.68,0,0,0-5.74,4l34.74-.13A2.78,2.78,0,0,0,61.3,210.36Z" style="fill:#f0f0f0"></path><path d="M290.42,39.2a4.86,4.86,0,0,0-5.24-.3A9.3,9.3,0,0,0,272.94,35a10.56,10.56,0,0,0-20.6.25,4.07,4.07,0,0,1-.79,2.08c-.86.88-2.29.58-3.51.49a8.7,8.7,0,0,0-8.76,6.11l53-.19A4.25,4.25,0,0,0,290.42,39.2Z" style="fill:#f0f0f0"></path><path d="M422,317.52c4.17-1.91,7,11.89,7,11.89s1.29-27.54,8.57-25.17.34,24,.34,24S454.75,286.3,463,292.88s-18.43,40-18.43,40,21.4-23,24.26-16.05-20.24,24.36-20.24,24.36,13.73-3.45,11.24,1.48-31.49,10.22-31.49,10.22C423.7,341,417.84,319.42,422,317.52Z" style="fill:#ebebeb"></path><path d="M428.37,353.18a.2.2,0,0,1-.13,0,.25.25,0,0,1-.09-.34c.1-.17,10-16.86,16.31-28.4a.25.25,0,1,1,.43.24c-6.34,11.55-16.21,28.25-16.31,28.41A.24.24,0,0,1,428.37,353.18Z" style="fill:#e0e0e0"></path><path d="M434.85,342.2a.25.25,0,0,1-.21-.12.24.24,0,0,1,.07-.34l10.6-6.73a.25.25,0,0,1,.27.43L435,342.16A.22.22,0,0,1,434.85,342.2Z" style="fill:#e0e0e0"></path><path d="M24.05,380.25c1.72-3.83,12,4,12,4s-15.78-19.78-9.32-22.54S41.5,378,41.5,378s-13.77-39.12-4.07-39.59S49,377.21,49,377.21s.86-28.79,7-25.76.78,29.06.78,29.06,7.38-10.68,8.65-5.77-15.54,26.1-15.54,26.1C39.43,395.46,22.32,384.09,24.05,380.25Z" style="fill:#ebebeb"></path><path d="M49.86,401.09a.25.25,0,0,1-.25-.2c0-.17-3.33-17.66-5.94-29.46a.25.25,0,0,1,.49-.11c2.61,11.81,5.91,29.3,5.94,29.48a.25.25,0,0,1-.2.29Z" style="fill:#e0e0e0"></path><path d="M47.69,389.6h-.07a.24.24,0,0,1-.17-.31l3.24-11.06a.25.25,0,0,1,.31-.17.25.25,0,0,1,.17.31l-3.24,11.06A.26.26,0,0,1,47.69,389.6Z" style="fill:#e0e0e0"></path><g id="freepik--freepik--tree-1--inject-2--inject-2"><path d="M344.11,187.53a15.61,15.61,0,0,0-8.94-2.24c-1.92-2.34-.37-5.86,1.5-8.24s4.14-5.09,3.43-8c-1.1-4.43-7.31-4.6-11.79-3.74-1.65-2.67-1.61-6-2.41-9.08s-3.44-6.33-6.37-5.89-4.74,3.67-7.62,4.36c-3.37.79-6.27-2.18-8.91-4.4a8.52,8.52,0,0,0-1-.77h0c.55-9.22,9.32-7.74,16.78-9,5.84-1-9.63-15.72,2.16-20.48a10.35,10.35,0,0,0,5.68-3.93,6.67,6.67,0,0,0-2.57-8.15,15.7,15.7,0,0,0-8.92-2.24c-1.93-2.34-.38-5.86,1.49-8.24s4.13-5.09,3.44-8c-1.12-4.42-7.31-4.6-11.79-3.74-1.65-2.67-1.61-6-2.42-9.08s-3.42-6.32-6.36-5.89-4.74,3.67-7.63,4.36c-3.36.79-6.27-2.18-8.9-4.4s-7.23-3.62-9-.69c-1.08,1.73-.43,4.17-1.57,5.9-1.95,2.94-6.61,1.14-9.47-1s-7.51-4-9.48-1.1a12,12,0,0,0-1.12,3.07A8.1,8.1,0,0,1,251.1,79c-.57-2-.74-4.26-1.27-6.33-.81-3.06-3.42-6.32-6.37-5.89s-4.74,3.69-7.63,4.36c-3.36.81-6.26-2.18-8.9-4.4s-7.23-3.62-9-.67c-1.08,1.73-.43,4.17-1.57,5.9a3,3,0,0,1-.94,1,14.94,14.94,0,0,0-3-.2c-1.93-2.32-.37-5.81,1.49-8.21s4.15-5.11,3.44-8c-1.1-4.44-7.31-4.6-11.79-3.73-1.65-2.69-1.61-6-2.42-9.08s-3.41-6.35-6.36-5.9-4.74,3.7-7.63,4.39c-3.36.78-6.27-2.17-8.9-4.41s-7.23-3.61-9-.68c-1.08,1.71-.43,4.16-1.57,5.89-1.95,2.93-6.56,1.12-9.45-1s-7.53-4.05-9.5-1.1a12.1,12.1,0,0,0-1.12,3.08c-1.35,3.93-5.62,5.9-8.92,8.41s-5.91,7.53-3.12,10.6c1.37,1.53,3.81,2.1,4.5,4.06.84,2.32-1.61,4.58-3.58,6.25a10.27,10.27,0,0,0-2,10.52,9.2,9.2,0,0,1-3.4,2c-3.36.79-6.27-2.18-8.9-4.4s-7.24-3.62-9-.69c-1.09,1.71-.44,4.17-1.58,5.9-1.94,2.95-6.56,1.14-9.45-1s-7.53-4-9.49-1.1a11.82,11.82,0,0,0-1.12,3.06c-1.36,3.93-5.62,5.9-8.92,8.41s-5.92,7.53-3.13,10.61c1.32,1.54,3.6,2.16,4.39,3.93-2.32-.92-5-.68-6.08,1s-.43,4.16-1.57,5.89c-1.94,3-6.56,1.14-9.45-1s-7.53-4.05-9.49-1.1a11.39,11.39,0,0,0-1.12,3.08c-1.36,3.93-5.62,5.86-8.93,8.39s-5.91,7.55-3.12,10.62c1.38,1.51,3.81,2.1,4.5,4.06.87,2.32-1.59,4.58-3.56,6.25-3.26,2.75-3.85,11,.46,13.31,1.8.94,4.5,1.43,4.89,3.22s-1.42,3.16-2.61,4.54a8.5,8.5,0,0,0,2.61,12.71c1,.48,2.3.89,2.69,2a4.28,4.28,0,0,1-.25,2.4,12.81,12.81,0,0,0-.42,4.61,2.12,2.12,0,0,0,.57,1.44,2.14,2.14,0,0,0,1.36.39c6.21.28,9.2-1.92,13,3.48a4.62,4.62,0,0,0,1.3,1.38,4,4,0,0,0,1.71.41c4.26.35,7-2.3,10.94-2.81,5.44-.69,6.56,2.1,11.34,4.34,7.49,3.54,11.12,1.36,12.54-3.75a22.81,22.81,0,0,0,.67-4.42,7.68,7.68,0,0,1,2.61-5.9h.12c4,.33,6.68-1.94,10.18-2.65l2.22-.24c4.14,0,5.52,2.46,9.82,4.42a14.8,14.8,0,0,0,6.41,1.71c.63,2.32-1.65,4.4-3.62,6-3.24,2.77-3.83,11,.47,13.3,1.79.94,4.51,1.47,4.9,3.24s-1.42,3.17-2.62,4.52a9,9,0,0,0-.73,1.12,8.55,8.55,0,0,0,3.35,11.62c1,.49,2.3.88,2.67,2a4.09,4.09,0,0,1-.24,2.42,12.1,12.1,0,0,0-.41,4.6,2.17,2.17,0,0,0,.55,1.45,2.19,2.19,0,0,0,1.38.38c6.21.27,9.19-1.93,13,3.47a4.06,4.06,0,0,0,1.29,1.38,4.28,4.28,0,0,0,1.71.43c4.27.36,7-2.32,10.95-2.81,5.42-.69,6.56,2.1,11.32,4.34,7.51,3.52,11.14,1.36,12.56-3.75a22.14,22.14,0,0,0,.66-4.44c.55-9.2,9.32-7.74,16.81-9a1.48,1.48,0,0,0,1.22-.85h.47c4.26.36,7-2.3,10.94-2.81,5.45-.68,6.57,2.11,11.34,4.35,7.49,3.53,11.12,1.35,12.54-3.76a22.16,22.16,0,0,0,.67-4.44c.49-7.15,5.89-7.86,11.79-8.41a8.21,8.21,0,0,0,4.32,6.7c1,.47,2.3.89,2.69,2a4.25,4.25,0,0,1-.25,2.39,13,13,0,0,0-.41,4.6,2.08,2.08,0,0,0,.55,1.46,2.28,2.28,0,0,0,1.37.39c6.21.28,9.2-1.93,13,3.48a4.47,4.47,0,0,0,1.3,1.37,3.89,3.89,0,0,0,1.71.42c4.26.35,7-2.3,10.94-2.81,5.45-.69,6.57,2.1,11.34,4.34,7.49,3.54,11.12,1.36,12.54-3.75a22.07,22.07,0,0,0,.67-4.42c.55-9.22,9.33-7.75,16.8-9,5.84-1-9.65-15.72,2.14-20.47a10.46,10.46,0,0,0,5.68-3.93A6.67,6.67,0,0,0,344.11,187.53Z" style="fill:#e0e0e0"></path><path d="M127.06,242.45a13,13,0,0,0-7.45-1.87c-1.6-2-.29-4.87,1.25-6.86s3.45-4.16,2.85-6.7c-.87-3.7-6-3.83-9.77-3.1-1.4-2.24-1.36-5-2.08-7.57s-2.71-5.2-5.31-4.88-4,3.07-6.36,3.64c-2.79.66-5.22-1.81-7.4-3.67s-6-3-7.55-.58c-.9,1.46-.35,3.52-1.29,4.95-1.64,2.5-5.49.94-7.9-.83s-6.24-3.37-7.9-.91a10.41,10.41,0,0,0-.94,2.55c-1.12,3.29-4.66,4.91-7.42,7s-4.95,6.24-2.6,8.84c1.14,1.27,3.16,1.79,3.74,3.39.71,2.08-1.35,3.83-3,5.2-2.71,2.31-3.21,9.21.37,11.08,1.52.79,3.72,1,4.16,2.7s-1.17,2.65-2.08,3.79a7.12,7.12,0,0,0,1.26,10,6.91,6.91,0,0,0,.92.6c.86.42,1.92.75,2.23,1.67a3.38,3.38,0,0,1-.21,2.08,10.26,10.26,0,0,0-.33,3.82,1.73,1.73,0,0,0,.45,1.21,1.82,1.82,0,0,0,1.15.33c5.16.23,7.65-1.6,10.81,2.89a3.83,3.83,0,0,0,1.08,1.15,3.43,3.43,0,0,0,1.44.35c3.55.29,5.86-1.91,9.13-2.33,4.49-.58,5.45,1.75,9.42,3.62,6.24,2.93,9.29,1.12,10.4-3.14a20,20,0,0,0,.56-3.68c.45-7.67,7.77-6.47,14-7.51,4.87-.81-8-13.08,1.79-17.05a8.55,8.55,0,0,0,4.74-3.31A5.55,5.55,0,0,0,127.06,242.45Z" style="fill:#e0e0e0"></path><path d="M222.15,200.05l8-25.41,15.6-20.07-2.66-2.22-14.72,16L225.76,143H221.5s3.5,30.19-1.53,41.24c0,0-18.3,46.54-29.43,56.62a9.77,9.77,0,0,0-1.64,2A116.75,116.75,0,0,0,176,218.56c4.4-11.25,13.83-36,17-49.21a261.49,261.49,0,0,0,5.64-31.2l-3.65-.4s-10.35,48.87-27.46,71.12a67.66,67.66,0,0,0-17-11.45c-1.39-6.87-2-18.83,2.57-37.49l-3.62-.92a89.3,89.3,0,0,0-6.29,34.74,62.88,62.88,0,0,1-7.42-4.39c-16.49-11.6-28.08-32.55-28.08-32.55l-3.38,3.28S118.35,191,138,201.31s32.31,35.47,33.33,42.06c.28,1.88,2.54,16.82-.6,43-20.86-8.9-62.21-33.41-65-35.67l-4.81,6.47L167.81,305c1.05,63.78-3.67,82.14-3.49,96.5h39c-1-19.81-9.27-46.29-5.63-124.13.31-1.91.64-4.11.95-6.66,3-23.87,21.16-56.5,29.78-65.77a179.83,179.83,0,0,1,19.5-17.82l-2.37-5.09Z" style="fill:#e6e6e6"></path></g></g><g id="freepik--Shadow--inject-2"><path d="M458.88,458.39c0,3.39-93.52,6.14-208.88,6.14s-208.88-2.75-208.88-6.14,93.52-6.13,208.88-6.13S458.88,455,458.88,458.39Z" style="fill:#f5f5f5"></path></g><g id="freepik--Rock--inject-2"><polygon points="476.1 402.18 454.75 369.66 431.88 340.29 414.62 335.4 381.24 300.45 338.35 306.84 306.53 322.63 288.55 365.38 276.51 369.66 260.33 402.18 476.1 402.18" style="fill:#263238"></polygon><path d="M288.55,365.38v3.14l32.09,3.11s-41.16,1.55-41.29,1.94-17.54,25.65-17.54,25.65l14.7-29.56Z" style="isolation:isolate;opacity:0.2"></path></g><g id="freepik--Plant--inject-2"><path d="M248.47,420.28a19.48,19.48,0,0,0-4.38-4.5,5.28,5.28,0,0,0-5-.93c-2.11.86-3.09,3.45-2.79,5.71a17.77,17.77,0,0,0,2.66,7c5.48,8,10.56,15.39,19,21.36C258,439,253.53,428.79,248.47,420.28Z" style="fill:#407BFF"></path><path d="M276.41,421.66c-1.9-1-5.42.44-7.15,1.73a26.37,26.37,0,0,0-7.61,9c-2.65,4.75-3,11.42-3.29,15.66,6.7-5.45,13.54-11,18.13-18.35a9.77,9.77,0,0,0,1.69-4.15A4,4,0,0,0,276.41,421.66Z" style="fill:#407BFF"></path><path d="M259,453a.26.26,0,0,1-.25-.2,65.47,65.47,0,0,0-8.38-20.74.25.25,0,0,1,.42-.26,65.93,65.93,0,0,1,8.45,20.9.25.25,0,0,1-.19.29Z" style="fill:#263238"></path><path d="M258.08,448.94H258a.25.25,0,0,1-.15-.32,45,45,0,0,1,7.78-13.55.25.25,0,0,1,.35,0,.24.24,0,0,1,0,.35,44.52,44.52,0,0,0-7.69,13.4A.25.25,0,0,1,258.08,448.94Z" style="fill:#263238"></path></g><g id="freepik--rabbit-2--inject-2"><path d="M380.78,367.57a4.57,4.57,0,0,0-2.57-2.2c-6-2.88-12.17-5.56-18.74-6.57-12-1.85-24.33,2.08-34.5,8.69a44.51,44.51,0,0,0-7.71,6.17,36.75,36.75,0,0,0-7.64,12,41.89,41.89,0,0,0-2.94,15.24c-.05,13.26,6.15,25.65,12.2,37.45-3.71.45-7.47.1-11.2.27s-7.62.95-10.51,3.32-4.43,6.68-2.72,10l86.33-3.47,23.9-46.67Z" style="fill:#407BFF"></path><path d="M380.78,367.57a4.57,4.57,0,0,0-2.57-2.2c-6-2.88-12.17-5.56-18.74-6.57-12-1.85-24.33,2.08-34.5,8.69a44.51,44.51,0,0,0-7.71,6.17,36.75,36.75,0,0,0-7.64,12,41.89,41.89,0,0,0-2.94,15.24c-.05,13.26,6.15,25.65,12.2,37.45-3.71.45-7.47.1-11.2.27s-7.62.95-10.51,3.32-4.43,6.68-2.72,10l86.33-3.47,23.9-46.67Z" style="opacity:0.2"></path><path d="M327.41,312.27c-.62,4.91-2.84,12.16-3.3,16.66-1.07,10.57-2.13,21.37.21,31.73a97.07,97.07,0,0,0,3.14,10.3c7.38,21.44,15,43.34,29.13,61.09l39.93,19.52s12.87-3.34,21.66-18.8,12.13-45.49,4.25-62.47-23.65-42.15-28.5-58.22S388,275.44,388,275.44Z" style="fill:#407BFF"></path><path d="M347.83,238.69s-20.08-1-36.46,23.87c-9.2,14-12.6,22.7-14.4,32.09-1.68,8.73,1.85,14.12,6.4,16.66,10.76,6,24.78,3.65,24.78,3.65l59.41-32.6S395.14,238.09,347.83,238.69Z" style="fill:#407BFF"></path><g style="opacity:0.30000000000000004"><path d="M348.53,270.73c-.5-3-1.58-6.07-3.82-8.15a12.42,12.42,0,0,0-7.14-2.94l-.2,0h0c-5.53-.52-9-.09-11.85,1.84-3,2-5.77,4.45-6.94,7.87a24.41,24.41,0,0,0-.77,10.69,19.41,19.41,0,0,0,3,9.2,13.92,13.92,0,0,0,13.54,5.22,17.34,17.34,0,0,0,11.86-8.85A23.2,23.2,0,0,0,348.53,270.73Z" style="fill:#fff"></path></g><path d="M371.21,173.74c-.46-3.91-1.19-7.92-3.37-11.19s-6.19-5.63-10-4.78c-3.57.8-6.05,4-7.95,7.13-10.13,16.7-12.68,37-11.75,56.53a176,176,0,0,0,2.06,19.84l18.09,18.59C366.4,231.78,374.63,202.78,371.21,173.74Z" style="fill:#407BFF"></path><path d="M324.06,329.48a36.61,36.61,0,0,1-9.45,17.2c-4.61,4.55-10,8.35-14.11,13.34a36.76,36.76,0,0,0-7.79,16.65c-.66,3.57-.76,7.39.75,10.68s5,5.89,8.58,5.49c4.07-.45,6.84-4.25,8.77-7.85,3.17-5.93,5.49-12.29,8.82-18.12s7.89-11.29,14.06-13.95Z" style="fill:#407BFF"></path><g style="opacity:0.30000000000000004"><path d="M333.87,330.54c-1.27,8.41-.38,12.88-7,19.07-10.55,9.91-14.36,13.59-18.22,18.95-5.34,7.4-6.81,18.7-2.36,22.66l21.34-38.65c3.45-2.07,5.4-6,6-10A41,41,0,0,0,333.87,330.54Z"></path></g><path d="M333.49,343.42c-2.34,6.23-7.05,9.64-10.22,12.42-3.62,3.19-7.81,6.75-10.3,10.17a37.43,37.43,0,0,0-6.18,11.67,22.23,22.23,0,0,0-.08,14.67c1.22,3.22,3.78,6.26,7.19,6.64,3.25.36,6.3-1.81,8.23-4.44s3.07-5.76,4.74-8.57c4.08-6.87,11.05-11.42,17.72-15.8,7.07-4.65,14.32-9.64,18.54-17a55.53,55.53,0,0,0,4.07-9.71q2.1-6,4.19-12.07Z" style="fill:#407BFF"></path><path d="M360.38,357.19h0s2.38-1.47,5.93-7.16c5.07-8.14,5.07-18.6,5.07-18.6s-.89,9.94-6.32,16.82-13.83,11.18-13.83,11.18h0l-.92.31h0c-.66.22-1.33.43-2,.7-14.64,6.25-25.93,18.6-26.16,33.71l.39,8c3.18-14.71,14.38-25.47,27-33.6s27.61-7.56,42.3-4.33C381.69,357.08,370.9,355.51,360.38,357.19Z" style="opacity:0.30000000000000004"></path><path d="M449.26,399.44a20.64,20.64,0,0,0-5.14-12,15.65,15.65,0,0,0-11.82-5.14A12.62,12.62,0,0,0,421.56,389l-2.49,24.34a19.91,19.91,0,0,0,13.76,5.71A16.76,16.76,0,0,0,446,412.55,19,19,0,0,0,449.26,399.44Z" style="fill:#407BFF"></path><path d="M337.11,280.48c.37,4.69-1.75,8.85-4.73,9.3s-5.69-3-6.06-7.69,1.74-8.85,4.72-9.29S336.73,275.79,337.11,280.48Z" style="fill:#263238"></path><path d="M338.38,271.18a1.22,1.22,0,0,1-1-.31,9.83,9.83,0,0,0-9-2.51,1.23,1.23,0,0,1-1.57-.91,1.46,1.46,0,0,1,1-1.68,12.3,12.3,0,0,1,11.4,3,1.36,1.36,0,0,1,0,1.9A1.38,1.38,0,0,1,338.38,271.18Z" style="fill:#263238"></path><ellipse cx="329.91" cy="278.41" rx="1.12" ry="2.88" style="fill:#fff"></ellipse><path d="M339.84,239.16l-.21-1.57h0a20.39,20.39,0,0,0,15.94-15.17c3.33-13.57,9.35-33.61,16.43-36.64l-8.41,54.29Z" style="opacity:0.30000000000000004"></path><path d="M404.28,168c-.7-4.31-2.38-9.26-6.56-10.51-4.65-1.4-9,2.71-11.94,6.59-17.53,23.37-25.44,52.35-33,80.57l13.27,15.65A112,112,0,0,0,387.46,237C401.22,217,408.22,191.94,404.28,168Z" style="fill:#407BFF"></path><g style="opacity:0.5"><path d="M368.21,243.33q3.57-16.67,7.67-33.21c3.37-13.56,7.28-27.57,16.48-38.08,1.18-1.36,2.74-2.75,4.52-2.47,2.72.43,3.27,4.07,3.06,6.82a120.48,120.48,0,0,1-28.6,68.8" style="fill:#fff"></path></g><path d="M426.21,384.1s2.23,18.37-2,32.87l2.7,1s4-20.43,1.4-34.91Z" style="opacity:0.30000000000000004"></path><path d="M306,305.72c-.2,1.37-.74,2.94-2,3.39s-2.73-.91-2.4-.57a3.51,3.51,0,0,0,3,1.3,2.12,2.12,0,0,0,1.67-2,8.44,8.44,0,0,0,6.33,3.66c4.18.2,8.29-2.64,8.5-7.25l-.13-.37a7.73,7.73,0,0,1-15.08,1.3" style="opacity:0.30000000000000004"></path><path d="M396.64,367.57a4.52,4.52,0,0,0-2.56-2.2c-6-2.88-12.17-5.56-18.74-6.57-12-1.85-24.33,2.08-34.5,8.69a44.51,44.51,0,0,0-7.71,6.17,36.59,36.59,0,0,0-7.64,12,41.89,41.89,0,0,0-2.94,15.24c-.05,13.26,6.15,25.65,12.2,37.45-3.71.45-7.47.1-11.2.27s-7.62.95-10.51,3.32-4.43,6.27-2.72,9.59l86.5,0,23.72-49.7Z" style="fill:#407BFF"></path><path d="M393.93,312.08c4.7,11.19,16.09,21.84,16.09,24.24.14,1.76,0,2.49-4.55,1.91a48,48,0,0,1,7.81,5.64c.7.61,1.44,1.44,1.23,2.35s-1.43,1.37-2.44,1.51a29.14,29.14,0,0,1-11.5-.65" style="fill:#407BFF"></path><path d="M299.83,303.58l-.07-.09h0Z" style="fill:#263238"></path><path d="M312.4,298a4.55,4.55,0,0,0-2.61-.86,26.26,26.26,0,0,0-7.4.36c-1.32.25-2.79.73-3.37,2a3.17,3.17,0,0,0,0,2.49,9,9,0,0,0,1.27,2.07,13.56,13.56,0,0,0,3.38,2.57,6.89,6.89,0,0,0,5.09.17,7.55,7.55,0,0,0,3.13-2.91,7.67,7.67,0,0,0,1.36-2.89A3.23,3.23,0,0,0,312.4,298Z" style="fill:#263238"></path><path d="M316.3,391.22a20.41,20.41,0,0,0,2.42,6.57,5.32,5.32,0,0,1-2.42-6.57Z" style="fill:#263238"></path><path d="M311.65,391.93a20.49,20.49,0,0,0,1.32,6.88,5.33,5.33,0,0,1-1.32-6.88Z" style="fill:#263238"></path><path d="M315.26,444.45a20.25,20.25,0,0,0-1.32,6.88,5.33,5.33,0,0,1,1.32-6.88Z" style="fill:#263238"></path><path d="M320.39,444.45a20.49,20.49,0,0,0-1.32,6.88,5.33,5.33,0,0,1,1.32-6.88Z" style="fill:#263238"></path><path d="M300,386.65a20.39,20.39,0,0,0,1.32,6.87,5.31,5.31,0,0,1-1.32-6.87Z" style="fill:#263238"></path><path d="M334,438.24a134.17,134.17,0,0,1,23.46,0,133.2,133.2,0,0,1-23.46,0Z" style="fill:#263238"></path><path d="M321.09,303.84c-.78,5.13-6.78,9.06-11.59,6.23a8.47,8.47,0,0,1-3.6-3.56l.36.16-.42.06.26-.31a3.06,3.06,0,0,1-1.55,2.71,3.37,3.37,0,0,1-2.95-.59A6.08,6.08,0,0,0,303,309c1.75.36,2.52-1.28,2.44-2.8l.68-.15.21-.05.14.21c4.3,6.24,12,4.38,14.6-2.33Z" style="fill:#263238"></path></g><g id="freepik--rabbit-1--inject-2"><path d="M70,355.31a18,18,0,0,0,.62,35.57L90,367.75A18.59,18.59,0,0,0,70,355.31Z" style="fill:#263238"></path><path d="M227.25,446.62c-1-1.43-2.55-2.11-4.08-2.93-7.79-4.15-17.25-5.46-24.54-9,10.39-9.76,13-25.68,13.92-40.44l-49.81,13s.5,22.54,2.55,33.3c.54,2.85,1.38,6.57,3.48,8.56,2.64,2.5,4.44,3.43,8.07,3.6q22.4,1.08,44.85.91c2.2,0,4.77-.23,6-2.08A4.56,4.56,0,0,0,227.25,446.62Z" style="fill:#263238"></path><path d="M88.6,363.7a55,55,0,0,0-17.92,28.7S68,380.78,73.82,372.13A18.56,18.56,0,0,1,88.6,363.7Z" style="opacity:0.30000000000000004"></path><path d="M164.11,446.2c-19.56.45-39.16.89-58.65-.79-8.62-.75-17.62-2.07-24.6-7.19C71.78,431.56,68,419.7,67.48,408.46c-.55-13.29,3-26.9,11-37.55s20.48-18.06,33.76-18.79c12.61-.7,24.71,4.36,36.65,8.48s25.11,7.37,37,3.13l32.45,29.76-30.94,47Z" style="fill:#263238"></path><g style="opacity:0.30000000000000004"><path d="M148,398.19c-8.92-13.58-23.58-22.53-39.5-16l4.86,11.11a36.37,36.37,0,0,1,19.06,50.35l15.51.55A42.86,42.86,0,0,0,148,398.19Z"></path></g><path d="M157.44,447.24c-4.33-2.63-10.65-3.34-15.67-2.75,6.42-9,9.72-20.37,8.33-31.35S142.45,391.73,133,386a26.68,26.68,0,0,0-9.08-3.08c-17.1-2.95-34,6.18-41.56,21.81L71.76,426.64c5.09,14.53,12.53,30.84,20.72,30.84,10.78,0,18.4-.25,29.18,0s21.21-.46,32.54-.56c2.6,0,5.71-.06,6.21-3.64A6.16,6.16,0,0,0,157.44,447.24Z" style="fill:#263238"></path><path d="M243.13,395.09c4.12-2,8.93-11.26,7.73-18.29-1.49-8.68-3.85-13.69-12-26-14.45-21.94-32.17-21.06-32.17-21.06-41.72-.53-35,38.52-35,38.52l41.47,31.81S229.83,401.63,243.13,395.09Z" style="fill:#263238"></path><g style="opacity:0.5"><path d="M219.59,345.88c-7-.59-14.37,2.3-18.4,8s-4,14.25.68,19.46c4.17,4.65,11.24,6,17.26,4.34a14.32,14.32,0,0,0,7.64-4.77c2-2.65,2.68-6.1,2.87-9.43.24-4.51-.37-9.26-2.94-13s-7.49-6-11.75-4.57" style="fill:#fff"></path></g><g style="opacity:0.5"><path d="M250.86,376.8c-.18-1-.36-2-.57-2.89a12,12,0,0,0-9.78-3.44,17.26,17.26,0,0,0-7.75,3.61,21.5,21.5,0,0,0-6.4,7c-1.49,2.81-1.37,6.07-.87,9.21.47,3,2.3,5.46,5.94,8.68a48.41,48.41,0,0,0,11.7-3.84C247.25,393.06,252.06,383.83,250.86,376.8Z" style="fill:#fff"></path></g><path d="M186.12,272.45c.4-3.45,1-7,3-9.88s5.45-4.95,8.84-4.2c3.16.69,5.34,3.52,7,6.28,8.94,14.73,11.19,32.65,10.37,49.87a153.54,153.54,0,0,1-1.82,17.5l-16,16.4C190.35,323.65,183.1,298.06,186.12,272.45Z" style="fill:#263238"></path><path d="M216,367.43c-.33,4.14,1.54,7.81,4.16,8.2s5-2.64,5.35-6.78-1.54-7.8-4.16-8.2S216.28,363.29,216,367.43Z" style="fill:#263238"></path><path d="M216,367.43c-.33,4.14,1.54,7.81,4.16,8.2s5-2.64,5.35-6.78-1.54-7.8-4.16-8.2S216.28,363.29,216,367.43Z" style="opacity:0.30000000000000004"></path><path d="M214.83,359.23a1.1,1.1,0,0,0,.86-.28,8.66,8.66,0,0,1,7.93-2.21,1.08,1.08,0,0,0,1.38-.8,1.29,1.29,0,0,0-.88-1.49,10.84,10.84,0,0,0-10.05,2.68,1.21,1.21,0,0,0,0,1.68A1.31,1.31,0,0,0,214.83,359.23Z" style="fill:#263238"></path><path d="M221.31,365.6c0,1.4.44,2.54,1,2.54s1-1.14,1-2.54-.44-2.54-1-2.54S221.31,364.2,221.31,365.6Z" style="fill:#fff"></path><path d="M213.78,330.15l.19-1.38h0a18,18,0,0,1-14.06-13.38c-2.94-12-8.25-29.64-14.5-32.32L192.83,331Z" style="opacity:0.30000000000000004"></path><path d="M156.94,267.37c.62-3.8,2.1-8.17,5.79-9.28,4.1-1.23,8,2.39,10.53,5.82,15.46,20.61,22.45,46.18,29.11,71.07l-11.71,13.8a98.78,98.78,0,0,1-18.88-20.49C159.64,310.64,153.47,288.5,156.94,267.37Z" style="fill:#263238"></path><g style="opacity:0.5"><path d="M188.76,333.83q-3.15-14.7-6.77-29.29c-3-12-6.42-24.32-14.53-33.6-1-1.19-2.42-2.42-4-2.17-2.39.38-2.89,3.59-2.7,6,2,24.56,10.53,45.54,25.23,60.69" style="fill:#fff"></path></g><path d="M249.07,387a.27.27,0,0,1,.07-.08h0Z" style="fill:#263238"></path><path d="M248.4,387.29c-2.21,2.87-4.87,2.74-6.18,2.2a8.7,8.7,0,0,1-4-5.12,2.83,2.83,0,0,1,.77-2.6,3.91,3.91,0,0,1,2.29-.76,34.23,34.23,0,0,1,7.82.57S251.86,382.8,248.4,387.29Z" style="fill:#263238"></path><path d="M230.78,386.89c2.32,5.84,9.05,7.5,12.85,2l.62.25c-.21,0-.13.15-.17.23a2.75,2.75,0,0,0,1.9,3.28,2.91,2.91,0,0,1-2.32-3.34c0-.11.09-.17-.07-.34l.62.26a7.65,7.65,0,0,1-3.18,3.17c-4.26,2.52-9.62-1-10.25-5.55Z" style="fill:#263238"></path><path d="M198.4,416.63c0,1.06.41,18,.41,18l3.67-4.34Z" style="opacity:0.30000000000000004"></path><path d="M214.83,359.23a1.1,1.1,0,0,0,.86-.28,8.66,8.66,0,0,1,7.93-2.21,1.08,1.08,0,0,0,1.38-.8,1.29,1.29,0,0,0-.88-1.49,10.84,10.84,0,0,0-10.05,2.68,1.21,1.21,0,0,0,0,1.68A1.31,1.31,0,0,0,214.83,359.23Z" style="opacity:0.30000000000000004"></path><path d="M214.86,446.74a5.32,5.32,0,0,1,1.32,6.88,20.25,20.25,0,0,0-1.32-6.88Z"></path><path d="M147.23,449.82a5.32,5.32,0,0,1,1.33,6.87,20.4,20.4,0,0,0-1.33-6.87Z"></path><path d="M154,449.82a5.31,5.31,0,0,1,1.32,6.87,20.15,20.15,0,0,0-1.32-6.87Z"></path><path d="M221.32,446.23a5.32,5.32,0,0,1,1.32,6.88,20.25,20.25,0,0,0-1.32-6.88Z"></path><path d="M130.11,443.74c3.8-.3,8.07-.42,11.87-.48,5.48-.1,15.72.15,17.76,6.41a6.21,6.21,0,0,0-1.05-1.64,10.78,10.78,0,0,0-5.06-2.69c-5.07-1.4-10.39-1-15.6-1.21-2.32-.08-5.63-.2-7.92-.39Z"></path><path d="M166.89,446.69a43.19,43.19,0,0,1-4.4-26.05c0,.56,0,1.12,0,1.67a82.93,82.93,0,0,0,4.36,24.38Z"></path></g></svg>
